<svg width="213" height="189" viewBox="0 0 213 189" fill="none" xmlns="http://www.w3.org/2000/svg">
<g clip-path="url(#clip0_37_742)">
<path d="M155.484 90.2227C153.98 90.0579 152.978 89.3 152.978 87.7402C152.967 86.2023 153.915 85.2687 155.441 85.2796C156.857 85.2796 157.751 86.1694 157.827 87.5754C157.915 89.1352 156.956 89.9591 155.484 90.2227Z" fill="#FFA2A4"/>
<path d="M157.642 30.9608C157.533 29.6646 156.629 28.8188 155.321 28.8957C153.915 28.9726 153.043 29.9173 153.163 31.3563C153.272 32.6524 154.177 33.3445 155.473 33.4653C156.868 33.2127 157.762 32.4108 157.642 30.9608Z" fill="#FFA2A4"/>
<path d="M141.753 1.12651C140.337 1.0606 139.41 1.93937 139.367 3.36737C139.334 4.68553 140.184 5.57528 141.47 5.64119C142.898 5.71808 143.682 4.80636 143.9 3.41131C143.759 2.09316 143.05 1.19242 141.753 1.12651Z" fill="#FFA2A4"/>
<path d="M153.305 17.3837C153.37 18.7568 154.231 19.4708 155.561 19.3829C156.792 19.306 157.5 18.5261 157.49 17.2848C157.49 15.9117 156.683 15.2197 155.354 15.1318C154.013 15.2746 153.239 16.0216 153.305 17.3837Z" fill="#FFA2A4"/>
<path d="M169.15 85.5433C167.81 85.5653 167.003 86.4001 167.014 87.7402C167.025 89.0914 167.853 89.9042 169.194 89.8932C170.534 89.8822 171.242 89.0364 171.351 87.6963C171.231 86.3562 170.501 85.5323 169.15 85.5433Z" fill="#FFA2A4"/>
<path d="M185.344 59.4218C185.311 58.2904 184.603 57.5544 183.491 57.5544C182.249 57.5544 181.497 58.3453 181.573 59.5976C181.65 60.707 182.423 61.3002 183.644 61.3991C184.592 61.1354 185.377 60.5752 185.344 59.4218Z" fill="#FFA2A4"/>
<path d="M183.655 85.785C182.402 85.6641 181.606 86.3781 181.519 87.6414C181.443 88.7947 182.14 89.5527 183.252 89.6625C184.516 89.7943 185.202 89.0254 185.42 87.8391C185.355 86.6637 184.777 85.8838 183.655 85.785Z" fill="#FFA2A4"/>
<path d="M181.617 45.6032C181.628 46.6358 182.314 47.3388 183.317 47.4047C184.461 47.4816 185.224 46.7676 185.279 45.6362C185.344 44.4828 184.57 43.8676 183.459 43.6699C182.358 43.8347 181.606 44.4388 181.617 45.6032Z" fill="#FFA2A4"/>
<path d="M181.519 73.3066C181.53 74.5698 182.293 75.3168 183.546 75.2728C184.668 75.2289 185.377 74.4929 185.377 73.3505C185.377 72.0763 184.581 71.4502 183.361 71.3293C182.26 71.549 181.519 72.1532 181.519 73.3066Z" fill="#FFA2A4"/>
<path d="M169.324 1.60998C168.202 1.53308 167.461 2.2361 167.417 3.36751C167.385 4.38908 168.06 5.0921 169.041 5.15801C170.164 5.2349 170.796 4.5209 170.992 3.35653C170.85 2.40087 170.316 1.67588 169.324 1.60998Z" fill="#FFA2A4"/>
<path d="M153.436 3.31244C153.403 4.5537 154.1 5.32262 155.332 5.36656C156.563 5.4105 157.315 4.70748 157.37 3.45524C157.424 2.20299 156.683 1.54391 155.332 1.33521C154.307 1.51096 153.457 2.02724 153.436 3.31244Z" fill="#FFA2A4"/>
<path d="M167.297 17.2629C167.297 18.3943 168.006 19.1412 169.117 19.1742C170.36 19.1962 171.122 18.4163 171.068 17.164C171.024 16.0436 170.251 15.4504 169.139 15.3296C168.038 15.5273 167.297 16.1315 167.297 17.2629Z" fill="#FFA2A4"/>
<path d="M167.21 31.0598C167.156 32.301 167.842 33.0809 169.074 33.1468C170.305 33.2127 171.068 32.5097 171.144 31.2685C171.221 30.0162 170.48 29.3462 169.303 29.1484C168.071 29.2143 167.276 29.8075 167.21 31.0598Z" fill="#FFA2A4"/>
<path d="M181.704 31.3891C181.824 32.3887 182.543 33.0368 183.546 32.9489C184.646 32.85 185.333 32.1031 185.191 30.9607C185.071 29.9611 184.352 29.4338 183.361 29.3679C182.271 29.5986 181.562 30.2357 181.704 31.3891Z" fill="#FFA2A4"/>
<path d="M183.633 15.725C182.707 15.6372 182.042 16.0546 181.933 17.0322C181.824 18.0758 182.293 18.7678 183.393 18.8227C184.341 18.8666 184.886 18.3504 184.995 17.3947C185.006 16.45 184.592 15.8239 183.633 15.725Z" fill="#FFA2A4"/>
<path d="M184.875 3.60899C185.017 2.66432 184.494 2.03819 183.568 1.93933C182.739 1.85145 182.162 2.35675 182.042 3.15862C181.9 4.11428 182.445 4.65253 183.328 4.85025C184.178 4.83927 184.755 4.42185 184.875 3.60899Z" fill="#FFA2A4"/>
<path d="M198.77 59.6197C198.846 58.686 198.432 58.0159 197.462 57.9171C196.416 57.8072 195.74 58.2906 195.697 59.411C195.664 60.3666 196.176 60.9159 197.113 61.0147C198.072 61.0147 198.683 60.5863 198.77 59.6197Z" fill="#FFA2A4"/>
<path d="M197.375 71.7907C196.438 71.7248 195.795 72.1752 195.708 73.1419C195.62 74.1964 196.122 74.8664 197.222 74.8884C198.181 74.9104 198.694 74.3721 198.792 73.2847C198.748 72.4828 198.345 71.8457 197.375 71.7907Z" fill="#FFA2A4"/>
<path d="M198.661 31.3561C198.77 30.4114 198.247 29.7963 197.299 29.7304C196.459 29.6645 195.904 30.1918 195.806 30.9936C195.697 31.9383 196.252 32.4766 197.146 32.6523C198.007 32.6084 198.574 32.158 198.661 31.3561Z" fill="#FFA2A4"/>
<path d="M197.331 86.1696C196.394 86.1257 195.773 86.587 195.708 87.5537C195.631 88.6192 196.165 89.2563 197.266 89.2563C198.225 89.2563 198.726 88.7071 198.792 87.7294C198.759 86.8067 198.301 86.2245 197.331 86.1696Z" fill="#FFA2A4"/>
<path d="M198.726 45.5044C198.704 44.6366 198.225 44.1093 197.375 44.0544C196.416 43.9885 195.806 44.4828 195.762 45.4714C195.718 46.46 196.263 46.9763 197.364 47.0752C198.16 46.9653 198.748 46.515 198.726 45.5044Z" fill="#FFA2A4"/>
<path d="M195.969 17.1971C195.915 17.944 196.405 18.4713 197.102 18.5372C197.942 18.6141 198.497 18.0868 198.497 17.23C198.487 16.505 197.974 16.0876 197.168 15.9668C196.547 16.0986 196.024 16.4611 195.969 17.1971Z" fill="#FFA2A4"/>
<path d="M210.942 74.6136C211.684 74.6685 212.207 74.1742 212.272 73.4712C212.348 72.6254 211.825 72.0652 210.975 72.0652C210.256 72.0762 209.842 72.5924 209.733 73.3174C209.809 74.0534 210.223 74.5477 210.942 74.6136Z" fill="#FFA2A4"/>
<path d="M211.15 86.455C210.408 86.3561 209.874 86.8394 209.776 87.5315C209.657 88.3773 210.169 88.9485 211.008 88.9924C211.738 89.0254 212.152 88.5091 212.305 87.7731C212.261 87.0481 211.847 86.5428 211.15 86.455Z" fill="#FFA2A4"/>
<path d="M197.201 2.37885C196.656 2.38983 196.296 2.6974 196.242 3.24663C196.187 3.89472 196.481 4.34509 197.157 4.38903C197.822 4.43297 198.181 4.08146 198.247 3.38943C198.203 2.73036 197.876 2.35688 197.201 2.37885Z" fill="#FFA2A4"/>
<path d="M210.899 44.5488C210.343 44.5927 210.049 44.9442 210.027 45.4935C210.005 46.1635 210.354 46.559 211.03 46.548C211.705 46.548 212.021 46.1525 212.032 45.5044C211.945 44.8124 211.553 44.4939 210.899 44.5488Z" fill="#FFA2A4"/>
<path d="M212.087 59.6197C212.163 58.8617 211.814 58.3674 211.008 58.3564C210.343 58.3564 209.973 58.7189 209.94 59.389C209.907 60.0591 210.245 60.4325 210.986 60.5424C211.542 60.5424 212.021 60.3007 212.087 59.6197Z" fill="#FFA2A4"/>
<path d="M157.784 59.5427C157.827 58.0158 156.901 57.0492 155.375 57.0382C153.97 57.0272 153.065 57.9389 153.011 59.3449C152.956 60.8938 153.937 61.6957 155.386 61.9153C156.792 61.7066 157.751 60.9597 157.784 59.5427Z" fill="#FFA2A4"/>
<path d="M153.054 45.3944C152.945 46.8114 153.817 47.7891 155.179 47.9099C156.694 48.0527 157.686 47.108 157.74 45.5921C157.795 44.1751 156.847 43.4062 155.484 43.1316C154.111 43.2634 153.163 43.9994 153.054 45.3944Z" fill="#FFA2A4"/>
<path d="M169.106 43.4392C167.875 43.4722 167.134 44.2082 167.09 45.4384C167.047 46.7895 167.788 47.6244 169.139 47.6573C170.49 47.6903 171.199 46.8884 171.308 45.5373C171.177 44.1862 170.458 43.4063 169.106 43.4392Z" fill="#FFA2A4"/>
<path d="M171.34 73.3614C171.351 72.0103 170.545 71.1755 169.204 71.1645C167.864 71.1425 167.036 71.9664 167.025 73.3175C167.003 74.6686 167.82 75.4045 169.226 75.5583C170.48 75.4155 171.33 74.7235 171.34 73.3614Z" fill="#FFA2A4"/>
<path d="M169.161 57.2689C167.82 57.2909 167.014 58.1147 167.025 59.4658C167.036 60.8169 167.864 61.6298 169.204 61.6188C170.545 61.6078 171.253 60.762 171.362 59.4219C171.231 58.0708 170.501 57.2579 169.161 57.2689Z" fill="#FFA2A4"/>
<path d="M143.976 17.3397C144.02 15.9227 143.126 14.978 141.753 14.9121C140.239 14.8462 139.269 15.8019 139.28 17.3288C139.29 18.7348 140.249 19.4927 141.623 19.7014C142.985 19.5037 143.933 18.7568 143.976 17.3397Z" fill="#FFA2A4"/>
<path d="M125.45 3.26843C125.407 4.80628 126.322 5.77292 127.848 5.78391C129.243 5.80587 130.158 4.90514 130.224 3.49911C130.289 1.95028 129.319 1.1484 127.728 0.906738C126.497 1.15938 125.494 1.84043 125.45 3.26843Z" fill="#FFA2A4"/>
<path d="M157.784 73.5262C157.893 71.9993 156.977 70.9887 155.463 70.9338C153.948 70.8899 153 71.8565 153.011 73.3944C153.021 74.8114 153.959 75.5693 155.321 75.8C156.727 75.6572 157.686 74.9212 157.784 73.5262Z" fill="#FFA2A4"/>
<path d="M141.535 28.7199C140.13 28.7639 139.236 29.6536 139.192 31.0597C139.149 32.5975 140.053 33.5641 141.579 33.5971C143.126 33.6301 143.9 32.6414 144.096 31.1366C143.878 29.6426 143.083 28.676 141.535 28.7199Z" fill="#FFA2A4"/>
<path d="M141.699 43.0439C140.151 43.011 139.203 43.8458 139.138 45.4166C139.073 47.0972 139.977 48.0639 141.666 48.0639C143.235 48.0639 144.009 47.1082 144.151 45.5704C144.031 44.0325 143.268 43.0769 141.699 43.0439Z" fill="#FFA2A4"/>
<path d="M127.924 14.7694C126.246 14.7474 125.309 15.6921 125.363 17.3838C125.407 18.9546 126.333 19.8113 127.892 19.7894C129.461 19.7674 130.235 18.8447 130.387 17.1641C130.213 15.791 129.504 14.7914 127.924 14.7694Z" fill="#FFA2A4"/>
<path d="M113.528 0.873921C111.97 0.906875 111.076 1.79663 111.076 3.36743C111.076 5.07004 112.057 5.97078 113.725 5.89389C115.294 5.817 116.024 4.82838 116.089 3.25758C115.904 1.74171 115.087 0.840967 113.528 0.873921Z" fill="#FFA2A4"/>
<path d="M141.666 70.758C140.13 70.7251 139.171 71.5489 139.073 73.1087C138.964 74.7564 139.77 75.8219 141.459 75.9098C143.116 75.9977 144.042 75.1079 144.216 73.4383C144.14 71.7796 143.355 70.78 141.666 70.758Z" fill="#FFA2A4"/>
<path d="M139.116 59.1144C138.964 60.7731 139.726 61.8496 141.426 61.9814C142.952 62.1022 143.976 61.3443 144.14 59.7625C144.314 58.0928 143.497 57.1152 141.808 56.8516C140.326 56.8955 139.258 57.5216 139.116 59.1144Z" fill="#FFA2A4"/>
<path d="M141.579 85.1368C140.032 85.1478 139.116 86.0156 139.062 87.5754C138.996 89.2451 139.857 90.2447 141.535 90.2996C143.214 90.3435 144.085 89.4098 144.205 87.7402C144.107 86.0815 143.257 85.1258 141.579 85.1368Z" fill="#FFA2A4"/>
<path d="M125.276 31.1256C125.254 32.6744 126.072 33.6411 127.619 33.7399C129.254 33.8498 130.311 33.0259 130.398 31.3233C130.485 29.6536 129.602 28.7199 127.946 28.5552C126.29 28.6211 125.309 29.423 125.276 31.1256Z" fill="#FFA2A4"/>
<path d="M113.768 14.6597C112.134 14.5499 111.076 15.3847 110.968 17.0654C110.859 18.7131 111.687 19.7786 113.354 19.8884C114.989 19.9983 115.97 19.1524 116.187 17.4718C116.187 15.8461 115.446 14.7696 113.768 14.6597Z" fill="#FFA2A4"/>
<path d="M130.551 45.7131C130.627 43.9995 129.581 42.868 127.881 42.8241C126.29 42.7802 125.222 43.8127 125.134 45.3945C125.047 47.1191 126.115 48.0857 127.804 48.3274C129.385 48.1626 130.474 47.2948 130.551 45.7131Z" fill="#FFA2A4"/>
<path d="M127.848 56.6647C126.268 56.6427 125.189 57.6752 125.08 59.246C124.971 60.9706 126.017 62.124 127.695 62.2229C129.395 62.3217 130.354 61.2123 130.649 59.4877C130.463 57.818 129.559 56.6866 127.848 56.6647Z" fill="#FFA2A4"/>
<path d="M113.627 28.3025C111.927 28.3684 110.913 29.357 110.728 31.0377C110.553 32.5536 112.101 34.1463 113.616 34.0255C115.305 33.8937 116.209 32.8392 116.416 31.3013C116.427 29.7195 115.065 28.2476 113.627 28.3025Z" fill="#FFA2A4"/>
<path d="M127.913 84.8623C126.213 84.9172 125.2 85.9058 124.993 87.5865C124.818 89.0914 126.366 90.6951 127.87 90.5853C129.559 90.4535 130.463 89.4099 130.681 87.8721C130.703 86.2903 129.352 84.8183 127.913 84.8623Z" fill="#FFA2A4"/>
<path d="M127.783 76.1733C129.472 76.2062 130.496 75.1297 130.681 73.4491C130.845 71.9332 129.297 70.3404 127.783 70.4723C126.093 70.6151 125.189 71.6586 124.971 73.3392C125.189 75.0089 126.093 76.1403 127.783 76.1733Z" fill="#FFA2A4"/>
<path d="M110.674 45.5593C110.663 47.262 111.721 48.3714 113.388 48.4593C115.197 48.5581 116.363 47.4816 116.45 45.6692C116.537 43.8348 115.382 42.8681 113.617 42.5825C111.851 42.8022 110.696 43.7249 110.674 45.5593Z" fill="#FFA2A4"/>
<path d="M113.486 56.511C111.687 56.5769 110.598 57.7193 110.652 59.5318C110.707 61.3442 111.84 62.4317 113.649 62.3878C115.458 62.3438 116.363 61.1465 116.548 59.356C116.254 57.5985 115.305 56.4451 113.486 56.511Z" fill="#FFA2A4"/>
<path d="M113.561 70.3736C111.741 70.3846 110.717 71.4501 110.608 73.2736C110.51 75.0201 111.959 76.4371 113.681 76.3163C115.512 76.1845 116.405 75.075 116.558 73.2516C116.329 71.494 115.403 70.3516 113.561 70.3736Z" fill="#FFA2A4"/>
<path d="M110.608 87.6414C110.63 89.4758 111.61 90.5523 113.419 90.7061C115.141 90.8489 116.591 89.4319 116.514 87.6963C116.438 85.84 115.359 84.9282 113.899 84.7415C111.948 84.7195 110.597 85.9937 110.608 87.6414Z" fill="#FFA2A4"/>
</g>
<g clip-path="url(#clip1_37_742)">
<path d="M57.2698 90.2227C58.7737 90.0579 59.7762 89.3 59.7762 87.7402C59.7871 86.2023 58.839 85.2687 57.3134 85.2796C55.8967 85.2796 55.0031 86.1694 54.9268 87.5754C54.8396 89.1352 55.7986 89.9591 57.2698 90.2227Z" fill="#FFA2A4"/>
<path d="M55.112 30.9608C55.221 29.6646 56.1255 28.8188 57.4332 28.8957C58.839 28.9726 59.7108 29.9173 59.5909 31.3563C59.482 32.6524 58.5775 33.3445 57.2806 33.4653C55.8857 33.2127 54.9921 32.4108 55.112 30.9608Z" fill="#FFA2A4"/>
<path d="M71.0008 1.12651C72.4175 1.0606 73.3438 1.93937 73.3874 3.36737C73.4201 4.68553 72.5701 5.57528 71.2842 5.64119C69.8566 5.71808 69.0719 4.80636 68.854 3.41131C68.9957 2.09316 69.704 1.19242 71.0008 1.12651Z" fill="#FFA2A4"/>
<path d="M59.4493 17.3837C59.3839 18.7568 58.523 19.4708 57.1935 19.3829C55.9621 19.306 55.2537 18.5261 55.2646 17.2848C55.2646 15.9117 56.071 15.2197 57.4006 15.1318C58.741 15.2746 59.5147 16.0216 59.4493 17.3837Z" fill="#FFA2A4"/>
<path d="M43.6041 85.5433C44.9445 85.5653 45.7509 86.4001 45.74 87.7402C45.7291 89.0914 44.9009 89.9042 43.5605 89.8932C42.2201 89.8822 41.5118 89.0364 41.4028 87.6963C41.5227 86.3562 42.2528 85.5323 43.6041 85.5433Z" fill="#FFA2A4"/>
<path d="M27.4102 59.4218C27.4429 58.2904 28.1513 57.5544 29.2628 57.5544C30.5052 57.5544 31.2571 58.3453 31.1808 59.5976C31.1045 60.707 30.3308 61.3002 29.1103 61.3991C28.1622 61.1354 27.3775 60.5752 27.4102 59.4218Z" fill="#FFA2A4"/>
<path d="M29.0993 85.785C30.3526 85.6641 31.1481 86.3781 31.2353 87.6414C31.3116 88.7947 30.6141 89.5527 29.5025 89.6625C28.2384 89.7943 27.5519 89.0254 27.3339 87.8391C27.3993 86.6637 27.9769 85.8838 29.0993 85.785Z" fill="#FFA2A4"/>
<path d="M31.1372 45.6032C31.1263 46.6358 30.4398 47.3388 29.4372 47.4047C28.2929 47.4816 27.5301 46.7676 27.4756 45.6362C27.4102 44.4828 28.184 43.8676 29.2955 43.6699C30.3962 43.8347 31.1481 44.4388 31.1372 45.6032Z" fill="#FFA2A4"/>
<path d="M31.2353 73.3066C31.2244 74.5698 30.4616 75.3168 29.2083 75.2728C28.0859 75.2289 27.3775 74.4929 27.3775 73.3505C27.3775 72.0763 28.1731 71.4502 29.3936 71.3293C30.4943 71.549 31.2353 72.1532 31.2353 73.3066Z" fill="#FFA2A4"/>
<path d="M43.4298 1.60998C44.5522 1.53308 45.2933 2.2361 45.3368 3.36751C45.3695 4.38908 44.6939 5.0921 43.7131 5.15801C42.5906 5.2349 41.9586 4.5209 41.7624 3.35653C41.9041 2.40087 42.4381 1.67588 43.4298 1.60998Z" fill="#FFA2A4"/>
<path d="M59.3185 3.31244C59.3512 4.5537 58.6538 5.32262 57.4224 5.36656C56.1909 5.4105 55.439 4.70748 55.3845 3.45524C55.33 2.20299 56.0711 1.54391 57.4224 1.33521C58.4467 1.51096 59.2968 2.02724 59.3185 3.31244Z" fill="#FFA2A4"/>
<path d="M45.4567 17.2629C45.4567 18.3943 44.7484 19.1412 43.6368 19.1742C42.3945 19.1962 41.6316 18.4163 41.6861 17.164C41.7297 16.0436 42.5034 15.4504 43.615 15.3296C44.7157 15.5273 45.4567 16.1315 45.4567 17.2629Z" fill="#FFA2A4"/>
<path d="M45.5439 31.0598C45.5984 32.301 44.9118 33.0809 43.6804 33.1468C42.449 33.2127 41.6861 32.5097 41.6098 31.2685C41.5336 30.0162 42.2746 29.3462 43.4515 29.1484C44.683 29.2143 45.4785 29.8075 45.5439 31.0598Z" fill="#FFA2A4"/>
<path d="M31.05 31.3891C30.9301 32.3887 30.2109 33.0368 29.2083 32.9489C28.1077 32.85 27.4211 32.1031 27.5628 30.9607C27.6826 29.9611 28.4019 29.4338 29.3936 29.3679C30.4833 29.5986 31.1917 30.2357 31.05 31.3891Z" fill="#FFA2A4"/>
<path d="M29.1211 15.725C30.0474 15.6372 30.7122 16.0546 30.8212 17.0322C30.9302 18.0758 30.4616 18.7678 29.3609 18.8227C28.4128 18.8666 27.8679 18.3504 27.7589 17.3947C27.748 16.45 28.1621 15.8239 29.1211 15.725Z" fill="#FFA2A4"/>
<path d="M27.8788 3.60899C27.7372 2.66432 28.2603 2.03819 29.1866 1.93933C30.0148 1.85145 30.5923 2.35675 30.7122 3.15862C30.8539 4.11428 30.309 4.65253 29.4263 4.85025C28.5763 4.83927 27.9987 4.42185 27.8788 3.60899Z" fill="#FFA2A4"/>
<path d="M13.9843 59.6197C13.908 58.686 14.3221 58.0159 15.292 57.9171C16.3382 57.8072 17.0139 58.2906 17.0575 59.411C17.0901 60.3666 16.578 60.9159 15.6408 61.0147C14.6818 61.0147 14.0715 60.5863 13.9843 59.6197Z" fill="#FFA2A4"/>
<path d="M15.3792 71.7907C16.3164 71.7248 16.9594 72.1752 17.0466 73.1419C17.1337 74.1964 16.6324 74.8664 15.5318 74.8884C14.5728 74.9104 14.0606 74.3721 13.9625 73.2847C14.0061 72.4828 14.4093 71.8457 15.3792 71.7907Z" fill="#FFA2A4"/>
<path d="M14.0933 31.3561C13.9843 30.4114 14.5074 29.7963 15.4555 29.7304C16.2946 29.6645 16.8504 30.1918 16.9485 30.9936C17.0574 31.9383 16.5016 32.4766 15.608 32.6523C14.7471 32.6084 14.1805 32.158 14.0933 31.3561Z" fill="#FFA2A4"/>
<path d="M15.4228 86.1696C16.36 86.1257 16.9812 86.587 17.0465 87.5537C17.1228 88.6192 16.5888 89.2563 15.4882 89.2563C14.5292 89.2563 14.0279 88.7071 13.9625 87.7294C13.9952 86.8067 14.4529 86.2245 15.4228 86.1696Z" fill="#FFA2A4"/>
<path d="M14.028 45.5044C14.0497 44.6366 14.5292 44.1093 15.3793 44.0544C16.3382 43.9885 16.9485 44.4828 16.9921 45.4714C17.0357 46.46 16.4908 46.9763 15.3902 47.0752C14.5946 46.9653 14.0062 46.515 14.028 45.5044Z" fill="#FFA2A4"/>
<path d="M16.785 17.1971C16.8395 17.944 16.3491 18.4713 15.6517 18.5372C14.8125 18.6141 14.2568 18.0868 14.2568 17.23C14.2676 16.505 14.7798 16.0876 15.5863 15.9668C16.2074 16.0986 16.7305 16.4611 16.785 17.1971Z" fill="#FFA2A4"/>
<path d="M1.81168 74.6136C1.07065 74.6685 0.547562 74.1742 0.482176 73.4712C0.405893 72.6254 0.92898 72.0652 1.77899 72.0652C2.49823 72.0762 2.91234 72.5924 3.02132 73.3174C2.94503 74.0534 2.53092 74.5477 1.81168 74.6136Z" fill="#FFA2A4"/>
<path d="M1.60462 86.455C2.34566 86.3561 2.87964 86.8394 2.97772 87.5315C3.09759 88.3773 2.58541 88.9485 1.74629 88.9924C1.01616 89.0254 0.602045 88.5091 0.449478 87.7731C0.493068 87.0481 0.907175 86.5428 1.60462 86.455Z" fill="#FFA2A4"/>
<path d="M15.5536 2.37885C16.0985 2.38983 16.4581 2.6974 16.5126 3.24663C16.5671 3.89472 16.2728 4.34509 15.5972 4.38903C14.9324 4.43297 14.5728 4.08146 14.5074 3.38943C14.551 2.73036 14.8779 2.35688 15.5536 2.37885Z" fill="#FFA2A4"/>
<path d="M1.85523 44.5488C2.41101 44.5927 2.70524 44.9442 2.72703 45.4935C2.74883 46.1635 2.40011 46.559 1.72446 46.548C1.0488 46.548 0.732776 46.1525 0.721878 45.5044C0.809059 44.8124 1.20137 44.4939 1.85523 44.5488Z" fill="#FFA2A4"/>
<path d="M0.66738 59.6194C0.591097 58.8615 0.939827 58.3672 1.74625 58.3562C2.41101 58.3562 2.78152 58.7187 2.81422 59.3888C2.84691 60.0588 2.50908 60.4323 1.76804 60.5421C1.21226 60.5421 0.732766 60.3005 0.66738 59.6194Z" fill="#FFA2A4"/>
<path d="M54.9703 59.5427C54.9268 58.0158 55.8531 57.0492 57.3787 57.0382C58.7845 57.0272 59.689 57.9389 59.7435 59.345C59.798 60.8938 58.8172 61.6957 57.3678 61.9154C55.962 61.7066 55.003 60.9597 54.9703 59.5427Z" fill="#FFA2A4"/>
<path d="M59.6999 45.3944C59.8089 46.8114 58.9371 47.7891 57.5749 47.9099C56.0601 48.0527 55.0684 47.108 55.0139 45.5921C54.9595 44.1751 55.9076 43.4062 57.2698 43.1316C58.6429 43.2634 59.591 43.9994 59.6999 45.3944Z" fill="#FFA2A4"/>
<path d="M43.6477 43.4392C44.8792 43.4722 45.6202 44.2082 45.6638 45.4384C45.7074 46.7895 44.9663 47.6244 43.615 47.6573C42.2637 47.6903 41.5554 46.8884 41.4464 45.5373C41.5772 44.1862 42.2964 43.4063 43.6477 43.4392Z" fill="#FFA2A4"/>
<path d="M41.4137 73.3614C41.4028 72.0103 42.2092 71.1755 43.5496 71.1645C44.89 71.1425 45.7183 71.9664 45.7292 73.3175C45.7509 74.6686 44.9336 75.4045 43.5278 75.5583C42.2746 75.4155 41.4246 74.7235 41.4137 73.3614Z" fill="#FFA2A4"/>
<path d="M43.5932 57.2689C44.9336 57.2909 45.74 58.1147 45.7291 59.4658C45.7182 60.8169 44.89 61.6298 43.5496 61.6188C42.2092 61.6078 41.5009 60.762 41.3919 59.4219C41.5227 58.0708 42.2528 57.2579 43.5932 57.2689Z" fill="#FFA2A4"/>
<path d="M68.7776 17.3397C68.7341 15.9227 69.6277 14.978 71.0008 14.9121C72.5155 14.8462 73.4854 15.8019 73.4745 17.3288C73.4636 18.7348 72.5046 19.4927 71.1315 19.7014C69.7693 19.5037 68.8212 18.7568 68.7776 17.3397Z" fill="#FFA2A4"/>
<path d="M87.3037 3.26843C87.3473 4.80628 86.4319 5.77292 84.9062 5.78391C83.5113 5.80587 82.5959 4.90514 82.5305 3.49911C82.4651 1.95028 83.435 1.1484 85.0261 0.906738C86.2575 1.15938 87.2601 1.84043 87.3037 3.26843Z" fill="#FFA2A4"/>
<path d="M54.9703 73.5262C54.8614 71.9993 55.7768 70.9887 57.2915 70.9338C58.8063 70.8899 59.7544 71.8565 59.7435 73.3944C59.7326 74.8114 58.7954 75.5693 57.4332 75.8C56.0274 75.6572 55.0684 74.9212 54.9703 73.5262Z" fill="#FFA2A4"/>
<path d="M71.2187 28.7199C72.6245 28.7639 73.5181 29.6536 73.5617 31.0597C73.6053 32.5975 72.7008 33.5641 71.1752 33.5971C69.6277 33.6301 68.854 32.6414 68.6578 31.1366C68.8758 29.6426 69.6713 28.676 71.2187 28.7199Z" fill="#FFA2A4"/>
<path d="M71.0553 43.0439C72.6027 43.011 73.5508 43.8458 73.6162 45.4166C73.6816 47.0972 72.7771 48.0639 71.088 48.0639C69.5187 48.0639 68.745 47.1082 68.6033 45.5704C68.7232 44.0325 69.486 43.0769 71.0553 43.0439Z" fill="#FFA2A4"/>
<path d="M84.8299 14.7694C86.5081 14.7474 87.4453 15.6921 87.3908 17.3838C87.3473 18.9546 86.421 19.8114 84.8626 19.7894C83.2933 19.7674 82.5196 18.8447 82.367 17.1641C82.5414 15.791 83.2497 14.7914 84.8299 14.7694Z" fill="#FFA2A4"/>
<path d="M99.2257 0.873921C100.784 0.906875 101.678 1.79663 101.678 3.36743C101.678 5.07004 100.697 5.97078 99.0295 5.89389C97.4603 5.817 96.7301 4.82838 96.6647 3.25758C96.85 1.74171 97.6673 0.840967 99.2257 0.873921Z" fill="#FFA2A4"/>
<path d="M71.088 70.758C72.6245 70.7251 73.5835 71.5489 73.6816 73.1087C73.7906 74.7564 72.9842 75.8219 71.295 75.9098C69.6386 75.9977 68.7123 75.1079 68.5379 73.4383C68.6142 71.7796 69.3989 70.78 71.088 70.758Z" fill="#FFA2A4"/>
<path d="M73.638 59.1144C73.7906 60.7731 73.0278 61.8496 71.3277 61.9814C69.8021 62.1022 68.7777 61.3443 68.6142 59.7625C68.4399 58.0928 69.2572 57.1152 70.9463 56.8516C72.4284 56.8955 73.4964 57.5216 73.638 59.1144Z" fill="#FFA2A4"/>
<path d="M71.1751 85.1368C72.7226 85.1478 73.638 86.0156 73.6925 87.5754C73.7579 89.2451 72.897 90.2447 71.2187 90.2996C69.5405 90.3435 68.6687 89.4098 68.5488 87.7402C68.6469 86.0815 69.4969 85.1258 71.1751 85.1368Z" fill="#FFA2A4"/>
<path d="M87.4781 31.1256C87.4999 32.6744 86.6825 33.641 85.1351 33.7399C83.5004 33.8498 82.4433 33.0259 82.3562 31.3233C82.269 29.6536 83.1517 28.7199 84.8081 28.5552C86.4646 28.6211 87.4454 29.423 87.4781 31.1256Z" fill="#FFA2A4"/>
<path d="M98.986 14.6597C100.621 14.5499 101.678 15.3847 101.787 17.0654C101.896 18.7131 101.067 19.7786 99.4001 19.8884C97.7654 19.9983 96.7846 19.1524 96.5667 17.4718C96.5667 15.8461 97.3077 14.7696 98.986 14.6597Z" fill="#FFA2A4"/>
<path d="M82.2036 45.7131C82.1273 43.9995 83.1735 42.868 84.8735 42.8241C86.4646 42.7802 87.5325 43.8127 87.6197 45.3945C87.7069 47.1191 86.6389 48.0857 84.9498 48.3274C83.3696 48.1626 82.2799 47.2948 82.2036 45.7131Z" fill="#FFA2A4"/>
<path d="M84.9062 56.6647C86.4863 56.6427 87.5652 57.6752 87.6742 59.246C87.7831 60.9706 86.737 62.124 85.0587 62.2229C83.3587 62.3217 82.3997 61.2123 82.1055 59.4877C82.2907 57.818 83.1952 56.6866 84.9062 56.6647Z" fill="#FFA2A4"/>
<path d="M99.1276 28.3025C100.828 28.3684 101.841 29.357 102.026 31.0377C102.201 32.5536 100.653 34.1463 99.1385 34.0255C97.4494 33.8937 96.5448 32.8392 96.3378 31.3013C96.3269 29.7195 97.6891 28.2476 99.1276 28.3025Z" fill="#FFA2A4"/>
<path d="M84.8408 84.8623C86.5408 84.9172 87.5543 85.9058 87.7614 87.5865C87.9357 89.0914 86.3883 90.6951 84.8844 90.5853C83.1953 90.4535 82.2908 89.4099 82.0728 87.8721C82.051 86.2903 83.4023 84.8183 84.8408 84.8623Z" fill="#FFA2A4"/>
<path d="M84.9716 76.1733C83.2824 76.2062 82.2581 75.1297 82.0728 73.4491C81.9093 71.9332 83.4568 70.3404 84.9716 70.4723C86.6607 70.6151 87.5652 71.6586 87.7832 73.3392C87.5652 75.0089 86.6607 76.1403 84.9716 76.1733Z" fill="#FFA2A4"/>
<path d="M102.08 45.5593C102.091 47.262 101.034 48.3714 99.3663 48.4593C97.5573 48.5581 96.3912 47.4816 96.304 45.6692C96.2168 43.8348 97.372 42.8681 99.1374 42.5825C100.903 42.8022 102.058 43.7249 102.08 45.5593Z" fill="#FFA2A4"/>
<path d="M99.2686 56.511C101.067 56.5769 102.156 57.7193 102.102 59.5318C102.047 61.3442 100.914 62.4317 99.1051 62.3878C97.2961 62.3438 96.3916 61.1465 96.2063 59.356C96.5006 57.5985 97.4487 56.4451 99.2686 56.511Z" fill="#FFA2A4"/>
<path d="M99.1926 70.3736C101.012 70.3846 102.037 71.4501 102.146 73.2736C102.244 75.0201 100.795 76.4371 99.0727 76.3163C97.2419 76.1845 96.3483 75.075 96.1957 73.2516C96.4246 71.494 97.3509 70.3516 99.1926 70.3736Z" fill="#FFA2A4"/>
<path d="M102.146 87.6414C102.124 89.4758 101.144 90.5523 99.3347 90.7061C97.6128 90.8489 96.1635 89.4319 96.2397 87.6963C96.316 85.84 97.3949 84.9282 98.8552 84.7415C100.806 84.7195 102.157 85.9937 102.146 87.6414Z" fill="#FFA2A4"/>
</g>
<g clip-path="url(#clip2_37_742)">
<path d="M155.484 99.6513C153.98 99.8161 152.978 100.574 152.978 102.134C152.967 103.672 153.915 104.605 155.441 104.594C156.857 104.594 157.751 103.705 157.827 102.299C157.915 100.739 156.956 99.9149 155.484 99.6513Z" fill="#FFA2A4"/>
<path d="M157.642 158.913C157.533 160.209 156.629 161.055 155.321 160.978C153.915 160.901 153.043 159.957 153.163 158.518C153.272 157.222 154.177 156.53 155.473 156.409C156.868 156.661 157.762 157.463 157.642 158.913Z" fill="#FFA2A4"/>
<path d="M141.753 188.748C140.337 188.813 139.41 187.935 139.367 186.507C139.334 185.188 140.184 184.299 141.47 184.233C142.898 184.156 143.682 185.068 143.9 186.463C143.759 187.781 143.05 188.682 141.753 188.748Z" fill="#FFA2A4"/>
<path d="M153.305 172.49C153.37 171.117 154.231 170.403 155.561 170.491C156.792 170.568 157.5 171.348 157.49 172.589C157.49 173.962 156.683 174.654 155.354 174.742C154.013 174.599 153.239 173.852 153.305 172.49Z" fill="#FFA2A4"/>
<path d="M169.15 104.331C167.81 104.309 167.003 103.474 167.014 102.134C167.025 100.783 167.853 99.9698 169.194 99.9808C170.534 99.9918 171.242 100.838 171.351 102.178C171.231 103.518 170.501 104.342 169.15 104.331Z" fill="#FFA2A4"/>
<path d="M185.344 130.452C185.311 131.584 184.603 132.32 183.491 132.32C182.249 132.32 181.497 131.529 181.573 130.276C181.65 129.167 182.423 128.574 183.644 128.475C184.592 128.739 185.377 129.299 185.344 130.452Z" fill="#FFA2A4"/>
<path d="M183.655 104.089C182.402 104.21 181.606 103.496 181.519 102.233C181.443 101.079 182.14 100.321 183.252 100.211C184.516 100.08 185.202 100.849 185.42 102.035C185.355 103.21 184.777 103.99 183.655 104.089Z" fill="#FFA2A4"/>
<path d="M181.617 144.271C181.628 143.238 182.314 142.535 183.317 142.469C184.461 142.392 185.224 143.106 185.279 144.238C185.344 145.391 184.57 146.006 183.459 146.204C182.358 146.039 181.606 145.435 181.617 144.271Z" fill="#FFA2A4"/>
<path d="M181.519 116.567C181.53 115.304 182.293 114.557 183.546 114.601C184.668 114.645 185.377 115.381 185.377 116.523C185.377 117.798 184.581 118.424 183.361 118.545C182.26 118.325 181.519 117.721 181.519 116.567Z" fill="#FFA2A4"/>
<path d="M169.324 188.264C168.202 188.341 167.461 187.638 167.417 186.507C167.385 185.485 168.06 184.782 169.041 184.716C170.164 184.639 170.796 185.353 170.992 186.517C170.85 187.473 170.316 188.198 169.324 188.264Z" fill="#FFA2A4"/>
<path d="M153.436 186.562C153.403 185.32 154.1 184.551 155.332 184.507C156.563 184.464 157.315 185.167 157.37 186.419C157.424 187.671 156.683 188.33 155.332 188.539C154.307 188.363 153.457 187.847 153.436 186.562Z" fill="#FFA2A4"/>
<path d="M167.297 172.611C167.297 171.48 168.006 170.733 169.117 170.7C170.36 170.678 171.122 171.458 171.068 172.71C171.024 173.83 170.251 174.424 169.139 174.544C168.038 174.347 167.297 173.743 167.297 172.611Z" fill="#FFA2A4"/>
<path d="M167.21 158.814C167.156 157.573 167.842 156.793 169.074 156.727C170.305 156.661 171.068 157.364 171.144 158.606C171.221 159.858 170.48 160.528 169.303 160.726C168.071 160.66 167.276 160.067 167.21 158.814Z" fill="#FFA2A4"/>
<path d="M181.704 158.485C181.824 157.485 182.543 156.837 183.546 156.925C184.646 157.024 185.333 157.771 185.191 158.913C185.071 159.913 184.352 160.44 183.361 160.506C182.271 160.275 181.562 159.638 181.704 158.485Z" fill="#FFA2A4"/>
<path d="M183.633 174.149C182.707 174.237 182.042 173.819 181.933 172.842C181.824 171.798 182.293 171.106 183.393 171.051C184.341 171.007 184.886 171.524 184.995 172.479C185.006 173.424 184.592 174.05 183.633 174.149Z" fill="#FFA2A4"/>
<path d="M184.875 186.265C185.017 187.21 184.494 187.836 183.568 187.935C182.739 188.023 182.162 187.517 182.042 186.715C181.9 185.76 182.445 185.221 183.328 185.024C184.178 185.035 184.755 185.452 184.875 186.265Z" fill="#FFA2A4"/>
<path d="M198.77 130.254C198.846 131.188 198.432 131.858 197.462 131.957C196.416 132.067 195.74 131.583 195.697 130.463C195.664 129.507 196.176 128.958 197.113 128.859C198.072 128.859 198.683 129.288 198.77 130.254Z" fill="#FFA2A4"/>
<path d="M197.375 118.084C196.438 118.149 195.795 117.699 195.708 116.732C195.62 115.678 196.122 115.008 197.222 114.986C198.181 114.964 198.694 115.502 198.792 116.59C198.748 117.392 198.345 118.029 197.375 118.084Z" fill="#FFA2A4"/>
<path d="M198.661 158.518C198.77 159.463 198.247 160.078 197.299 160.144C196.459 160.21 195.904 159.682 195.806 158.88C195.697 157.936 196.252 157.397 197.146 157.222C198.007 157.266 198.574 157.716 198.661 158.518Z" fill="#FFA2A4"/>
<path d="M197.331 103.704C196.394 103.748 195.773 103.287 195.708 102.32C195.631 101.255 196.165 100.618 197.266 100.618C198.225 100.618 198.726 101.167 198.792 102.145C198.759 103.067 198.301 103.649 197.331 103.704Z" fill="#FFA2A4"/>
<path d="M198.726 144.37C198.704 145.237 198.225 145.765 197.375 145.82C196.416 145.886 195.806 145.391 195.762 144.403C195.718 143.414 196.263 142.898 197.364 142.799C198.16 142.909 198.748 143.359 198.726 144.37Z" fill="#FFA2A4"/>
<path d="M195.969 172.677C195.915 171.93 196.405 171.403 197.102 171.337C197.942 171.26 198.497 171.787 198.497 172.644C198.487 173.369 197.974 173.786 197.168 173.907C196.547 173.775 196.024 173.413 195.969 172.677Z" fill="#FFA2A4"/>
<path d="M210.942 115.26C211.684 115.205 212.207 115.7 212.272 116.403C212.348 117.249 211.825 117.809 210.975 117.809C210.256 117.798 209.842 117.282 209.733 116.557C209.809 115.821 210.223 115.326 210.942 115.26Z" fill="#FFA2A4"/>
<path d="M211.15 103.419C210.408 103.518 209.874 103.035 209.776 102.343C209.657 101.497 210.169 100.926 211.008 100.882C211.738 100.849 212.152 101.365 212.305 102.101C212.261 102.826 211.847 103.331 211.15 103.419Z" fill="#FFA2A4"/>
<path d="M197.201 187.495C196.656 187.484 196.296 187.177 196.242 186.627C196.187 185.979 196.481 185.529 197.157 185.485C197.822 185.441 198.181 185.793 198.247 186.485C198.203 187.144 197.876 187.517 197.201 187.495Z" fill="#FFA2A4"/>
<path d="M210.899 145.325C210.343 145.281 210.049 144.93 210.027 144.381C210.005 143.71 210.354 143.315 211.03 143.326C211.705 143.326 212.021 143.721 212.032 144.37C211.945 145.062 211.553 145.38 210.899 145.325Z" fill="#FFA2A4"/>
<path d="M212.087 130.254C212.163 131.012 211.814 131.507 211.008 131.518C210.343 131.518 209.973 131.155 209.94 130.485C209.907 129.815 210.245 129.441 210.986 129.332C211.542 129.332 212.021 129.573 212.087 130.254Z" fill="#FFA2A4"/>
<path d="M157.784 130.331C157.827 131.858 156.901 132.825 155.375 132.836C153.97 132.847 153.065 131.935 153.011 130.529C152.956 128.98 153.937 128.178 155.386 127.959C156.792 128.167 157.751 128.914 157.784 130.331Z" fill="#FFA2A4"/>
<path d="M153.054 144.48C152.945 143.063 153.817 142.085 155.179 141.964C156.694 141.821 157.686 142.766 157.74 144.282C157.795 145.699 156.847 146.468 155.484 146.742C154.111 146.611 153.163 145.875 153.054 144.48Z" fill="#FFA2A4"/>
<path d="M169.106 146.435C167.875 146.402 167.134 145.666 167.09 144.436C167.047 143.084 167.788 142.25 169.139 142.217C170.49 142.184 171.199 142.986 171.308 144.337C171.177 145.688 170.458 146.468 169.106 146.435Z" fill="#FFA2A4"/>
<path d="M171.34 116.513C171.351 117.864 170.545 118.699 169.204 118.71C167.864 118.732 167.036 117.908 167.025 116.557C167.003 115.205 167.82 114.469 169.226 114.316C170.48 114.458 171.33 115.151 171.34 116.513Z" fill="#FFA2A4"/>
<path d="M169.161 132.605C167.82 132.583 167.014 131.759 167.025 130.408C167.036 129.057 167.864 128.244 169.204 128.255C170.545 128.266 171.253 129.112 171.362 130.452C171.231 131.803 170.501 132.616 169.161 132.605Z" fill="#FFA2A4"/>
<path d="M143.976 172.534C144.02 173.951 143.126 174.896 141.753 174.962C140.239 175.028 139.269 174.072 139.28 172.545C139.29 171.139 140.249 170.381 141.623 170.173C142.985 170.37 143.933 171.117 143.976 172.534Z" fill="#FFA2A4"/>
<path d="M125.45 186.606C125.407 185.068 126.322 184.101 127.848 184.09C129.243 184.068 130.158 184.969 130.224 186.375C130.289 187.924 129.319 188.726 127.728 188.967C126.497 188.715 125.494 188.034 125.45 186.606Z" fill="#FFA2A4"/>
<path d="M157.784 116.348C157.893 117.875 156.977 118.885 155.463 118.94C153.948 118.984 153 118.018 153.011 116.48C153.021 115.063 153.959 114.305 155.321 114.074C156.727 114.217 157.686 114.953 157.784 116.348Z" fill="#FFA2A4"/>
<path d="M141.535 161.154C140.13 161.11 139.236 160.22 139.192 158.814C139.149 157.277 140.053 156.31 141.579 156.277C143.126 156.244 143.9 157.233 144.096 158.737C143.878 160.231 143.083 161.198 141.535 161.154Z" fill="#FFA2A4"/>
<path d="M141.699 146.83C140.151 146.863 139.203 146.028 139.138 144.457C139.073 142.777 139.977 141.81 141.666 141.81C143.235 141.81 144.009 142.766 144.151 144.304C144.031 145.842 143.268 146.797 141.699 146.83Z" fill="#FFA2A4"/>
<path d="M127.924 175.105C126.246 175.127 125.309 174.182 125.363 172.49C125.407 170.919 126.333 170.063 127.892 170.085C129.461 170.107 130.235 171.029 130.387 172.71C130.213 174.083 129.504 175.083 127.924 175.105Z" fill="#FFA2A4"/>
<path d="M113.528 189C111.97 188.967 111.076 188.077 111.076 186.507C111.076 184.804 112.057 183.903 113.725 183.98C115.294 184.057 116.024 185.046 116.089 186.616C115.904 188.132 115.087 189.033 113.528 189Z" fill="#FFA2A4"/>
<path d="M141.666 119.116C140.13 119.149 139.171 118.325 139.073 116.765C138.964 115.118 139.77 114.052 141.459 113.964C143.116 113.876 144.042 114.766 144.216 116.436C144.14 118.094 143.355 119.094 141.666 119.116Z" fill="#FFA2A4"/>
<path d="M139.116 130.76C138.964 129.101 139.726 128.024 141.426 127.893C142.952 127.772 143.976 128.53 144.14 130.112C144.314 131.781 143.497 132.759 141.808 133.022C140.326 132.979 139.258 132.352 139.116 130.76Z" fill="#FFA2A4"/>
<path d="M141.579 104.737C140.032 104.726 139.116 103.858 139.062 102.299C138.996 100.629 139.857 99.6294 141.535 99.5744C143.214 99.5305 144.085 100.464 144.205 102.134C144.107 103.793 143.257 104.748 141.579 104.737Z" fill="#FFA2A4"/>
<path d="M125.276 158.748C125.254 157.2 126.072 156.233 127.619 156.134C129.254 156.024 130.311 156.848 130.398 158.551C130.485 160.22 129.602 161.154 127.946 161.319C126.29 161.253 125.309 160.451 125.276 158.748Z" fill="#FFA2A4"/>
<path d="M113.768 175.214C112.134 175.324 111.076 174.489 110.968 172.809C110.859 171.161 111.687 170.095 113.354 169.986C114.989 169.876 115.97 170.722 116.187 172.402C116.187 174.028 115.446 175.104 113.768 175.214Z" fill="#FFA2A4"/>
<path d="M130.551 144.161C130.627 145.875 129.581 147.006 127.881 147.05C126.29 147.094 125.222 146.061 125.134 144.48C125.047 142.755 126.115 141.788 127.804 141.547C129.385 141.711 130.474 142.579 130.551 144.161Z" fill="#FFA2A4"/>
<path d="M127.848 133.209C126.268 133.231 125.189 132.199 125.08 130.628C124.971 128.903 126.017 127.75 127.695 127.651C129.395 127.552 130.354 128.662 130.649 130.386C130.463 132.056 129.559 133.187 127.848 133.209Z" fill="#FFA2A4"/>
<path d="M113.627 161.572C111.927 161.506 110.913 160.517 110.728 158.836C110.553 157.32 112.101 155.728 113.616 155.849C115.305 155.98 116.209 157.035 116.416 158.573C116.427 160.154 115.065 161.626 113.627 161.572Z" fill="#FFA2A4"/>
<path d="M127.913 105.012C126.213 104.957 125.2 103.968 124.993 102.288C124.818 100.783 126.366 99.1789 127.87 99.2888C129.559 99.4206 130.463 100.464 130.681 102.002C130.703 103.584 129.352 105.056 127.913 105.012Z" fill="#FFA2A4"/>
<path d="M127.783 113.701C129.472 113.668 130.496 114.744 130.681 116.425C130.845 117.941 129.297 119.533 127.783 119.402C126.093 119.259 125.189 118.215 124.971 116.535C125.189 114.865 126.093 113.733 127.783 113.701Z" fill="#FFA2A4"/>
<path d="M110.674 144.315C110.663 142.612 111.721 141.503 113.388 141.415C115.197 141.316 116.363 142.392 116.45 144.205C116.537 146.039 115.382 147.006 113.617 147.292C111.851 147.072 110.696 146.149 110.674 144.315Z" fill="#FFA2A4"/>
<path d="M113.486 133.363C111.687 133.297 110.598 132.155 110.652 130.342C110.707 128.53 111.84 127.442 113.649 127.486C115.458 127.53 116.363 128.728 116.548 130.518C116.254 132.276 115.305 133.429 113.486 133.363Z" fill="#FFA2A4"/>
<path d="M113.561 119.5C111.741 119.489 110.717 118.424 110.608 116.6C110.51 114.854 111.959 113.437 113.681 113.558C115.512 113.69 116.405 114.799 116.558 116.622C116.329 118.38 115.403 119.522 113.561 119.5Z" fill="#FFA2A4"/>
<path d="M110.608 102.233C110.63 100.398 111.61 99.3217 113.419 99.1679C115.141 99.0251 116.591 100.442 116.514 102.178C116.438 104.034 115.359 104.946 113.899 105.133C111.948 105.155 110.597 103.88 110.608 102.233Z" fill="#FFA2A4"/>
</g>
<g clip-path="url(#clip3_37_742)">
<path d="M57.2698 99.6513C58.7737 99.8161 59.7762 100.574 59.7762 102.134C59.7871 103.672 58.839 104.605 57.3134 104.594C55.8967 104.594 55.0031 103.705 54.9268 102.299C54.8396 100.739 55.7986 99.9149 57.2698 99.6513Z" fill="#FFA2A4"/>
<path d="M55.112 158.913C55.221 160.209 56.1255 161.055 57.4332 160.978C58.839 160.901 59.7108 159.957 59.5909 158.518C59.482 157.222 58.5775 156.53 57.2806 156.409C55.8857 156.661 54.9921 157.463 55.112 158.913Z" fill="#FFA2A4"/>
<path d="M71.0008 188.748C72.4175 188.813 73.3438 187.935 73.3874 186.507C73.4201 185.188 72.5701 184.299 71.2842 184.233C69.8566 184.156 69.0719 185.068 68.854 186.463C68.9957 187.781 69.704 188.682 71.0008 188.748Z" fill="#FFA2A4"/>
<path d="M59.4493 172.49C59.3839 171.117 58.523 170.403 57.1935 170.491C55.9621 170.568 55.2537 171.348 55.2646 172.589C55.2646 173.962 56.071 174.654 57.4006 174.742C58.741 174.599 59.5147 173.852 59.4493 172.49Z" fill="#FFA2A4"/>
<path d="M43.6041 104.331C44.9445 104.309 45.7509 103.474 45.74 102.134C45.7291 100.783 44.9009 99.9698 43.5605 99.9808C42.2201 99.9918 41.5118 100.838 41.4028 102.178C41.5227 103.518 42.2528 104.342 43.6041 104.331Z" fill="#FFA2A4"/>
<path d="M27.4102 130.452C27.4429 131.584 28.1513 132.32 29.2628 132.32C30.5052 132.32 31.2571 131.529 31.1808 130.276C31.1045 129.167 30.3308 128.574 29.1103 128.475C28.1622 128.739 27.3775 129.299 27.4102 130.452Z" fill="#FFA2A4"/>
<path d="M29.0993 104.089C30.3526 104.21 31.1481 103.496 31.2353 102.233C31.3116 101.079 30.6141 100.321 29.5025 100.211C28.2384 100.08 27.5519 100.849 27.3339 102.035C27.3993 103.21 27.9769 103.99 29.0993 104.089Z" fill="#FFA2A4"/>
<path d="M31.1372 144.271C31.1263 143.238 30.4398 142.535 29.4372 142.469C28.2929 142.392 27.5301 143.106 27.4756 144.238C27.4102 145.391 28.184 146.006 29.2955 146.204C30.3962 146.039 31.1481 145.435 31.1372 144.271Z" fill="#FFA2A4"/>
<path d="M31.2353 116.567C31.2244 115.304 30.4616 114.557 29.2083 114.601C28.0859 114.645 27.3775 115.381 27.3775 116.523C27.3775 117.798 28.1731 118.424 29.3936 118.545C30.4943 118.325 31.2353 117.721 31.2353 116.567Z" fill="#FFA2A4"/>
<path d="M43.4298 188.264C44.5522 188.341 45.2933 187.638 45.3368 186.507C45.3695 185.485 44.6939 184.782 43.7131 184.716C42.5906 184.639 41.9586 185.353 41.7624 186.517C41.9041 187.473 42.4381 188.198 43.4298 188.264Z" fill="#FFA2A4"/>
<path d="M59.3185 186.562C59.3512 185.32 58.6538 184.551 57.4224 184.507C56.1909 184.464 55.439 185.167 55.3845 186.419C55.33 187.671 56.0711 188.33 57.4224 188.539C58.4467 188.363 59.2968 187.847 59.3185 186.562Z" fill="#FFA2A4"/>
<path d="M45.4567 172.611C45.4567 171.48 44.7484 170.733 43.6368 170.7C42.3945 170.678 41.6316 171.458 41.6861 172.71C41.7297 173.83 42.5034 174.424 43.615 174.544C44.7157 174.347 45.4567 173.743 45.4567 172.611Z" fill="#FFA2A4"/>
<path d="M45.5439 158.814C45.5984 157.573 44.9118 156.793 43.6804 156.727C42.449 156.661 41.6861 157.364 41.6098 158.606C41.5336 159.858 42.2746 160.528 43.4515 160.726C44.683 160.66 45.4785 160.067 45.5439 158.814Z" fill="#FFA2A4"/>
<path d="M31.05 158.485C30.9301 157.485 30.2109 156.837 29.2083 156.925C28.1077 157.024 27.4211 157.771 27.5628 158.913C27.6826 159.913 28.4019 160.44 29.3936 160.506C30.4833 160.275 31.1917 159.638 31.05 158.485Z" fill="#FFA2A4"/>
<path d="M29.1211 174.149C30.0474 174.237 30.7122 173.819 30.8212 172.842C30.9302 171.798 30.4616 171.106 29.3609 171.051C28.4128 171.007 27.8679 171.524 27.7589 172.479C27.748 173.424 28.1621 174.05 29.1211 174.149Z" fill="#FFA2A4"/>
<path d="M27.8788 186.265C27.7372 187.21 28.2603 187.836 29.1866 187.935C30.0148 188.023 30.5923 187.517 30.7122 186.715C30.8539 185.76 30.309 185.221 29.4263 185.024C28.5763 185.035 27.9987 185.452 27.8788 186.265Z" fill="#FFA2A4"/>
<path d="M13.9843 130.254C13.908 131.188 14.3221 131.858 15.292 131.957C16.3382 132.067 17.0139 131.583 17.0575 130.463C17.0901 129.507 16.578 128.958 15.6408 128.859C14.6818 128.859 14.0715 129.288 13.9843 130.254Z" fill="#FFA2A4"/>
<path d="M15.3792 118.084C16.3164 118.149 16.9594 117.699 17.0466 116.732C17.1337 115.678 16.6324 115.008 15.5318 114.986C14.5728 114.964 14.0606 115.502 13.9625 116.59C14.0061 117.392 14.4093 118.029 15.3792 118.084Z" fill="#FFA2A4"/>
<path d="M14.0933 158.518C13.9843 159.463 14.5074 160.078 15.4555 160.144C16.2946 160.21 16.8504 159.682 16.9485 158.88C17.0574 157.936 16.5016 157.397 15.608 157.222C14.7471 157.266 14.1805 157.716 14.0933 158.518Z" fill="#FFA2A4"/>
<path d="M15.4228 103.704C16.36 103.748 16.9812 103.287 17.0465 102.32C17.1228 101.255 16.5888 100.618 15.4882 100.618C14.5292 100.618 14.0279 101.167 13.9625 102.145C13.9952 103.067 14.4529 103.649 15.4228 103.704Z" fill="#FFA2A4"/>
<path d="M14.028 144.37C14.0497 145.237 14.5292 145.765 15.3793 145.82C16.3382 145.886 16.9485 145.391 16.9921 144.403C17.0357 143.414 16.4908 142.898 15.3902 142.799C14.5946 142.909 14.0062 143.359 14.028 144.37Z" fill="#FFA2A4"/>
<path d="M16.785 172.677C16.8395 171.93 16.3491 171.403 15.6517 171.337C14.8125 171.26 14.2568 171.787 14.2568 172.644C14.2676 173.369 14.7798 173.786 15.5863 173.907C16.2074 173.775 16.7305 173.413 16.785 172.677Z" fill="#FFA2A4"/>
<path d="M1.81168 115.26C1.07065 115.205 0.547562 115.7 0.482176 116.403C0.405893 117.249 0.92898 117.809 1.77899 117.809C2.49823 117.798 2.91234 117.282 3.02132 116.557C2.94503 115.821 2.53092 115.326 1.81168 115.26Z" fill="#FFA2A4"/>
<path d="M1.60462 103.419C2.34566 103.518 2.87964 103.035 2.97772 102.343C3.09759 101.497 2.58541 100.926 1.74629 100.882C1.01616 100.849 0.602045 101.365 0.449478 102.101C0.493068 102.826 0.907175 103.331 1.60462 103.419Z" fill="#FFA2A4"/>
<path d="M15.5536 187.495C16.0985 187.484 16.4581 187.177 16.5126 186.627C16.5671 185.979 16.2728 185.529 15.5972 185.485C14.9324 185.441 14.5728 185.793 14.5074 186.485C14.551 187.144 14.8779 187.517 15.5536 187.495Z" fill="#FFA2A4"/>
<path d="M1.85523 145.325C2.41101 145.281 2.70524 144.93 2.72703 144.381C2.74883 143.71 2.40011 143.315 1.72446 143.326C1.0488 143.326 0.732776 143.721 0.721878 144.37C0.809059 145.062 1.20137 145.38 1.85523 145.325Z" fill="#FFA2A4"/>
<path d="M0.66738 130.255C0.591097 131.013 0.939827 131.507 1.74625 131.518C2.41101 131.518 2.78152 131.155 2.81422 130.485C2.84691 129.815 2.50908 129.442 1.76804 129.332C1.21226 129.332 0.732766 129.574 0.66738 130.255Z" fill="#FFA2A4"/>
<path d="M54.9703 130.331C54.9268 131.858 55.8531 132.825 57.3787 132.836C58.7845 132.847 59.689 131.935 59.7435 130.529C59.798 128.98 58.8172 128.178 57.3678 127.959C55.962 128.167 55.003 128.914 54.9703 130.331Z" fill="#FFA2A4"/>
<path d="M59.6999 144.48C59.8089 143.063 58.9371 142.085 57.5749 141.964C56.0601 141.821 55.0684 142.766 55.0139 144.282C54.9595 145.699 55.9076 146.468 57.2698 146.742C58.6429 146.611 59.591 145.875 59.6999 144.48Z" fill="#FFA2A4"/>
<path d="M43.6477 146.435C44.8792 146.402 45.6202 145.666 45.6638 144.436C45.7074 143.084 44.9663 142.25 43.615 142.217C42.2637 142.184 41.5554 142.986 41.4464 144.337C41.5772 145.688 42.2964 146.468 43.6477 146.435Z" fill="#FFA2A4"/>
<path d="M41.4137 116.513C41.4028 117.864 42.2092 118.699 43.5496 118.71C44.89 118.732 45.7183 117.908 45.7292 116.557C45.7509 115.205 44.9336 114.469 43.5278 114.316C42.2746 114.458 41.4246 115.151 41.4137 116.513Z" fill="#FFA2A4"/>
<path d="M43.5932 132.605C44.9336 132.583 45.74 131.759 45.7291 130.408C45.7182 129.057 44.89 128.244 43.5496 128.255C42.2092 128.266 41.5009 129.112 41.3919 130.452C41.5227 131.803 42.2528 132.616 43.5932 132.605Z" fill="#FFA2A4"/>
<path d="M68.7776 172.534C68.7341 173.951 69.6277 174.896 71.0008 174.962C72.5155 175.028 73.4854 174.072 73.4745 172.545C73.4636 171.139 72.5046 170.381 71.1315 170.173C69.7693 170.37 68.8212 171.117 68.7776 172.534Z" fill="#FFA2A4"/>
<path d="M87.3037 186.606C87.3473 185.068 86.4319 184.101 84.9062 184.09C83.5113 184.068 82.5959 184.969 82.5305 186.375C82.4651 187.924 83.435 188.726 85.0261 188.967C86.2575 188.715 87.2601 188.034 87.3037 186.606Z" fill="#FFA2A4"/>
<path d="M54.9703 116.348C54.8614 117.875 55.7768 118.885 57.2915 118.94C58.8063 118.984 59.7544 118.018 59.7435 116.48C59.7326 115.063 58.7954 114.305 57.4332 114.074C56.0274 114.217 55.0684 114.953 54.9703 116.348Z" fill="#FFA2A4"/>
<path d="M71.2187 161.154C72.6245 161.11 73.5181 160.22 73.5617 158.814C73.6053 157.277 72.7008 156.31 71.1752 156.277C69.6277 156.244 68.854 157.233 68.6578 158.737C68.8758 160.231 69.6713 161.198 71.2187 161.154Z" fill="#FFA2A4"/>
<path d="M71.0553 146.83C72.6027 146.863 73.5508 146.028 73.6162 144.457C73.6816 142.777 72.7771 141.81 71.088 141.81C69.5187 141.81 68.745 142.766 68.6033 144.304C68.7232 145.842 69.486 146.797 71.0553 146.83Z" fill="#FFA2A4"/>
<path d="M84.8299 175.105C86.5081 175.127 87.4453 174.182 87.3908 172.49C87.3473 170.919 86.421 170.063 84.8626 170.085C83.2933 170.107 82.5196 171.029 82.367 172.71C82.5414 174.083 83.2497 175.083 84.8299 175.105Z" fill="#FFA2A4"/>
<path d="M99.2257 189C100.784 188.967 101.678 188.077 101.678 186.507C101.678 184.804 100.697 183.903 99.0295 183.98C97.4603 184.057 96.7301 185.046 96.6647 186.616C96.85 188.132 97.6673 189.033 99.2257 189Z" fill="#FFA2A4"/>
<path d="M71.088 119.116C72.6245 119.149 73.5835 118.325 73.6816 116.765C73.7906 115.118 72.9842 114.052 71.295 113.964C69.6386 113.876 68.7123 114.766 68.5379 116.436C68.6142 118.094 69.3989 119.094 71.088 119.116Z" fill="#FFA2A4"/>
<path d="M73.638 130.76C73.7906 129.101 73.0278 128.024 71.3277 127.893C69.8021 127.772 68.7777 128.53 68.6142 130.112C68.4399 131.781 69.2572 132.759 70.9463 133.022C72.4284 132.979 73.4964 132.352 73.638 130.76Z" fill="#FFA2A4"/>
<path d="M71.1751 104.737C72.7226 104.726 73.638 103.858 73.6925 102.299C73.7579 100.629 72.897 99.6294 71.2187 99.5744C69.5405 99.5305 68.6687 100.464 68.5488 102.134C68.6469 103.793 69.4969 104.748 71.1751 104.737Z" fill="#FFA2A4"/>
<path d="M87.4781 158.748C87.4999 157.2 86.6825 156.233 85.1351 156.134C83.5004 156.024 82.4433 156.848 82.3562 158.551C82.269 160.22 83.1517 161.154 84.8081 161.319C86.4646 161.253 87.4454 160.451 87.4781 158.748Z" fill="#FFA2A4"/>
<path d="M98.986 175.214C100.621 175.324 101.678 174.489 101.787 172.809C101.896 171.161 101.067 170.095 99.4001 169.986C97.7654 169.876 96.7846 170.722 96.5667 172.402C96.5667 174.028 97.3077 175.104 98.986 175.214Z" fill="#FFA2A4"/>
<path d="M82.2036 144.161C82.1273 145.875 83.1735 147.006 84.8735 147.05C86.4646 147.094 87.5325 146.061 87.6197 144.48C87.7069 142.755 86.6389 141.788 84.9498 141.547C83.3696 141.711 82.2799 142.579 82.2036 144.161Z" fill="#FFA2A4"/>
<path d="M84.9062 133.209C86.4863 133.231 87.5652 132.199 87.6742 130.628C87.7831 128.903 86.737 127.75 85.0587 127.651C83.3587 127.552 82.3997 128.662 82.1055 130.386C82.2907 132.056 83.1952 133.187 84.9062 133.209Z" fill="#FFA2A4"/>
<path d="M99.1276 161.572C100.828 161.506 101.841 160.517 102.026 158.836C102.201 157.32 100.653 155.728 99.1385 155.849C97.4494 155.98 96.5448 157.035 96.3378 158.573C96.3269 160.154 97.6891 161.626 99.1276 161.572Z" fill="#FFA2A4"/>
<path d="M84.8408 105.012C86.5408 104.957 87.5543 103.968 87.7614 102.288C87.9357 100.783 86.3883 99.1789 84.8844 99.2888C83.1953 99.4206 82.2908 100.464 82.0728 102.002C82.051 103.584 83.4023 105.056 84.8408 105.012Z" fill="#FFA2A4"/>
<path d="M84.9716 113.701C83.2824 113.668 82.2581 114.744 82.0728 116.425C81.9093 117.941 83.4568 119.533 84.9716 119.402C86.6607 119.259 87.5652 118.215 87.7832 116.535C87.5652 114.865 86.6607 113.733 84.9716 113.701Z" fill="#FFA2A4"/>
<path d="M102.08 144.315C102.091 142.612 101.034 141.503 99.3663 141.415C97.5573 141.316 96.3912 142.392 96.304 144.205C96.2168 146.039 97.372 147.006 99.1374 147.292C100.903 147.072 102.058 146.149 102.08 144.315Z" fill="#FFA2A4"/>
<path d="M99.2686 133.363C101.067 133.297 102.156 132.155 102.102 130.342C102.047 128.53 100.914 127.442 99.1051 127.486C97.2961 127.53 96.3916 128.728 96.2063 130.518C96.5006 132.276 97.4487 133.429 99.2686 133.363Z" fill="#FFA2A4"/>
<path d="M99.1926 119.5C101.012 119.489 102.037 118.424 102.146 116.6C102.244 114.854 100.795 113.437 99.0727 113.558C97.2419 113.69 96.3483 114.799 96.1957 116.622C96.4246 118.38 97.3509 119.522 99.1926 119.5Z" fill="#FFA2A4"/>
<path d="M102.146 102.233C102.124 100.398 101.144 99.3217 99.3347 99.1679C97.6128 99.0251 96.1635 100.442 96.2397 102.178C96.316 104.034 97.3949 104.946 98.8552 105.133C100.806 105.155 102.157 103.88 102.146 102.233Z" fill="#FFA2A4"/>
</g>
<defs>
<clipPath id="clip0_37_742">
<rect width="101.697" height="89.8322" fill="white" transform="translate(110.608 0.874023)"/>
</clipPath>
<clipPath id="clip1_37_742">
<rect width="101.697" height="89.8322" fill="white" transform="matrix(-1 0 0 1 102.146 0.874023)"/>
</clipPath>
<clipPath id="clip2_37_742">
<rect width="101.697" height="89.8322" fill="white" transform="matrix(1 0 0 -1 110.608 189)"/>
</clipPath>
<clipPath id="clip3_37_742">
<rect width="101.697" height="89.8322" fill="white" transform="matrix(-1 0 0 -1 102.146 189)"/>
</clipPath>
</defs>
</svg>
