<svg width="733" height="699" viewBox="0 0 733 699" fill="none" xmlns="http://www.w3.org/2000/svg">
<path opacity="0.4" d="M384.232 40.2531C316.023 85.9257 233.427 105.724 151.187 100.637C123.709 98.9356 95.8586 103.245 71.4264 118.41C-16.5325 173.058 30.0149 317.318 77.5345 386.321C125.054 455.324 40.0438 550.023 75.0718 651.283C110.1 752.544 267.451 638.954 347.033 635.114C392.997 632.895 442.072 684.95 578.102 647.379C714.131 609.807 795.058 521.168 669.933 351.925C544.791 182.682 612.384 22.6905 485.493 1.5797C448.407 -4.59314 410.139 22.9011 384.232 40.2531Z" fill="url(#paint0_linear_7_306)"/>
<path opacity="0.4" d="M477.036 61.1857C398.328 84.4999 313.577 78.8131 236.586 49.4881C210.858 39.6861 182.991 35.506 155.141 42.732C54.917 68.7357 56.4237 220.319 81.2609 300.323C106.098 380.326 -3.2471 445.457 0.0742438 552.55C3.37939 659.643 187.414 598.029 264.518 618.038C309.057 629.589 340.423 693.894 481.475 698.511C622.527 703.113 726.169 642.567 657.052 443.756C587.952 244.945 700.068 112.318 585.214 54.3972C551.644 37.4664 506.928 52.3396 477.036 61.1857Z" fill="url(#paint1_linear_7_306)"/>
<defs>
<linearGradient id="paint0_linear_7_306" x1="423.683" y1="678.381" x2="300.025" y2="32.7427" gradientUnits="userSpaceOnUse">
<stop stop-color="white" stop-opacity="0"/>
<stop offset="0.9899" stop-color="white"/>
</linearGradient>
<linearGradient id="paint1_linear_7_306" x1="324.831" y1="682.163" x2="398.854" y2="28.9726" gradientUnits="userSpaceOnUse">
<stop stop-color="white" stop-opacity="0"/>
<stop offset="0.9899" stop-color="white"/>
</linearGradient>
</defs>
</svg>
