<svg width="504" height="355" viewBox="0 0 504 355" fill="none" xmlns="http://www.w3.org/2000/svg">
<g filter="url(#filter0_d_2665_2)">
<path d="M481.257 47.611C479.456 48.7113 478.885 51.071 479.983 52.8712C481.082 54.6713 483.44 55.2408 485.241 54.1404C486.901 53.1261 487.516 51.0416 486.742 49.3119C486.741 49.3112 486.741 49.3107 486.741 49.3101C486.729 49.2838 486.717 49.2576 486.704 49.2313C486.702 49.2267 486.7 49.2219 486.698 49.2173C486.685 49.191 486.672 49.1649 486.659 49.1386C486.658 49.1378 486.658 49.137 486.658 49.1362C486.644 49.1096 486.63 49.0831 486.616 49.0567C486.612 49.0504 486.609 49.0441 486.606 49.0377C486.595 49.0176 486.583 48.9977 486.572 48.9778C486.568 48.9706 486.564 48.9633 486.56 48.9561C486.545 48.9308 486.53 48.9053 486.514 48.8799C486.498 48.8537 486.482 48.8279 486.466 48.8024C486.459 48.7917 486.452 48.7811 486.445 48.7705C486.435 48.7562 486.426 48.7419 486.416 48.7278C486.407 48.7138 486.397 48.7 486.387 48.6861C486.38 48.6761 486.374 48.6661 486.366 48.6563C486.355 48.6399 486.343 48.6235 486.331 48.6073C486.326 48.601 486.322 48.5949 486.317 48.5887C486.303 48.5695 486.289 48.5505 486.274 48.5317C486.273 48.5301 486.272 48.5288 486.271 48.5273C486.039 48.2285 485.764 47.967 485.458 47.7503C485.442 47.7389 485.425 47.7274 485.409 47.7163C485.406 47.7138 485.402 47.7116 485.399 47.7093C484.195 46.8951 482.576 46.8046 481.257 47.611Z" fill="#B53071"/>
<path d="M483.215 48.242C482.817 47.7141 482.067 47.6087 481.539 48.0067C481.011 48.4047 480.905 49.1554 481.302 49.6833C481.7 50.2112 482.45 50.3165 482.978 49.9185C483.506 49.5205 483.612 48.7699 483.215 48.242Z" fill="#B53071"/>
<path d="M485.695 52.3077C485.411 51.711 484.697 51.4581 484.1 51.7428C483.503 52.0274 483.25 52.7419 483.534 53.3386C483.818 53.9353 484.532 54.1883 485.129 53.9036C485.725 53.6189 485.979 52.9044 485.695 52.3077Z" fill="#B53071"/>
<path d="M482.596 52.5685C482.87 51.9668 482.605 51.2569 482.004 50.9829C481.402 50.7089 480.693 50.9746 480.418 51.5763C480.144 52.178 480.409 52.8879 481.01 53.1619C481.611 53.4359 482.321 53.1702 482.596 52.5685Z" fill="#B53071"/>
<path d="M486.457 50.2089C486.731 49.6072 486.466 48.8974 485.865 48.6234C485.264 48.3494 484.554 48.6151 484.279 49.2168C484.005 49.8185 484.27 50.5284 484.871 50.8023C485.473 51.0763 486.183 50.8106 486.457 50.2089Z" fill="#B53071"/>
<path d="M484.079 56.2598C483.108 55.1777 481.443 55.0886 480.36 56.0606C479.278 57.0327 479.187 58.6979 480.158 59.7799C481.129 60.862 482.794 60.9512 483.876 59.9791C484.959 59.007 485.049 57.3419 484.079 56.2598Z" fill="#FFF6E1"/>
<path d="M475.918 62.9726C475.684 61.5372 474.331 60.5642 472.896 60.7993C471.46 61.0344 470.487 62.3887 470.72 63.8241C470.954 65.2595 472.307 66.2325 473.743 65.9973C475.178 65.7622 476.152 64.408 475.918 62.9726Z" fill="#FFF6E1"/>
<path d="M485.399 54.4001C483.455 55.588 480.909 54.9735 479.723 53.03C478.538 51.0865 479.154 48.5391 481.098 47.3512C481.997 46.802 483.024 46.6384 483.986 46.8129C483.268 46.1404 482.66 45.9126 482.267 45.8417C481.929 45.7806 481.692 45.8233 481.596 45.8479L477.803 48.1663L477.802 48.1642C477.794 48.1704 477.786 48.1764 477.777 48.1821L472.443 51.6568L472.079 51.8793L466.559 55.0373L462.737 57.3728C462.672 57.4459 462.526 57.6373 462.425 57.9674C462.309 58.3491 462.234 58.9945 462.504 59.9408C462.788 59.0046 463.403 58.165 464.302 57.6158C466.245 56.4279 468.792 57.0424 469.977 58.9859C471.163 60.9294 470.547 63.4767 468.603 64.6646C467.186 65.5307 465.448 65.4383 464.151 64.5718C465.002 66.8187 466.699 71.1481 467.723 72.7321C468.439 73.8395 469.186 74.6196 469.945 75.0502C470.676 75.465 471.378 75.5311 472.033 75.2466C472.71 74.9521 473.273 74.2876 473.577 73.4233C473.82 72.7343 474.017 71.5912 473.579 70.0587C473.24 68.8721 473.679 67.6166 474.883 66.3272C475.839 65.3047 477.253 64.2642 479.207 63.1467C481.093 61.9176 482.664 61.1337 484.009 60.7505C485.705 60.2673 487.022 60.4501 487.922 61.2938C489.084 62.3835 490.191 62.73 490.914 62.8289C491.821 62.9529 492.669 62.7552 493.24 62.2863C493.792 61.8336 494.054 61.1783 494.019 60.3385C493.982 59.4662 493.631 58.4441 492.973 57.3009C492.033 55.6657 488.959 52.1778 487.35 50.3945C487.528 51.9452 486.817 53.534 485.399 54.4001ZM476.367 52.3869L477.349 51.787C477.71 51.566 478.184 51.6803 478.404 52.0419C478.625 52.4034 478.511 52.8773 478.149 53.0982L477.167 53.6981C476.806 53.9191 476.332 53.8048 476.112 53.4432C475.891 53.0818 476.006 52.608 476.367 52.3869ZM469.957 56.3042L470.939 55.7043C471.3 55.4833 471.774 55.5976 471.994 55.9592C472.215 56.3207 472.1 56.7946 471.739 57.0155L470.757 57.6154C470.396 57.8364 469.922 57.7221 469.701 57.3605C469.481 56.9991 469.596 56.5252 469.957 56.3042ZM474.849 65.905C473.467 66.75 471.656 66.3128 470.812 64.9305C469.968 63.5482 470.407 61.7364 471.79 60.8914C473.172 60.0464 474.983 60.4836 475.827 61.8658C476.67 63.2483 476.232 65.0601 474.849 65.905ZM475.839 57.6137L475.833 57.6175L475.827 57.6211C475.206 58.0002 474.394 57.8041 474.015 57.1838C473.637 56.5635 473.833 55.7504 474.454 55.3712L474.46 55.3673L474.465 55.3639C475.086 54.9847 475.899 55.1809 476.277 55.8011C476.656 56.4214 476.459 57.2346 475.839 57.6137ZM483.649 60.5272C482.267 61.3722 480.456 60.935 479.612 59.5528C478.768 58.1705 479.207 56.3586 480.59 55.5136C481.972 54.6686 483.783 55.1058 484.627 56.4881C485.47 57.8702 485.032 59.6822 483.649 60.5272Z" fill="url(#paint0_linear_2665_2)"/>
<path d="M483.252 48.7525C483.146 48.1001 482.531 47.6578 481.878 47.7647C481.226 47.8715 480.783 48.4871 480.89 49.1395C480.996 49.792 481.611 50.2343 482.263 50.1274C482.916 50.0205 483.358 49.4049 483.252 48.7525Z" fill="#00030F"/>
<path d="M485.471 53.3897C485.795 52.8131 485.59 52.0834 485.014 51.7599C484.438 51.4364 483.708 51.6417 483.384 52.2183C483.061 52.795 483.265 53.5247 483.841 53.8481C484.418 54.1716 485.147 53.9664 485.471 53.3897Z" fill="#00030F"/>
<path d="M482.383 52.6024C482.685 52.0143 482.454 51.2927 481.866 50.9906C481.279 50.6885 480.557 50.9204 480.255 51.5085C479.952 52.0966 480.183 52.8183 480.771 53.1203C481.359 53.4224 482.08 53.1905 482.383 52.6024Z" fill="#00030F"/>
<path d="M486.244 50.2428C486.546 49.6547 486.315 48.9331 485.728 48.631C485.14 48.3289 484.418 48.5608 484.116 49.1489C483.813 49.7371 484.045 50.4587 484.632 50.7608C485.22 51.0628 485.942 50.8309 486.244 50.2428Z" fill="#00030F"/>
<path d="M483.918 57.7259C483.756 56.7323 482.82 56.0587 481.826 56.2215C480.833 56.3843 480.159 57.3217 480.32 58.3154C480.482 59.309 481.419 59.9826 482.412 59.8198C483.406 59.6571 484.08 58.7196 483.918 57.7259Z" fill="#00030F"/>
<path d="M483.181 58.7184C483.568 58.1321 483.406 57.3436 482.82 56.9573C482.234 56.5709 481.446 56.733 481.059 57.3194C480.673 57.9057 480.834 58.6942 481.42 59.0806C482.006 59.4669 482.794 59.3048 483.181 58.7184Z" fill="#B53071"/>
<path d="M481.604 58.6672C481.32 58.2016 481.467 57.5936 481.933 57.3089C482.155 57.173 482.41 57.1358 482.647 57.1843C482.339 56.9907 481.936 56.9749 481.605 57.1773C481.139 57.4619 480.992 58.0699 481.276 58.5356C481.424 58.7788 481.661 58.9348 481.92 58.9879C481.795 58.9095 481.686 58.8018 481.604 58.6672Z" fill="#FFF6E1"/>
<path d="M474.475 61.7848L473.949 62.1062C473.744 62.2317 473.476 62.167 473.35 61.9616L473.029 61.4358C472.904 61.2304 472.636 61.1657 472.431 61.2913L471.852 61.6447C471.647 61.7702 471.582 62.0384 471.707 62.2438L472.028 62.7696C472.153 62.975 472.088 63.2431 471.883 63.3686L471.357 63.69C471.152 63.8156 471.087 64.0837 471.212 64.2891L471.565 64.8673C471.69 65.0727 471.958 65.1374 472.164 65.0119L472.69 64.6905C472.895 64.565 473.163 64.6297 473.288 64.8351L473.609 65.3608C473.735 65.5662 474.003 65.6309 474.208 65.5054L474.786 65.152C474.992 65.0264 475.057 64.7583 474.931 64.5529L474.611 64.0271C474.485 63.8217 474.55 63.5536 474.756 63.4281L475.281 63.1067C475.487 62.9811 475.552 62.713 475.426 62.5076L475.074 61.9293C474.948 61.7241 474.68 61.6593 474.475 61.7848Z" fill="#00030F"/>
<path d="M470.599 57.3556L471.58 56.7557C471.799 56.6223 471.868 56.3361 471.735 56.1179C471.601 55.8996 471.315 55.8307 471.097 55.964L470.116 56.5639C469.897 56.6974 469.828 56.9835 469.961 57.2017C470.095 57.4201 470.381 57.4889 470.599 57.3556Z" fill="#B53071"/>
<path d="M463.247 63.2317C463.26 63.251 463.273 63.27 463.285 63.289C463.289 63.2949 463.293 63.3009 463.297 63.3068C463.314 63.3315 463.331 63.3562 463.349 63.3804C463.349 63.381 463.35 63.3818 463.35 63.3824C463.367 63.4062 463.385 63.4298 463.403 63.4531C463.406 63.4571 463.409 63.4613 463.412 63.4653C463.43 63.4884 463.447 63.5112 463.465 63.5337C463.466 63.5342 463.466 63.5347 463.467 63.5353C464.651 65.0148 466.785 65.4192 468.444 64.4049C470.245 63.3046 470.816 60.9448 469.718 59.1446C468.619 57.3444 466.261 56.775 464.46 57.8755C463.14 58.682 462.481 60.1648 462.656 61.6081C462.656 61.6122 462.656 61.6163 462.657 61.6201C462.659 61.6399 462.662 61.6597 462.665 61.6797C462.718 62.0517 462.825 62.4152 462.984 62.758C462.985 62.7596 462.986 62.7613 462.987 62.7629C462.997 62.7845 463.007 62.8061 463.018 62.8275C463.021 62.8343 463.024 62.8411 463.028 62.848C463.037 62.866 463.046 62.884 463.055 62.902C463.061 62.9127 463.067 62.9236 463.072 62.9342C463.08 62.9492 463.088 62.9641 463.096 62.9789C463.104 62.9938 463.113 63.0089 463.121 63.0237C463.128 63.0347 463.134 63.0459 463.14 63.0569C463.155 63.0834 463.171 63.1096 463.187 63.1358C463.202 63.161 463.218 63.1859 463.234 63.2106C463.238 63.2179 463.243 63.2247 463.247 63.2317ZM465.195 59.0803C466.331 58.386 467.819 58.7452 468.513 59.881C469.206 61.0168 468.845 62.5059 467.709 63.2001C466.573 63.8944 465.085 63.5352 464.392 62.3994C463.699 61.2636 464.059 59.7745 465.195 59.0803Z" fill="#B53071"/>
<path d="M477.009 53.4384L477.99 52.8385C478.209 52.7052 478.278 52.4189 478.145 52.2007C478.011 51.9823 477.725 51.9134 477.507 52.0468L476.526 52.6466C476.307 52.78 476.238 53.0662 476.371 53.2845C476.505 53.5028 476.791 53.5717 477.009 53.4384Z" fill="#B53071"/>
<path d="M470.103 57.2317C469.97 57.0133 470.039 56.7273 470.258 56.5938L471.239 55.994C471.322 55.9435 471.414 55.9221 471.504 55.9267C471.375 55.8772 471.225 55.8862 471.097 55.964L470.116 56.5639C469.897 56.6974 469.828 56.9835 469.961 57.2017C470.044 57.3373 470.186 57.4152 470.334 57.4229C470.241 57.3876 470.159 57.3227 470.103 57.2317Z" fill="#FFF6E1"/>
<path d="M476.513 53.3144C476.38 53.096 476.449 52.81 476.668 52.6766L477.649 52.0767C477.732 52.0262 477.824 52.0048 477.914 52.0094C477.785 51.9599 477.635 51.9689 477.507 52.0466L476.526 52.6465C476.308 52.7798 476.238 53.066 476.371 53.2843C476.454 53.4199 476.596 53.4977 476.744 53.5055C476.651 53.4704 476.569 53.4053 476.513 53.3144Z" fill="#FFF6E1"/>
<path d="M468.219 59.9866C467.583 59.0112 466.276 58.7372 465.3 59.3746C464.325 60.0121 464.05 61.3196 464.686 62.295C465.322 63.2705 466.629 63.5444 467.605 62.907C468.581 62.2695 468.856 60.962 468.219 59.9866Z" fill="#00030F"/>
<path d="M467.887 60.3231C467.437 59.5308 466.43 59.2541 465.637 59.7052C464.845 60.1562 464.568 61.1641 465.018 61.9564C465.468 62.7487 466.475 63.0253 467.268 62.5743C468.06 62.1233 468.338 61.1153 467.887 60.3231Z" fill="#B53071"/>
<path d="M465.68 62.0391C465.279 61.382 465.487 60.5234 466.144 60.1218C466.458 59.9299 466.818 59.8774 467.152 59.9459C466.718 59.6729 466.149 59.6504 465.681 59.936C465.024 60.3377 464.816 61.1961 465.217 61.8534C465.427 62.1966 465.761 62.417 466.126 62.4919C465.95 62.3809 465.796 62.2288 465.68 62.0391Z" fill="#FFF6E1"/>
<path d="M481.103 45.736L480.976 45.5282C480.946 45.4784 480.88 45.4627 480.83 45.4931L477.948 47.2543C477.809 47.3397 477.764 47.5226 477.85 47.6621L477.882 47.7159C477.889 47.727 477.895 47.7383 477.9 47.7499L481.131 45.7755C481.121 45.7631 481.111 45.7502 481.103 45.736Z" fill="#B53071"/>
<path d="M466.094 54.9198L466.062 54.866C465.976 54.7264 465.794 54.6822 465.654 54.7676L462.772 56.5288C462.722 56.5592 462.706 56.6246 462.737 56.6744L462.864 56.8822C462.872 56.8964 462.879 56.9109 462.886 56.9256L466.117 54.9512C466.109 54.9413 466.101 54.9309 466.094 54.9198Z" fill="#B53071"/>
<path d="M474.624 55.6236L474.619 55.6268L474.612 55.6306C474.135 55.9223 473.984 56.5476 474.275 57.0247C474.566 57.5018 475.191 57.6525 475.668 57.3611L475.674 57.3575L475.68 57.3538C476.157 57.0622 476.308 56.4368 476.017 55.9598C475.726 55.4827 475.101 55.332 474.624 55.6236Z" fill="#B53071"/>
<path d="M470.757 57.6154L471.739 57.0155C472.1 56.7944 472.215 56.3206 471.994 55.9592C471.774 55.5977 471.3 55.4834 470.939 55.7043L469.957 56.3042C469.596 56.5252 469.481 56.9991 469.701 57.3605C469.922 57.7219 470.396 57.8363 470.757 57.6154ZM470.116 56.5639L471.097 55.964C471.316 55.8306 471.601 55.8996 471.735 56.1179C471.868 56.3363 471.799 56.6223 471.58 56.7558L470.599 57.3556C470.38 57.4891 470.095 57.4201 469.961 57.2017C469.828 56.9835 469.897 56.6974 470.116 56.5639Z" fill="#00030F"/>
<path d="M467.709 63.2001C468.845 62.5059 469.206 61.0169 468.513 59.881C467.82 58.7452 466.331 58.3858 465.195 59.0803C464.059 59.7745 463.699 61.2635 464.392 62.3994C465.085 63.5352 466.573 63.8945 467.709 63.2001ZM465.354 59.34C466.346 58.7333 467.647 59.0473 468.253 60.0397C468.858 61.0324 468.544 62.3336 467.551 62.9404C466.558 63.5471 465.257 63.2331 464.652 62.2407C464.046 61.248 464.361 59.9468 465.354 59.34Z" fill="#00030F"/>
<path d="M474.465 55.3639L474.46 55.3672L474.454 55.3712C473.833 55.7504 473.636 56.5635 474.015 57.1838C474.394 57.8041 475.206 58.0002 475.827 57.621L475.833 57.6175L475.839 57.6137C476.459 57.2345 476.656 56.4214 476.277 55.8011C475.899 55.1808 475.086 54.9847 474.465 55.3639ZM475.68 57.3539L475.674 57.3576L475.668 57.3612C475.191 57.6528 474.566 57.5019 474.275 57.0248C473.984 56.5476 474.135 55.9224 474.612 55.6307L474.619 55.6269L474.624 55.6237C475.101 55.3321 475.726 55.483 476.017 55.9601C476.309 56.437 476.157 57.0623 475.68 57.3539Z" fill="#00030F"/>
<path d="M480.59 55.5136C479.207 56.3586 478.768 58.1705 479.612 59.5527C480.456 60.935 482.267 61.3722 483.649 60.5272C485.032 59.6822 485.47 57.8703 484.627 56.4881C483.783 55.1058 481.972 54.6686 480.59 55.5136ZM483.491 60.2675C482.251 61.0247 480.628 60.633 479.872 59.3938C479.116 58.1548 479.509 56.5307 480.748 55.7732C481.988 55.0157 483.611 55.4077 484.367 56.6466C485.123 57.8859 484.73 59.5099 483.491 60.2675Z" fill="#00030F"/>
<path d="M477.167 53.6981L478.149 53.0982C478.51 52.8772 478.625 52.4033 478.405 52.0419C478.184 51.6805 477.71 51.5661 477.349 51.787L476.367 52.3869C476.006 52.608 475.891 53.0818 476.112 53.4432C476.332 53.8047 476.806 53.919 477.167 53.6981ZM476.526 52.6466L477.507 52.0468C477.726 51.9134 478.012 51.9823 478.145 52.2007C478.278 52.419 478.209 52.705 477.99 52.8385L477.009 53.4384C476.791 53.5717 476.505 53.5028 476.371 53.2845C476.238 53.0662 476.308 52.78 476.526 52.6466Z" fill="#00030F"/>
<path d="M471.789 60.8914C470.407 61.7364 469.968 63.5482 470.812 64.9305C471.655 66.3128 473.466 66.75 474.849 65.905C476.232 65.06 476.67 63.2481 475.827 61.8658C474.983 60.4837 473.172 60.0466 471.789 60.8914ZM474.691 65.6453C473.451 66.4027 471.828 66.0107 471.072 64.7718C470.315 63.5326 470.709 61.9086 471.948 61.1511C473.187 60.3938 474.811 60.7856 475.567 62.0246C476.323 63.2637 475.93 64.888 474.691 65.6453Z" fill="#00030F"/>
<path d="M482.549 49.3486C482.539 49.3596 482.521 49.3747 482.498 49.3941C482.474 49.4134 482.449 49.4307 482.424 49.4459C482.372 49.4777 482.328 49.493 482.291 49.4913C482.254 49.4896 482.219 49.4604 482.184 49.4039L482.044 49.1744C481.99 49.1498 481.931 49.1221 481.867 49.0913C481.803 49.0605 481.739 49.0279 481.675 48.9943C481.611 48.9603 481.549 48.926 481.491 48.891C481.432 48.8561 481.381 48.8223 481.338 48.7895C481.34 48.7601 481.349 48.7292 481.364 48.6966C481.379 48.664 481.405 48.6363 481.443 48.6135C481.487 48.5864 481.528 48.5735 481.567 48.5747C481.606 48.5759 481.653 48.5938 481.709 48.6283L482.023 48.8259L482.033 48.8197C482.027 48.775 482.022 48.7345 482.016 48.6983C482.01 48.6622 482.004 48.6261 481.998 48.5903C481.992 48.5546 481.986 48.5172 481.979 48.4785C481.972 48.4397 481.965 48.3952 481.955 48.3446C481.97 48.3221 481.987 48.3001 482.009 48.2793C482.03 48.2585 482.052 48.2411 482.075 48.2272C482.115 48.203 482.155 48.1928 482.195 48.1969C482.236 48.2008 482.269 48.2238 482.295 48.2657C482.303 48.2793 482.31 48.2975 482.316 48.3202C482.322 48.343 482.327 48.38 482.33 48.4315C482.334 48.483 482.336 48.5541 482.338 48.6448C482.34 48.7356 482.34 48.8552 482.339 49.0037L482.549 49.3486Z" fill="#FFF6E1"/>
<path d="M485.52 50.2331C485.501 50.245 485.478 50.2582 485.451 50.2729C485.424 50.2877 485.396 50.3019 485.366 50.3155C485.336 50.3291 485.306 50.3416 485.276 50.3531C485.246 50.3646 485.216 50.3727 485.188 50.3775C485.111 50.3918 485.055 50.3695 485.019 50.3106L484.535 49.517C484.52 49.4932 484.515 49.4709 484.52 49.4498C484.525 49.4289 484.537 49.4074 484.555 49.3858C484.585 49.3487 484.627 49.3092 484.681 49.2678C484.735 49.2264 484.793 49.1867 484.854 49.1495C484.999 49.0608 485.125 49.017 485.233 49.018C485.341 49.0189 485.426 49.0703 485.488 49.1723C485.52 49.2232 485.532 49.2762 485.525 49.3311C485.518 49.386 485.494 49.4371 485.455 49.4846C485.521 49.4658 485.586 49.4657 485.65 49.4845C485.713 49.5031 485.765 49.5442 485.803 49.6078C485.872 49.72 485.881 49.8284 485.83 49.933C485.78 50.0375 485.676 50.1376 485.52 50.2331ZM485.01 49.6464L485.134 49.5705C485.183 49.5407 485.213 49.5101 485.224 49.4785C485.235 49.4469 485.23 49.4134 485.208 49.3783C485.19 49.3476 485.162 49.3312 485.126 49.3284C485.089 49.3259 485.045 49.3402 484.994 49.3713C484.977 49.3816 484.958 49.3943 484.937 49.4088C484.915 49.4234 484.899 49.4358 484.888 49.4456L485.01 49.6464ZM485.263 50.061C485.282 50.0559 485.304 50.0465 485.33 50.0329C485.356 50.0193 485.38 50.0058 485.403 49.9919C485.449 49.9642 485.48 49.9317 485.499 49.8948C485.518 49.8577 485.515 49.8193 485.491 49.7797C485.468 49.7423 485.439 49.7233 485.404 49.7227C485.37 49.7221 485.327 49.7373 485.276 49.7684L485.137 49.8535L485.263 50.061Z" fill="#FFF6E1"/>
<path d="M480.611 51.9514C480.607 51.932 480.605 51.9113 480.605 51.8893C480.606 51.8672 480.61 51.845 480.617 51.8225C480.624 51.8001 480.636 51.7785 480.651 51.7575C480.666 51.7365 480.686 51.7184 480.711 51.7033C480.744 51.6832 480.778 51.6738 480.813 51.675C480.848 51.6761 480.89 51.6888 480.941 51.7124L481.197 51.8335L481.216 51.4252C481.222 51.4152 481.232 51.403 481.246 51.3891C481.26 51.3752 481.275 51.3631 481.291 51.3536C481.343 51.3218 481.392 51.3093 481.436 51.3162C481.481 51.3232 481.514 51.3447 481.536 51.381C481.556 51.4127 481.565 51.4461 481.564 51.4811C481.562 51.516 481.558 51.5597 481.551 51.6121L481.507 51.9333L482.026 52.16C482.042 52.2075 482.043 52.2526 482.028 52.2952C482.013 52.3378 481.98 52.3748 481.929 52.4061C481.896 52.4262 481.862 52.4353 481.828 52.4334C481.795 52.4316 481.753 52.4184 481.704 52.3939L481.434 52.2605L481.417 52.7143C481.408 52.7211 481.4 52.727 481.393 52.7324C481.385 52.7378 481.377 52.7429 481.369 52.7478C481.305 52.7873 481.249 52.8034 481.203 52.796C481.156 52.7887 481.121 52.7658 481.098 52.7273C481.078 52.6944 481.067 52.6616 481.067 52.6284C481.066 52.5954 481.069 52.5546 481.075 52.5057L481.113 52.1674L480.611 51.9514Z" fill="#FFF6E1"/>
<path d="M483.923 52.4488C483.935 52.4257 483.958 52.3971 483.991 52.3631C484.024 52.3289 484.06 52.2999 484.1 52.2756C484.156 52.2411 484.211 52.2185 484.265 52.2084C484.319 52.1981 484.362 52.2068 484.396 52.2343C484.453 52.2807 484.517 52.3358 484.588 52.3994C484.66 52.463 484.733 52.5291 484.807 52.598C484.882 52.6666 484.955 52.7347 485.027 52.8019C485.1 52.869 485.163 52.9286 485.218 52.9804C485.214 53.0046 485.201 53.0298 485.18 53.056C485.159 53.0821 485.129 53.1067 485.092 53.1296C485.065 53.1463 485.04 53.158 485.019 53.1648C484.998 53.1717 484.978 53.1743 484.961 53.1725C484.943 53.1707 484.926 53.1647 484.91 53.1545C484.894 53.1442 484.877 53.1313 484.859 53.1155L484.757 53.017L484.449 53.2051C484.461 53.2446 484.473 53.2853 484.487 53.3271C484.5 53.369 484.512 53.4096 484.524 53.4491C484.511 53.4643 484.498 53.4795 484.482 53.4941C484.467 53.5088 484.447 53.5238 484.422 53.5389C484.365 53.5741 484.316 53.5904 484.276 53.5876C484.236 53.5847 484.206 53.5657 484.184 53.5308C484.174 53.5149 484.167 53.4977 484.162 53.479C484.157 53.4604 484.15 53.4386 484.143 53.4136C484.132 53.3782 484.12 53.3335 484.107 53.2796C484.093 53.2256 484.079 53.1671 484.064 53.104C484.049 53.0409 484.034 52.9759 484.019 52.9083C484.004 52.8411 483.991 52.7776 483.978 52.718C483.965 52.6583 483.953 52.6049 483.944 52.5577C483.934 52.5102 483.927 52.474 483.923 52.4488ZM484.261 52.5434C484.274 52.6007 484.288 52.6645 484.304 52.7349C484.32 52.8054 484.338 52.8754 484.359 52.9451L484.57 52.8164C484.516 52.7649 484.464 52.7151 484.412 52.6666C484.36 52.6184 484.313 52.5751 484.271 52.537L484.261 52.5434Z" fill="#FFF6E1"/>
<path d="M468.899 70.3888C468.007 68.9268 467.215 67.111 466.541 65.2689C465.696 65.2863 464.858 65.0442 464.152 64.5716C465.002 66.8187 466.699 71.1481 467.723 72.7321C468.439 73.8396 469.187 74.6196 469.945 75.0502C470.676 75.465 471.378 75.5311 472.033 75.2466C472.71 74.9521 473.273 74.2876 473.577 73.4233C473.736 72.9716 473.876 72.3243 473.83 71.5002C472.614 72.9084 470.841 73.5714 468.899 70.3888Z" fill="#2E2594"/>
<path d="M462.425 57.9674C462.309 58.3491 462.234 58.9945 462.504 59.9408C462.787 59.0098 463.396 58.1742 464.287 57.6252C464.184 57.1923 464.104 56.8351 464.046 56.5732L462.737 57.3731C462.673 57.4459 462.526 57.6374 462.425 57.9674Z" fill="#2E2594"/>
<path d="M490.351 57.2792C489.459 55.8172 488.206 54.2833 486.877 52.8418C487.278 52.0972 487.446 51.2409 487.349 50.3958C488.958 52.1793 492.031 55.6671 492.972 57.3023C493.629 58.4455 493.981 59.4674 494.018 60.3398C494.053 61.1797 493.791 61.835 493.239 62.2877C492.668 62.7564 491.82 62.9542 490.912 62.8302C490.438 62.7655 489.799 62.5939 489.088 62.1763C490.894 61.7376 492.293 60.4618 490.351 57.2792Z" fill="#2E2594"/>
<path d="M482.266 45.8427C482.658 45.9136 483.266 46.1414 483.984 46.814C483.028 46.6405 482.006 46.8016 481.111 47.3434C480.773 47.0543 480.493 46.8194 480.286 46.6485L481.595 45.8486C481.69 45.8244 481.927 45.7814 482.266 45.8427Z" fill="#2E2594"/>
<path d="M487.061 49.2845C487.061 49.2833 487.06 49.282 487.06 49.2808C487.034 49.2197 487.007 49.1592 486.978 49.0994C486.976 49.094 486.973 49.0885 486.971 49.083C486.959 49.0581 486.946 49.0333 486.934 49.0088C486.931 49.0039 486.929 48.9991 486.926 48.9943C486.912 48.9661 486.897 48.938 486.882 48.9099C486.879 48.9045 486.876 48.899 486.873 48.8935C486.861 48.8708 486.848 48.8483 486.835 48.8258C486.831 48.8182 486.827 48.8107 486.823 48.8032C486.807 48.7759 486.791 48.7486 486.774 48.7215C486.757 48.6934 486.74 48.6656 486.722 48.6381C486.715 48.6269 486.707 48.6158 486.7 48.6046C486.69 48.589 486.68 48.5734 486.669 48.5578C486.659 48.5432 486.649 48.5287 486.639 48.5143C486.631 48.5032 486.624 48.4923 486.616 48.4812C486.604 48.4638 486.591 48.4467 486.579 48.4297C486.574 48.4229 486.569 48.4162 486.564 48.4094C486.549 48.3891 486.533 48.3688 486.518 48.3488C486.518 48.3481 486.517 48.3475 486.517 48.3467C486.278 48.0381 486.002 47.7711 485.699 47.5488C485.691 47.5428 485.684 47.5371 485.676 47.5311C485.663 47.5219 485.65 47.5127 485.637 47.5036C485.621 47.4924 485.605 47.4811 485.589 47.47C485.582 47.4652 485.575 47.4605 485.568 47.4557C485.26 47.2471 484.924 47.0795 484.567 46.9596C484.482 46.8738 484.405 46.7952 484.335 46.726C482.868 45.2649 481.738 45.4877 481.489 45.5616L481.487 45.5585L481.475 45.5662C481.456 45.5723 481.444 45.5768 481.44 45.5783L481.427 45.5831L481.416 45.5899C481.398 45.6008 481.375 45.5953 481.363 45.577L481.237 45.3693C481.119 45.1763 480.866 45.1151 480.673 45.2333L477.79 46.9945C477.508 47.1673 477.418 47.5381 477.59 47.8208L477.623 47.8746C477.634 47.8924 477.629 47.9155 477.611 47.927L472.283 51.3982L471.926 51.6163L466.406 54.7743C466.388 54.7847 466.365 54.7789 466.354 54.761L466.321 54.7072C466.149 54.4244 465.778 54.3349 465.496 54.5079L462.613 56.2691C462.42 56.387 462.359 56.6402 462.477 56.8332L462.604 57.0409C462.615 57.059 462.609 57.0828 462.591 57.0939L462.58 57.1007L462.57 57.1093C462.529 57.1454 461.569 58.0186 462.268 60.2114C462.297 60.3042 462.331 60.4091 462.37 60.524C462.313 60.8966 462.308 61.2728 462.353 61.6421C462.354 61.6505 462.355 61.6588 462.356 61.6673C462.359 61.6869 462.361 61.7062 462.364 61.7255C462.366 61.7411 462.369 61.7568 462.371 61.7724C462.372 61.7822 462.374 61.7919 462.375 61.8017C462.435 62.1732 462.546 62.5408 462.712 62.8939C462.712 62.8946 462.712 62.8953 462.713 62.8959C462.723 62.9189 462.735 62.9416 462.746 62.9645C462.75 62.9719 462.753 62.9795 462.757 62.9869C462.766 63.0057 462.776 63.0247 462.786 63.0434C462.792 63.0554 462.798 63.0671 462.805 63.0792C462.813 63.0948 462.821 63.1103 462.83 63.1259C462.839 63.1424 462.848 63.1585 462.857 63.1748C462.863 63.1866 462.87 63.1983 462.877 63.2098C462.893 63.2381 462.91 63.2663 462.927 63.2945C462.943 63.3216 462.96 63.3483 462.977 63.3751C462.982 63.3824 462.987 63.3896 462.992 63.397C463.006 63.4187 463.02 63.4402 463.035 63.4616C463.038 63.4667 463.042 63.4719 463.045 63.4771C463.063 63.5034 463.081 63.5295 463.1 63.5552C463.103 63.5595 463.106 63.5637 463.109 63.5679C463.125 63.5904 463.142 63.6129 463.159 63.6348C463.162 63.6396 463.166 63.6443 463.169 63.649C463.21 63.702 463.251 63.7538 463.294 63.8045C463.294 63.8052 463.295 63.8063 463.296 63.807C463.418 63.9524 463.551 64.0893 463.692 64.2165C464.466 66.2799 466.351 71.1716 467.467 72.8976C468.21 74.0466 468.993 74.8598 469.795 75.3152C470.601 75.7731 471.417 75.846 472.153 75.526C472.259 75.4799 472.362 75.4261 472.463 75.3649C473.077 74.9891 473.579 74.3359 473.864 73.5243C474.233 72.4763 474.236 71.2491 473.872 69.9749C473.564 68.8981 473.979 67.7407 475.105 66.5351C476.04 65.5345 477.432 64.5119 479.361 63.4088L479.365 63.4066L479.369 63.4042C481.231 62.1907 482.776 61.4184 484.092 61.0434C485.678 60.5914 486.897 60.7505 487.713 61.5162C488.68 62.4219 489.772 62.9803 490.872 63.1307C491.863 63.2661 492.796 63.0444 493.433 62.5218C494.054 62.0124 494.361 61.2531 494.323 60.3257C494.284 59.404 493.919 58.3354 493.237 57.1492C492.212 55.3675 488.725 51.4547 487.244 49.8238C487.196 49.6399 487.134 49.4599 487.061 49.2845ZM485.398 47.7094C485.402 47.7118 485.405 47.7141 485.409 47.7164C485.425 47.7277 485.441 47.739 485.458 47.7505C485.764 47.9673 486.039 48.2288 486.271 48.5274C486.272 48.529 486.273 48.5302 486.274 48.5318C486.289 48.5506 486.303 48.5697 486.317 48.5889C486.322 48.5949 486.326 48.6012 486.331 48.6074C486.343 48.6238 486.355 48.64 486.366 48.6564C486.373 48.6663 486.38 48.6762 486.387 48.6863C486.397 48.7001 486.407 48.7139 486.416 48.7279C486.426 48.7421 486.435 48.7564 486.444 48.7707C486.452 48.7813 486.459 48.7918 486.466 48.8025C486.482 48.8282 486.498 48.854 486.514 48.8801C486.53 48.9053 486.545 48.9306 486.559 48.9563C486.564 48.9636 486.568 48.9708 486.572 48.9779C486.583 48.9979 486.594 49.0179 486.605 49.0379C486.609 49.0441 486.612 49.0504 486.616 49.0568C486.63 49.0833 486.644 49.1096 486.657 49.1363C486.658 49.1371 486.658 49.1379 486.659 49.1387C486.672 49.1648 486.685 49.191 486.698 49.2174C486.7 49.222 486.702 49.2269 486.704 49.2315C486.717 49.2576 486.729 49.2839 486.741 49.3102C486.741 49.3109 486.741 49.3114 486.741 49.312C487.516 51.0418 486.901 53.1262 485.241 54.1405C483.44 55.2408 481.082 54.6716 479.983 52.8714C478.885 51.0713 479.456 48.7116 481.256 47.6111C482.576 46.8046 484.195 46.8951 485.398 47.7094ZM477.882 47.7159L477.85 47.6621C477.764 47.5226 477.809 47.3397 477.948 47.2543L480.83 45.4931C480.88 45.4627 480.946 45.4784 480.976 45.5282L481.103 45.736C481.111 45.7502 481.121 45.763 481.131 45.7755L477.9 47.7499C477.895 47.7384 477.889 47.727 477.882 47.7159ZM462.863 56.8824L462.737 56.6746C462.706 56.6248 462.722 56.5594 462.772 56.529L465.654 54.7677C465.793 54.6824 465.976 54.7267 466.062 54.8661L466.094 54.9199C466.101 54.931 466.109 54.9414 466.116 54.9515L462.885 56.9259C462.879 56.9109 462.872 56.8964 462.863 56.8824ZM463.14 63.0569C463.134 63.0459 463.128 63.0347 463.121 63.0236C463.113 63.0088 463.105 62.9938 463.096 62.9789C463.088 62.9641 463.08 62.9491 463.072 62.9342C463.067 62.9234 463.061 62.9128 463.055 62.902C463.046 62.884 463.037 62.866 463.028 62.848C463.025 62.8412 463.021 62.8345 463.018 62.8275C463.007 62.8059 462.997 62.7845 462.987 62.7629C462.986 62.7613 462.985 62.7596 462.985 62.758C462.825 62.4152 462.718 62.0517 462.665 61.6797C462.662 61.6599 462.659 61.6401 462.657 61.6201C462.656 61.616 462.656 61.6121 462.656 61.6081C462.481 60.1648 463.14 58.682 464.46 57.8755C466.26 56.7752 468.619 57.3445 469.718 59.1446C470.816 60.9447 470.245 63.3046 468.445 64.4049C466.785 65.4192 464.651 65.0148 463.467 63.5354C463.466 63.5348 463.466 63.5343 463.466 63.5338C463.448 63.5113 463.43 63.4883 463.412 63.4654C463.409 63.4614 463.406 63.4572 463.403 63.4532C463.385 63.4298 463.368 63.4065 463.351 63.3826C463.35 63.3819 463.35 63.3811 463.349 63.3805C463.332 63.3562 463.314 63.3316 463.298 63.3069C463.294 63.301 463.29 63.2951 463.286 63.2891C463.273 63.2701 463.26 63.251 463.248 63.2318C463.243 63.2248 463.239 63.2178 463.234 63.2107C463.218 63.186 463.202 63.161 463.187 63.1359C463.171 63.1096 463.155 63.0834 463.14 63.0569ZM492.973 57.3012C493.631 58.4444 493.983 59.4663 494.019 60.3387C494.054 61.1786 493.792 61.8339 493.24 62.2866C492.669 62.7553 491.821 62.9531 490.914 62.8291C490.19 62.7303 489.084 62.3836 487.922 61.294C487.022 60.4502 485.705 60.2674 484.009 60.7508C482.664 61.134 481.093 61.9178 479.207 63.147C477.253 64.2646 475.839 65.3051 474.884 66.3275C473.679 67.6168 473.24 68.8722 473.579 70.059C474.017 71.5915 473.82 72.7346 473.577 73.4236C473.273 74.2878 472.71 74.9524 472.033 75.2469C471.378 75.5314 470.676 75.4652 469.945 75.0505C469.186 74.6198 468.439 73.8398 467.723 72.7324C466.699 71.1482 465.002 66.819 464.152 64.5719C465.449 65.4386 467.186 65.5308 468.603 64.6647C470.547 63.4768 471.164 60.9295 469.978 58.986C468.792 57.0425 466.246 56.4281 464.302 57.6159C463.403 58.1649 462.789 59.0048 462.504 59.9409C462.234 58.9947 462.309 58.3492 462.426 57.9675C462.526 57.6374 462.673 57.446 462.737 57.3729L466.559 55.0374L472.079 51.8795L472.443 51.6569L477.777 48.1822C477.786 48.1766 477.794 48.1705 477.802 48.1643L477.803 48.1664L481.597 45.848C481.692 45.8236 481.929 45.7807 482.268 45.8418C482.66 45.9127 483.268 46.1405 483.986 46.813C483.024 46.6386 481.997 46.8024 481.098 47.3513C479.154 48.5392 478.538 51.0867 479.724 53.0301C480.91 54.9736 483.456 55.5879 485.4 54.4002C486.817 53.5341 487.528 51.9453 487.35 50.3949C488.959 52.1782 492.033 55.666 492.973 57.3012Z" fill="#00030F"/>
<path d="M475.381 55.7457C475.275 55.5715 474.948 55.5772 474.652 55.7584C474.355 55.9397 474.201 56.2279 474.307 56.4021C474.413 56.5763 474.74 56.5706 475.037 56.3894C475.333 56.2081 475.487 55.9199 475.381 55.7457Z" fill="#FFF6E1"/>
<path d="M470.073 53.401C470.997 54.9158 472.717 55.6517 474.39 55.4125C474.411 55.3982 474.432 55.3843 474.454 55.371L474.46 55.3671L474.466 55.3637C474.727 55.204 475.022 55.1468 475.305 55.1797C475.57 55.081 475.829 54.9559 476.08 54.8028C476.625 54.4696 477.073 54.0383 477.415 53.5464L477.167 53.6978C476.806 53.9188 476.332 53.8045 476.111 53.4429C475.891 53.0814 476.005 52.6075 476.367 52.3866L477.349 51.7867C477.599 51.6337 477.903 51.6415 478.139 51.7807C478.311 50.7876 478.139 49.736 477.577 48.8147C477.503 48.6934 477.424 48.5772 477.34 48.4661L472.442 51.6564L472.078 51.879L469.914 53.1176C469.963 53.2132 470.016 53.3078 470.073 53.401Z" fill="#2E2594"/>
<path d="M485.414 56.3164C485.073 55.7162 484.954 55.1602 484.96 54.6337C483.087 55.4896 480.822 54.8298 479.723 53.03C479.596 52.8205 479.489 52.604 479.402 52.383C479.415 53.1164 479.691 53.8504 480.093 54.3917C480.448 54.8691 480.691 55.1702 480.802 55.3953C482.153 54.7152 483.826 55.1756 484.627 56.4878C485.47 57.8701 485.032 59.682 483.649 60.527C482.267 61.372 480.456 60.9347 479.612 59.5525C479.607 59.5452 479.603 59.5379 479.599 59.5306C479.614 60.3444 480.443 61.0617 479.855 61.404C479.125 61.8297 476.753 63.5882 476.317 62.5351C476.126 62.0752 475.887 61.7867 475.63 61.5822C475.7 61.6717 475.766 61.7663 475.826 61.8657C476.67 63.248 476.231 65.0599 474.849 65.9049C473.977 66.4376 472.935 66.4603 472.073 66.0582C472.207 66.4407 472.348 66.8723 472.474 67.3582C472.729 68.3377 473.116 68.9672 473.47 69.3657C473.438 68.3871 473.911 67.3681 474.883 66.3271C475.838 65.3045 477.253 64.264 479.207 63.1466C481.093 61.9174 482.663 61.1336 484.009 60.7504C485.341 60.3709 486.438 60.4024 487.284 60.8416C486.787 60.453 486.04 60.1257 486.062 59.508C486.095 58.5813 486.221 57.7408 485.414 56.3164Z" fill="#2E2594"/>
<path d="M476.229 57.929C476.922 57.5056 477.141 56.6009 476.718 55.9082C476.439 55.4505 475.949 55.2001 475.449 55.205C475.782 55.2818 476.085 55.487 476.277 55.8013C476.656 56.4216 476.459 57.2347 475.838 57.6139L475.833 57.6176L475.827 57.6212C475.291 57.9486 474.612 57.8468 474.193 57.4136C474.198 57.4229 474.204 57.4324 474.209 57.4415C474.632 58.1339 475.536 58.3523 476.229 57.929Z" fill="#2E2594"/>
</g>
<g filter="url(#filter1_d_2665_2)">
<path d="M447.014 293.793L445.058 297.564L441.639 300.057L442.931 304.103L442.256 308.287L446.027 310.243L448.534 313.673L452.566 312.37L456.762 313.032L458.706 309.274L462.136 306.767L460.859 302.733L461.52 298.537L457.737 296.595L455.244 293.176L451.196 294.442L447.014 293.793ZM447.165 308.945C445.717 307.703 444.822 305.936 444.676 304.034C444.531 302.132 445.147 300.249 446.389 298.802C447.632 297.354 449.398 296.459 451.3 296.313C453.203 296.168 455.085 296.784 456.533 298.026C459.535 300.602 459.882 305.141 457.306 308.144C454.707 311.174 450.168 311.521 447.165 308.945ZM448.309 307.556C446.043 305.613 445.797 302.226 447.741 299.961C449.673 297.709 453.069 297.424 455.334 299.367C457.6 301.311 457.862 304.735 455.93 306.987C453.986 309.252 450.574 309.5 448.309 307.556ZM452.261 313.554L447.892 315.113L445.603 312.036L442.229 322.955L446.716 321.592L450.128 324.519L452.261 313.554ZM441.67 304.633L440.742 309.168L444.246 310.966L434.04 315.929L434.706 311.287L431.294 308.36L441.67 304.633Z" fill="url(#paint1_linear_2665_2)"/>
</g>
<g filter="url(#filter2_d_2665_2)">
<path d="M38.4754 17.5194C38.4754 17.5194 35.4447 18.7978 31.6514 19.893C31.6514 19.893 34.3748 14.3827 33.9627 12.2424C33.9627 12.2424 32.5987 13.5107 31.0602 14.1548C30.4822 14.3956 29.8185 14.0889 29.629 13.4926C29.1214 11.9036 29.2047 10.0417 29.2047 10.0417C27.3067 11.1146 24.8742 16.7597 24.8742 16.7597C23.2504 13.1616 22.2613 10.0241 22.2613 10.0241C18.3788 4.12022 10.7214 6.66869 10.7214 6.66869C15.9565 8.29097 15.5816 14.3092 15.5816 14.3092C21.3997 15.628 19.2097 21.1465 19.2097 21.1465C22.118 25.0843 21.101 33.9692 21.101 33.9692C21.101 33.9692 27.0947 27.3865 31.9794 27.0515C31.9794 27.0515 34.7644 21.8095 39.5381 25.387C39.5381 25.387 43.8805 21.2021 48.5076 24.1395C48.5065 24.1381 45.4877 16.6533 38.4754 17.5194Z" fill="url(#paint2_linear_2665_2)"/>
</g>
<g filter="url(#filter3_d_2665_2)">
<path d="M23.892 306.549L23.3441 312.042C23.2922 312.57 23.6737 313.045 24.1997 313.103L29.8075 313.726C30.3327 313.783 30.8004 313.404 30.8535 312.875L31.4014 307.382L28.5588 303.305C28.3058 302.942 27.7948 302.885 27.4763 303.186L23.892 306.549Z" fill="#390075"/>
<g opacity="0.7">
<g opacity="0.7">
<g opacity="0.7">
<path opacity="0.7" d="M25.3376 312.612L25.8855 307.119L29.1096 304.095L28.5603 303.308C28.3073 302.945 27.7963 302.888 27.4779 303.188L23.8935 306.552L23.3456 312.045C23.2938 312.573 23.676 313.049 24.2012 313.106L25.513 313.252C25.388 313.067 25.3146 312.848 25.3376 312.612Z" fill="white"/>
</g>
</g>
</g>
<path d="M32.9576 297.327L34.2965 291.979C34.4255 291.466 34.1144 290.941 33.6025 290.806L28.1358 289.37C27.624 289.235 27.1058 289.543 26.9767 290.056L25.637 295.402L27.8632 299.846C28.0618 300.242 28.5592 300.372 28.9183 300.123L32.9576 297.327Z" fill="#390075"/>
<g opacity="0.7">
<g opacity="0.7">
<g opacity="0.7">
<path opacity="0.7" d="M32.4033 291.127L31.0649 296.472L27.4332 298.988L27.8632 299.846C28.0619 300.242 28.5593 300.372 28.9184 300.123L32.9568 297.325L34.2952 291.98C34.4242 291.466 34.1123 290.941 33.6013 290.807L32.3224 290.471C32.4204 290.669 32.4605 290.897 32.4033 291.127Z" fill="white"/>
</g>
</g>
</g>
<path d="M22.7017 297.055L17.2361 296.449C16.7109 296.391 16.2432 296.77 16.19 297.299L15.6276 302.935C15.5757 303.463 15.9572 303.937 16.4832 303.996L21.9487 304.602L25.9732 301.783C26.3315 301.532 26.3828 301.018 26.0812 300.695L22.7017 297.055Z" fill="#390075"/>
<g opacity="0.7">
<g opacity="0.7">
<g opacity="0.7">
<path opacity="0.7" d="M16.6906 298.448L22.1561 299.054L25.1946 302.328L25.9718 301.783C26.3302 301.533 26.3814 301.019 26.0798 300.696L22.7003 297.056L17.236 296.449C16.7108 296.391 16.2418 296.771 16.19 297.299L16.058 298.617C16.2393 298.494 16.4565 298.422 16.6906 298.448Z" fill="white"/>
</g>
</g>
</g>
<path d="M33.1213 306.488L38.4494 307.888C38.9612 308.023 39.4795 307.715 39.6085 307.201L40.9818 301.715C41.1109 301.202 40.7997 300.677 40.2879 300.542L34.9611 299.142L30.566 301.338C30.175 301.533 30.0499 302.033 30.3016 302.396L33.1213 306.488Z" fill="#390075"/>
<g opacity="0.7">
<g opacity="0.7">
<g opacity="0.7">
<path opacity="0.7" d="M39.2811 305.991L33.9543 304.591L31.4174 300.912L30.5687 301.336C30.1776 301.532 30.0525 302.031 30.3042 302.395L33.1253 306.486L38.4507 307.887C38.9625 308.022 39.4821 307.713 39.6098 307.2L39.931 305.917C39.7347 306.014 39.5089 306.052 39.2811 305.991Z" fill="white"/>
</g>
</g>
</g>
</g>
<defs>
<filter id="filter0_d_2665_2" x="453.013" y="39.173" width="50.3125" height="48.549" filterUnits="userSpaceOnUse" color-interpolation-filters="sRGB">
<feFlood flood-opacity="0" result="BackgroundImageFix"/>
<feColorMatrix in="SourceAlpha" type="matrix" values="0 0 0 0 0 0 0 0 0 0 0 0 0 0 0 0 0 0 127 0" result="hardAlpha"/>
<feOffset dy="3"/>
<feGaussianBlur stdDeviation="4.5"/>
<feComposite in2="hardAlpha" operator="out"/>
<feColorMatrix type="matrix" values="0 0 0 0 0.180392 0 0 0 0 0.160784 0 0 0 0 0.611765 0 0 0 0.7 0"/>
<feBlend mode="normal" in2="BackgroundImageFix" result="effect1_dropShadow_2665_2"/>
<feBlend mode="normal" in="SourceGraphic" in2="effect1_dropShadow_2665_2" result="shape"/>
</filter>
<filter id="filter1_d_2665_2" x="411.294" y="283.176" width="70.8428" height="71.3428" filterUnits="userSpaceOnUse" color-interpolation-filters="sRGB">
<feFlood flood-opacity="0" result="BackgroundImageFix"/>
<feColorMatrix in="SourceAlpha" type="matrix" values="0 0 0 0 0 0 0 0 0 0 0 0 0 0 0 0 0 0 127 0" result="hardAlpha"/>
<feOffset dy="10"/>
<feGaussianBlur stdDeviation="10"/>
<feComposite in2="hardAlpha" operator="out"/>
<feColorMatrix type="matrix" values="0 0 0 0 0.0626668 0 0 0 0 0.0473334 0 0 0 0 0.4 0 0 0 0.35 0"/>
<feBlend mode="normal" in2="BackgroundImageFix" result="effect1_dropShadow_2665_2"/>
<feBlend mode="normal" in="SourceGraphic" in2="effect1_dropShadow_2665_2" result="shape"/>
</filter>
<filter id="filter2_d_2665_2" x="0.721436" y="0.121611" width="57.7861" height="47.8476" filterUnits="userSpaceOnUse" color-interpolation-filters="sRGB">
<feFlood flood-opacity="0" result="BackgroundImageFix"/>
<feColorMatrix in="SourceAlpha" type="matrix" values="0 0 0 0 0 0 0 0 0 0 0 0 0 0 0 0 0 0 127 0" result="hardAlpha"/>
<feOffset dy="4"/>
<feGaussianBlur stdDeviation="5"/>
<feComposite in2="hardAlpha" operator="out"/>
<feColorMatrix type="matrix" values="0 0 0 0 0 0 0 0 0 0.0117647 0 0 0 0 0.0588235 0 0 0 0.5 0"/>
<feBlend mode="normal" in2="BackgroundImageFix" result="effect1_dropShadow_2665_2"/>
<feBlend mode="normal" in="SourceGraphic" in2="effect1_dropShadow_2665_2" result="shape"/>
</filter>
<filter id="filter3_d_2665_2" x="5.62286" y="283.338" width="45.3881" height="44.3935" filterUnits="userSpaceOnUse" color-interpolation-filters="sRGB">
<feFlood flood-opacity="0" result="BackgroundImageFix"/>
<feColorMatrix in="SourceAlpha" type="matrix" values="0 0 0 0 0 0 0 0 0 0 0 0 0 0 0 0 0 0 127 0" result="hardAlpha"/>
<feOffset dy="4"/>
<feGaussianBlur stdDeviation="5"/>
<feComposite in2="hardAlpha" operator="out"/>
<feColorMatrix type="matrix" values="0 0 0 0 0.180392 0 0 0 0 0.160784 0 0 0 0 0.611765 0 0 0 0.4 0"/>
<feBlend mode="normal" in2="BackgroundImageFix" result="effect1_dropShadow_2665_2"/>
<feBlend mode="normal" in="SourceGraphic" in2="effect1_dropShadow_2665_2" result="shape"/>
</filter>
<linearGradient id="paint0_linear_2665_2" x1="464.311" y1="49.7482" x2="524.482" y2="95.0302" gradientUnits="userSpaceOnUse">
<stop stop-color="#2E2594"/>
<stop offset="1" stop-color="#F73B6C"/>
</linearGradient>
<linearGradient id="paint1_linear_2665_2" x1="461.711" y1="294.016" x2="404.768" y2="356.421" gradientUnits="userSpaceOnUse">
<stop stop-color="#2E2594"/>
<stop offset="1" stop-color="#F73B6C"/>
</linearGradient>
<linearGradient id="paint2_linear_2665_2" x1="33.0093" y1="5.18028" x2="22.9581" y2="77.6985" gradientUnits="userSpaceOnUse">
<stop stop-color="#2E2594"/>
<stop offset="1" stop-color="#F73B6C"/>
</linearGradient>
</defs>
</svg>
