<svg width="520" height="467" viewBox="0 0 520 467" fill="none" xmlns="http://www.w3.org/2000/svg">
<path opacity="0.3" d="M286.298 466.752C414.933 466.752 519.213 362.472 519.213 233.837C519.213 105.201 414.933 0.921928 286.298 0.921928C157.662 0.921928 53.3829 105.201 53.3829 233.837C53.3829 362.472 157.662 466.752 286.298 466.752Z" fill="#B100A0"/>
<path opacity="0.3" d="M233.628 466.752C362.263 466.752 466.543 362.472 466.543 233.837C466.543 105.201 362.263 0.921928 233.628 0.921928C104.992 0.921928 0.712769 105.201 0.712769 233.837C0.712769 362.472 104.992 466.752 233.628 466.752Z" fill="#B100A0"/>
<path d="M261.205 466.752C389.84 466.752 494.12 362.472 494.12 233.837C494.12 105.201 389.84 0.921928 261.205 0.921928C132.57 0.921928 28.2901 105.201 28.2901 233.837C28.2901 362.472 132.57 466.752 261.205 466.752Z" fill="#B100A0"/>
</svg>
