<svg width="123" height="109" viewBox="0 0 123 109" fill="none" xmlns="http://www.w3.org/2000/svg">
<g clip-path="url(#clip0_24_2702)">
<path d="M89.821 51.7652C88.9497 51.6697 88.3688 51.2306 88.3688 50.3269C88.3625 49.4359 88.9118 48.895 89.7957 48.9013C90.6165 48.9013 91.1342 49.4168 91.1784 50.2314C91.2289 51.1351 90.6733 51.6124 89.821 51.7652Z" fill="#FFA2A4"/>
<path d="M91.0711 17.4311C91.008 16.6802 90.4839 16.1901 89.7263 16.2347C88.9118 16.2792 88.4068 16.8265 88.4762 17.6602C88.5393 18.4112 89.0634 18.8121 89.8147 18.8821C90.6228 18.7358 91.1406 18.2712 91.0711 17.4311Z" fill="#FFA2A4"/>
<path d="M81.8658 0.146371C81.045 0.108187 80.5083 0.617311 80.4831 1.44464C80.4641 2.20832 80.9566 2.72381 81.7016 2.76199C82.5287 2.80654 82.9833 2.27833 83.1096 1.47009C83.0275 0.706407 82.6171 0.184556 81.8658 0.146371Z" fill="#FFA2A4"/>
<path d="M88.5583 9.56516C88.5961 10.3607 89.0949 10.7743 89.8652 10.7234C90.5786 10.6789 90.989 10.227 90.9827 9.50788C90.9827 8.71238 90.5155 8.31144 89.7452 8.26053C88.9686 8.34326 88.5204 8.77602 88.5583 9.56516Z" fill="#FFA2A4"/>
<path d="M97.7384 49.0541C96.9618 49.0668 96.4946 49.5505 96.5009 50.3269C96.5072 51.1097 96.9871 51.5806 97.7636 51.5742C98.5402 51.5679 98.9506 51.0778 99.0138 50.3014C98.9443 49.525 98.5213 49.0477 97.7384 49.0541Z" fill="#FFA2A4"/>
<path d="M107.12 33.9204C107.102 33.2649 106.691 32.8385 106.047 32.8385C105.327 32.8385 104.892 33.2967 104.936 34.0222C104.98 34.665 105.428 35.0086 106.136 35.0659C106.685 34.9132 107.139 34.5886 107.12 33.9204Z" fill="#FFA2A4"/>
<path d="M106.142 49.1941C105.416 49.1241 104.955 49.5377 104.904 50.2696C104.86 50.9378 105.264 51.3769 105.908 51.4406C106.641 51.517 107.038 51.0715 107.165 50.3842C107.127 49.7032 106.792 49.2514 106.142 49.1941Z" fill="#FFA2A4"/>
<path d="M104.961 25.9144C104.968 26.5126 105.365 26.9199 105.946 26.9581C106.609 27.0027 107.051 26.589 107.083 25.9335C107.121 25.2653 106.672 24.9089 106.028 24.7943C105.391 24.8898 104.955 25.2398 104.961 25.9144Z" fill="#FFA2A4"/>
<path d="M104.904 41.9645C104.911 42.6964 105.353 43.1292 106.079 43.1037C106.729 43.0783 107.139 42.6519 107.139 41.99C107.139 41.2518 106.679 40.889 105.971 40.819C105.334 40.9463 104.904 41.2963 104.904 41.9645Z" fill="#FFA2A4"/>
<path d="M97.8394 0.426399C97.1891 0.381851 96.7598 0.78915 96.7345 1.44465C96.7156 2.0365 97.107 2.4438 97.6753 2.48199C98.3256 2.52653 98.6918 2.11287 98.8054 1.43828C98.7233 0.884611 98.414 0.464584 97.8394 0.426399Z" fill="#FFA2A4"/>
<path d="M88.6341 1.41282C88.6151 2.13195 89.0192 2.57744 89.7326 2.60289C90.4461 2.62835 90.8817 2.22105 90.9133 1.49555C90.9449 0.770048 90.5155 0.388205 89.7326 0.267288C89.1392 0.369113 88.6467 0.668223 88.6341 1.41282Z" fill="#FFA2A4"/>
<path d="M96.665 9.49516C96.665 10.1507 97.0754 10.5834 97.7194 10.6025C98.4392 10.6152 98.8811 10.1634 98.8496 9.43789C98.8243 8.78875 98.376 8.4451 97.732 8.37509C97.0944 8.48964 96.665 8.83967 96.665 9.49516Z" fill="#FFA2A4"/>
<path d="M96.6145 17.4884C96.583 18.2075 96.9807 18.6594 97.6942 18.6976C98.4076 18.7358 98.8496 18.3285 98.8938 17.6093C98.938 16.8838 98.5086 16.4956 97.8268 16.3811C97.1133 16.4192 96.6524 16.7629 96.6145 17.4884Z" fill="#FFA2A4"/>
<path d="M105.012 17.6793C105.081 18.2584 105.498 18.6339 106.079 18.583C106.716 18.5257 107.114 18.093 107.032 17.4311C106.963 16.852 106.546 16.5465 105.971 16.5083C105.34 16.642 104.93 17.0111 105.012 17.6793Z" fill="#FFA2A4"/>
<path d="M106.129 8.6042C105.593 8.55329 105.207 8.79512 105.144 9.36152C105.081 9.9661 105.353 10.367 105.99 10.3989C106.54 10.4243 106.855 10.1252 106.918 9.57153C106.925 9.02423 106.685 8.66148 106.129 8.6042Z" fill="#FFA2A4"/>
<path d="M106.849 1.58465C106.931 1.03734 106.628 0.674593 106.091 0.617316C105.611 0.566404 105.277 0.85915 105.207 1.32373C105.125 1.8774 105.441 2.18924 105.952 2.30379C106.445 2.29742 106.779 2.05559 106.849 1.58465Z" fill="#FFA2A4"/>
<path d="M114.899 34.0349C114.943 33.494 114.703 33.1058 114.141 33.0485C113.535 32.9849 113.144 33.2649 113.118 33.914C113.099 34.4677 113.396 34.7859 113.939 34.8432C114.495 34.8432 114.848 34.595 114.899 34.0349Z" fill="#FFA2A4"/>
<path d="M114.091 41.0863C113.548 41.0481 113.175 41.309 113.125 41.8691C113.074 42.48 113.365 42.8682 114.002 42.881C114.558 42.8937 114.855 42.5818 114.912 41.9518C114.886 41.4872 114.653 41.1181 114.091 41.0863Z" fill="#FFA2A4"/>
<path d="M114.836 17.6602C114.899 17.1129 114.596 16.7565 114.047 16.7183C113.56 16.6802 113.238 16.9856 113.182 17.4502C113.118 17.9975 113.44 18.3094 113.958 18.4112C114.457 18.3857 114.785 18.1248 114.836 17.6602Z" fill="#FFA2A4"/>
<path d="M114.065 49.4168C113.523 49.3914 113.163 49.6587 113.125 50.2187C113.081 50.836 113.39 51.2051 114.028 51.2051C114.583 51.2051 114.874 50.8869 114.912 50.3205C114.893 49.7859 114.627 49.4486 114.065 49.4168Z" fill="#FFA2A4"/>
<path d="M114.874 25.8571C114.861 25.3544 114.583 25.0489 114.091 25.0171C113.535 24.9789 113.182 25.2653 113.156 25.838C113.131 26.4108 113.447 26.7099 114.084 26.7672C114.545 26.7036 114.886 26.4426 114.874 25.8571Z" fill="#FFA2A4"/>
<path d="M113.276 9.45697C113.245 9.88973 113.529 10.1952 113.933 10.2334C114.419 10.2779 114.741 9.97246 114.741 9.47607C114.735 9.05604 114.438 8.81421 113.971 8.7442C113.611 8.82057 113.308 9.03058 113.276 9.45697Z" fill="#FFA2A4"/>
<path d="M121.951 42.7219C122.381 42.7537 122.684 42.4673 122.721 42.06C122.766 41.57 122.463 41.2454 121.97 41.2454C121.553 41.2518 121.314 41.5509 121.25 41.9709C121.295 42.3973 121.534 42.6837 121.951 42.7219Z" fill="#FFA2A4"/>
<path d="M122.071 49.5823C121.642 49.525 121.332 49.805 121.276 50.206C121.206 50.696 121.503 51.0269 121.989 51.0524C122.412 51.0715 122.652 50.7724 122.74 50.346C122.715 49.9259 122.475 49.6332 122.071 49.5823Z" fill="#FFA2A4"/>
<path d="M113.99 0.87187C113.674 0.878234 113.466 1.05643 113.434 1.37463C113.403 1.75011 113.573 2.01103 113.964 2.03649C114.35 2.06195 114.558 1.8583 114.596 1.45736C114.571 1.07552 114.381 0.859142 113.99 0.87187Z" fill="#FFA2A4"/>
<path d="M121.926 25.3035C121.604 25.3289 121.434 25.5326 121.421 25.8508C121.408 26.239 121.61 26.4681 122.002 26.4617C122.393 26.4617 122.576 26.2326 122.583 25.8571C122.532 25.4562 122.305 25.2716 121.926 25.3035Z" fill="#FFA2A4"/>
<path d="M122.614 34.0349C122.658 33.5958 122.456 33.3094 121.989 33.3031C121.604 33.3031 121.389 33.5131 121.37 33.9013C121.351 34.2895 121.547 34.5059 121.977 34.5695C122.298 34.5695 122.576 34.4295 122.614 34.0349Z" fill="#FFA2A4"/>
<path d="M91.1532 33.9904C91.1785 33.1058 90.6418 32.5457 89.7579 32.5394C88.9435 32.533 88.4194 33.0612 88.3878 33.8758C88.3563 34.7732 88.9245 35.2377 89.7642 35.365C90.5787 35.2441 91.1343 34.8113 91.1532 33.9904Z" fill="#FFA2A4"/>
<path d="M88.4131 25.7935C88.35 26.6144 88.8551 27.1808 89.6443 27.2508C90.5219 27.3336 91.0965 26.7863 91.128 25.908C91.1596 25.0871 90.6103 24.6416 89.8211 24.4825C89.0256 24.5589 88.4763 24.9852 88.4131 25.7935Z" fill="#FFA2A4"/>
<path d="M97.7131 24.6607C96.9997 24.6798 96.5704 25.1062 96.5451 25.8189C96.5199 26.6017 96.9492 27.0854 97.7321 27.1045C98.515 27.1236 98.9254 26.659 98.9885 25.8762C98.9127 25.0934 98.496 24.6416 97.7131 24.6607Z" fill="#FFA2A4"/>
<path d="M99.0074 41.9964C99.0137 41.2136 98.5465 40.7299 97.7699 40.7235C96.9934 40.7108 96.5135 41.1881 96.5072 41.9709C96.4946 42.7537 96.9681 43.1801 97.7826 43.2692C98.5086 43.1864 99.0011 42.7855 99.0074 41.9964Z" fill="#FFA2A4"/>
<path d="M97.7446 32.673C96.968 32.6858 96.5008 33.1631 96.5071 33.9458C96.5135 34.7286 96.9933 35.1995 97.7699 35.1932C98.5465 35.1868 98.9568 34.6968 99.02 33.9204C98.9442 33.1376 98.5212 32.6667 97.7446 32.673Z" fill="#FFA2A4"/>
<path d="M83.1537 9.5397C83.179 8.71874 82.6613 8.17143 81.8657 8.13325C80.9881 8.09507 80.4262 8.64874 80.4325 9.53334C80.4389 10.3479 80.9945 10.7871 81.79 10.908C82.5792 10.7934 83.1285 10.3607 83.1537 9.5397Z" fill="#FFA2A4"/>
<path d="M72.4205 1.38736C72.3953 2.27833 72.9256 2.83836 73.8095 2.84473C74.6177 2.85745 75.148 2.3356 75.1859 1.521C75.2238 0.623673 74.6619 0.159098 73.7401 0.0190887C73.0267 0.165462 72.4458 0.560033 72.4205 1.38736Z" fill="#FFA2A4"/>
<path d="M91.1531 42.0918C91.2163 41.2072 90.6859 40.6217 89.8083 40.5899C88.9307 40.5644 88.3814 41.1245 88.3877 42.0154C88.3941 42.8364 88.937 43.2755 89.7262 43.4092C90.5407 43.3264 91.0963 42.9 91.1531 42.0918Z" fill="#FFA2A4"/>
<path d="M81.7395 16.1329C80.9251 16.1583 80.4074 16.6738 80.3821 17.4884C80.3568 18.3794 80.8809 18.9394 81.7648 18.9585C82.6613 18.9776 83.1096 18.4048 83.2232 17.533C83.097 16.6674 82.6361 16.1074 81.7395 16.1329Z" fill="#FFA2A4"/>
<path d="M81.8343 24.4316C80.9377 24.4125 80.3884 24.8961 80.3506 25.8062C80.3127 26.7799 80.8367 27.3399 81.8153 27.3399C82.7245 27.3399 83.1728 26.7863 83.2548 25.8953C83.1854 25.0043 82.7434 24.4507 81.8343 24.4316Z" fill="#FFA2A4"/>
<path d="M73.8538 8.05053C72.8815 8.0378 72.3385 8.5851 72.3701 9.56517C72.3953 10.4752 72.932 10.9716 73.8348 10.9589C74.744 10.9462 75.1923 10.4116 75.2807 9.43789C75.1797 8.64238 74.7693 8.06325 73.8538 8.05053Z" fill="#FFA2A4"/>
<path d="M65.5135 2.85899e-06C64.6106 0.019095 64.0929 0.534583 64.0929 1.44464C64.0929 2.43107 64.6611 2.95292 65.6271 2.90837C66.5363 2.86382 66.9593 2.29106 66.9972 1.381C66.8898 0.502763 66.4163 -0.0190893 65.5135 2.85899e-06Z" fill="#FFA2A4"/>
<path d="M81.8153 40.4881C80.9251 40.469 80.3695 40.9463 80.3126 41.85C80.2495 42.8046 80.7167 43.4219 81.6953 43.4728C82.655 43.5237 83.1917 43.0082 83.2927 42.0409C83.2485 41.0799 82.7939 40.5008 81.8153 40.4881Z" fill="#FFA2A4"/>
<path d="M80.3379 33.7422C80.2496 34.7031 80.6915 35.3268 81.6764 35.4032C82.5604 35.4732 83.1538 35.0341 83.2485 34.1177C83.3496 33.1503 82.876 32.5839 81.8974 32.4312C81.0388 32.4566 80.42 32.8194 80.3379 33.7422Z" fill="#FFA2A4"/>
<path d="M81.7648 48.8186C80.8682 48.825 80.3379 49.3277 80.3063 50.2314C80.2684 51.1988 80.7672 51.7779 81.7395 51.8097C82.7118 51.8352 83.2169 51.2942 83.2864 50.3269C83.2296 49.3659 82.7371 48.8122 81.7648 48.8186Z" fill="#FFA2A4"/>
<path d="M72.3196 17.5266C72.307 18.4239 72.7805 18.984 73.677 19.0412C74.6241 19.1049 75.2365 18.6276 75.287 17.6411C75.3375 16.6738 74.8261 16.1329 73.8664 16.0374C72.9068 16.0756 72.3385 16.5402 72.3196 17.5266Z" fill="#FFA2A4"/>
<path d="M65.6523 7.98688C64.7052 7.92324 64.0928 8.40691 64.0297 9.38061C63.9666 10.3352 64.4464 10.9525 65.4124 11.0162C66.3594 11.0798 66.9277 10.5898 67.0539 9.61608C67.0539 8.6742 66.6246 8.05052 65.6523 7.98688Z" fill="#FFA2A4"/>
<path d="M75.3754 25.978C75.4196 24.9852 74.8135 24.3298 73.8285 24.3043C72.9067 24.2788 72.288 24.8771 72.2375 25.7935C72.187 26.7926 72.8057 27.3527 73.7843 27.4927C74.6998 27.3972 75.3312 26.8945 75.3754 25.978Z" fill="#FFA2A4"/>
<path d="M73.8096 32.323C72.8941 32.3103 72.2691 32.9085 72.2059 33.8185C72.1428 34.8177 72.7489 35.4859 73.7212 35.5432C74.7061 35.6005 75.2617 34.9577 75.4322 33.9586C75.3249 32.9912 74.8008 32.3357 73.8096 32.323Z" fill="#FFA2A4"/>
<path d="M65.5703 15.891C64.5854 15.9292 63.9982 16.502 63.8909 17.4757C63.7898 18.3539 64.6864 19.2767 65.564 19.2067C66.5426 19.1303 67.0666 18.5194 67.1866 17.6284C67.1929 16.712 66.4037 15.8592 65.5703 15.891Z" fill="#FFA2A4"/>
<path d="M73.8475 48.6595C72.8625 48.6913 72.2754 49.2641 72.1554 50.2378C72.0544 51.1097 72.9509 52.0388 73.8222 51.9752C74.8008 51.8988 75.3248 51.2942 75.4511 50.4032C75.4637 49.4868 74.6809 48.634 73.8475 48.6595Z" fill="#FFA2A4"/>
<path d="M73.7717 43.6255C74.7504 43.6446 75.3438 43.021 75.4512 42.0473C75.5459 41.169 74.6493 40.2462 73.7717 40.3226C72.7931 40.4053 72.2691 41.0099 72.1428 41.9836C72.2691 42.9509 72.7931 43.6064 73.7717 43.6255Z" fill="#FFA2A4"/>
<path d="M63.8599 25.8889C63.8536 26.8754 64.466 27.5181 65.432 27.5691C66.4801 27.6263 67.1556 27.0027 67.2062 25.9526C67.2567 24.8898 66.5874 24.3298 65.5646 24.1643C64.5418 24.2916 63.8725 24.8262 63.8599 25.8889Z" fill="#FFA2A4"/>
<path d="M65.4886 32.2339C64.4469 32.2721 63.8155 32.9339 63.8471 33.984C63.8786 35.0341 64.5353 35.6641 65.5833 35.6387C66.6314 35.6132 67.1554 34.9195 67.2628 33.8822C67.0923 32.8639 66.543 32.1957 65.4886 32.2339Z" fill="#FFA2A4"/>
<path d="M65.5323 40.2653C64.4779 40.2717 63.8845 40.889 63.8213 41.9454C63.7645 42.9573 64.6042 43.7783 65.6018 43.7083C66.6625 43.6319 67.1802 42.9891 67.2686 41.9327C67.136 40.9145 66.5993 40.2526 65.5323 40.2653Z" fill="#FFA2A4"/>
<path d="M63.8213 50.2696C63.834 51.3324 64.4022 51.9561 65.4503 52.0452C66.4478 52.1279 67.2875 51.3069 67.2433 50.3014C67.1991 49.2259 66.5741 48.6977 65.7281 48.5895C64.5979 48.5768 63.815 49.315 63.8213 50.2696Z" fill="#FFA2A4"/>
</g>
<g clip-path="url(#clip1_24_2702)">
<path d="M32.9194 51.7652C33.7907 51.6697 34.3715 51.2306 34.3715 50.3269C34.3778 49.4359 33.8286 48.895 32.9446 48.9013C32.1239 48.9013 31.6061 49.4168 31.5619 50.2314C31.5114 51.1351 32.067 51.6124 32.9194 51.7652Z" fill="#FFA2A4"/>
<path d="M31.6692 17.4311C31.7324 16.6802 32.2564 16.1901 33.014 16.2347C33.8285 16.2792 34.3336 16.8265 34.2642 17.6602C34.201 18.4112 33.677 18.8121 32.9257 18.8821C32.1175 18.7358 31.5998 18.2712 31.6692 17.4311Z" fill="#FFA2A4"/>
<path d="M40.8746 0.146371C41.6954 0.108187 42.232 0.617311 42.2573 1.44464C42.2762 2.20832 41.7838 2.72381 41.0387 2.76199C40.2117 2.80654 39.7571 2.27833 39.6308 1.47009C39.7129 0.706407 40.1233 0.184556 40.8746 0.146371Z" fill="#FFA2A4"/>
<path d="M34.1821 9.56516C34.1442 10.3607 33.6454 10.7743 32.8752 10.7234C32.1617 10.6789 31.7513 10.227 31.7577 9.50788C31.7577 8.71238 32.2249 8.31144 32.9951 8.26053C33.7717 8.34326 34.22 8.77602 34.1821 9.56516Z" fill="#FFA2A4"/>
<path d="M25.0021 49.0541C25.7787 49.0668 26.2459 49.5505 26.2396 50.3269C26.2332 51.1097 25.7534 51.5806 24.9768 51.5742C24.2002 51.5679 23.7899 51.0778 23.7267 50.3014C23.7962 49.525 24.2192 49.0477 25.0021 49.0541Z" fill="#FFA2A4"/>
<path d="M15.6199 33.9204C15.6388 33.2649 16.0492 32.8385 16.6932 32.8385C17.413 32.8385 17.8486 33.2967 17.8044 34.0222C17.7602 34.665 17.312 35.0086 16.6048 35.0659C16.0555 34.9132 15.601 34.5886 15.6199 33.9204Z" fill="#FFA2A4"/>
<path d="M16.5986 49.1941C17.3247 49.1241 17.7856 49.5377 17.8361 50.2696C17.8803 50.9378 17.4762 51.3769 16.8322 51.4406C16.0998 51.517 15.702 51.0715 15.5758 50.3842C15.6136 49.7032 15.9483 49.2514 16.5986 49.1941Z" fill="#FFA2A4"/>
<path d="M17.7792 25.9144C17.7729 26.5126 17.3752 26.9199 16.7943 26.9581C16.1314 27.0027 15.6894 26.589 15.6578 25.9335C15.62 25.2653 16.0682 24.9089 16.7122 24.7943C17.3499 24.8898 17.7855 25.2398 17.7792 25.9144Z" fill="#FFA2A4"/>
<path d="M17.8361 41.9645C17.8297 42.6964 17.3878 43.1292 16.6617 43.1037C16.0114 43.0783 15.601 42.6519 15.601 41.99C15.601 41.2518 16.0619 40.889 16.769 40.819C17.4067 40.9463 17.8361 41.2963 17.8361 41.9645Z" fill="#FFA2A4"/>
<path d="M24.901 0.426399C25.5514 0.381851 25.9807 0.78915 26.0059 1.44465C26.0249 2.0365 25.6334 2.4438 25.0652 2.48199C24.4149 2.52653 24.0487 2.11287 23.9351 1.43828C24.0171 0.884611 24.3265 0.464584 24.901 0.426399Z" fill="#FFA2A4"/>
<path d="M34.1063 1.41282C34.1252 2.13195 33.7212 2.57744 33.0077 2.60289C32.2943 2.62835 31.8586 2.22105 31.8271 1.49555C31.7955 0.770048 32.2248 0.388205 33.0077 0.267288C33.6012 0.369113 34.0937 0.668223 34.1063 1.41282Z" fill="#FFA2A4"/>
<path d="M26.0753 9.49516C26.0753 10.1507 25.6649 10.5834 25.0209 10.6025C24.3012 10.6152 23.8592 10.1634 23.8908 9.43789C23.916 8.78875 24.3643 8.4451 25.0083 8.37509C25.646 8.48964 26.0753 8.83967 26.0753 9.49516Z" fill="#FFA2A4"/>
<path d="M26.1258 17.4884C26.1574 18.2075 25.7596 18.6594 25.0462 18.6976C24.3327 18.7358 23.8908 18.3285 23.8466 17.6093C23.8024 16.8838 24.2317 16.4956 24.9136 16.3811C25.627 16.4192 26.0879 16.7629 26.1258 17.4884Z" fill="#FFA2A4"/>
<path d="M17.7287 17.6793C17.6593 18.2584 17.2426 18.6339 16.6617 18.583C16.024 18.5257 15.6263 18.093 15.7083 17.4311C15.7778 16.852 16.1945 16.5465 16.769 16.5083C17.4004 16.642 17.8108 17.0111 17.7287 17.6793Z" fill="#FFA2A4"/>
<path d="M16.6111 8.6042C17.1478 8.55329 17.5329 8.79512 17.5961 9.36152C17.6592 9.9661 17.3877 10.367 16.75 10.3989C16.2007 10.4243 15.8851 10.1252 15.8219 9.57153C15.8156 9.02423 16.0555 8.66148 16.6111 8.6042Z" fill="#FFA2A4"/>
<path d="M15.8914 1.58465C15.8093 1.03734 16.1124 0.674593 16.6491 0.617316C17.1289 0.566404 17.4635 0.85915 17.533 1.32373C17.615 1.8774 17.2994 2.18924 16.788 2.30379C16.2955 2.29742 15.9609 2.05559 15.8914 1.58465Z" fill="#FFA2A4"/>
<path d="M7.8415 34.0349C7.7973 33.494 8.03722 33.1058 8.59914 33.0485C9.20525 32.9849 9.59669 33.2649 9.62195 33.914C9.64089 34.4677 9.34415 34.7859 8.80118 34.8432C8.24557 34.8432 7.892 34.595 7.8415 34.0349Z" fill="#FFA2A4"/>
<path d="M8.64961 41.0863C9.19259 41.0481 9.5651 41.309 9.61561 41.8691C9.66612 42.48 9.37568 42.8682 8.738 42.881C8.1824 42.8937 7.88566 42.5818 7.82884 41.9518C7.85409 41.4872 8.0877 41.1181 8.64961 41.0863Z" fill="#FFA2A4"/>
<path d="M7.90461 17.6602C7.84147 17.1129 8.14453 16.7565 8.69381 16.7184C9.17996 16.6802 9.50196 16.9857 9.55878 17.4502C9.62192 17.9975 9.29992 18.3094 8.7822 18.4112C8.28343 18.3857 7.95512 18.1248 7.90461 17.6602Z" fill="#FFA2A4"/>
<path d="M8.67486 49.4168C9.21784 49.3914 9.57772 49.6587 9.6156 50.2187C9.6598 50.836 9.35043 51.2051 8.71275 51.2051C8.15715 51.2051 7.86672 50.8869 7.82883 50.3205C7.84778 49.7859 8.11295 49.4486 8.67486 49.4168Z" fill="#FFA2A4"/>
<path d="M7.86674 25.8571C7.87936 25.3544 8.15716 25.0489 8.64963 25.0171C9.20523 24.9789 9.55879 25.2653 9.58405 25.838C9.6093 26.4108 9.29362 26.7099 8.65594 26.7672C8.19505 26.7036 7.85411 26.4426 7.86674 25.8571Z" fill="#FFA2A4"/>
<path d="M9.46416 9.45697C9.49573 9.88973 9.21161 10.1952 8.80754 10.2334C8.32139 10.2779 7.99939 9.97246 7.99939 9.47607C8.0057 9.05604 8.30245 8.81421 8.76966 8.7442C9.12954 8.82057 9.43259 9.03058 9.46416 9.45697Z" fill="#FFA2A4"/>
<path d="M0.789178 42.7219C0.359852 42.7537 0.056798 42.4673 0.0189162 42.06C-0.025279 41.57 0.277776 41.2454 0.770238 41.2454C1.18694 41.2518 1.42685 41.5509 1.48999 41.9709C1.44579 42.3973 1.20588 42.6837 0.789178 42.7219Z" fill="#FFA2A4"/>
<path d="M0.669178 49.5823C1.0985 49.525 1.40787 49.805 1.4647 50.206C1.53415 50.696 1.23741 51.0269 0.751258 51.0524C0.328245 51.0715 0.0883259 50.7724 -6.48499e-05 50.346C0.0251896 49.9259 0.265106 49.6332 0.669178 49.5823Z" fill="#FFA2A4"/>
<path d="M8.75064 0.87187C9.06633 0.878234 9.27468 1.05643 9.30625 1.37463C9.33781 1.75011 9.16735 2.01103 8.7759 2.03649C8.39076 2.06195 8.18241 1.8583 8.14453 1.45736C8.16978 1.07552 8.35919 0.859142 8.75064 0.87187Z" fill="#FFA2A4"/>
<path d="M0.814422 25.3035C1.13642 25.3289 1.30688 25.5326 1.31951 25.8508C1.33214 26.239 1.1301 26.4681 0.738657 26.4617C0.347211 26.4617 0.164116 26.2326 0.157803 25.8571C0.208312 25.4562 0.435603 25.2716 0.814422 25.3035Z" fill="#FFA2A4"/>
<path d="M0.126171 34.0349C0.0819755 33.5958 0.284016 33.3094 0.751227 33.3031C1.13636 33.3031 1.35102 33.5131 1.36996 33.9013C1.3889 34.2895 1.19318 34.5059 0.763853 34.5695C0.441856 34.5695 0.164053 34.4295 0.126171 34.0349Z" fill="#FFA2A4"/>
<path d="M31.5871 33.9904C31.5619 33.1058 32.0985 32.5457 32.9824 32.5394C33.7969 32.533 34.3209 33.0612 34.3525 33.8758C34.3841 34.7731 33.8158 35.2377 32.9761 35.365C32.1617 35.2441 31.6061 34.8113 31.5871 33.9904Z" fill="#FFA2A4"/>
<path d="M34.3273 25.7935C34.3905 26.6144 33.8854 27.1808 33.0962 27.2508C32.2186 27.3336 31.644 26.7863 31.6125 25.908C31.5809 25.0871 32.1302 24.6416 32.9194 24.4825C33.7149 24.5589 34.2642 24.9852 34.3273 25.7935Z" fill="#FFA2A4"/>
<path d="M25.0273 24.6607C25.7408 24.6798 26.1701 25.1062 26.1954 25.8189C26.2206 26.6017 25.7913 27.0854 25.0084 27.1045C24.2255 27.1236 23.8151 26.659 23.752 25.8762C23.8277 25.0934 24.2444 24.6416 25.0273 24.6607Z" fill="#FFA2A4"/>
<path d="M23.7329 41.9964C23.7266 41.2136 24.1938 40.7299 24.9704 40.7235C25.747 40.7108 26.2268 41.1881 26.2332 41.9709C26.2458 42.7537 25.7723 43.1801 24.9578 43.2692C24.2317 43.1864 23.7393 42.7855 23.7329 41.9964Z" fill="#FFA2A4"/>
<path d="M24.9957 32.673C25.7723 32.6858 26.2395 33.1631 26.2332 33.9458C26.2269 34.7286 25.7471 35.1995 24.9705 35.1932C24.1939 35.1868 23.7835 34.6968 23.7204 33.9204C23.7961 33.1376 24.2192 32.6667 24.9957 32.673Z" fill="#FFA2A4"/>
<path d="M39.5866 9.5397C39.5614 8.71874 40.0791 8.17143 40.8746 8.13325C41.7522 8.09507 42.3141 8.64874 42.3078 9.53334C42.3015 10.3479 41.7459 10.7871 40.9504 10.908C40.1612 10.7934 39.6119 10.3607 39.5866 9.5397Z" fill="#FFA2A4"/>
<path d="M50.3198 1.38736C50.3451 2.27833 49.8147 2.83836 48.9308 2.84473C48.1227 2.85745 47.5923 2.3356 47.5544 1.521C47.5165 0.623673 48.0785 0.159098 49.0003 0.0190887C49.7137 0.165462 50.2946 0.560033 50.3198 1.38736Z" fill="#FFA2A4"/>
<path d="M31.5872 42.0918C31.5241 41.2072 32.0544 40.6217 32.932 40.5899C33.8096 40.5644 34.3589 41.1245 34.3526 42.0154C34.3463 42.8364 33.8033 43.2755 33.0141 43.4092C32.1997 43.3264 31.644 42.9 31.5872 42.0918Z" fill="#FFA2A4"/>
<path d="M41.0008 16.1329C41.8153 16.1583 42.333 16.6738 42.3583 17.4884C42.3835 18.3794 41.8595 18.9394 40.9756 18.9585C40.079 18.9776 39.6308 18.4048 39.5171 17.533C39.6434 16.6674 40.1043 16.1074 41.0008 16.1329Z" fill="#FFA2A4"/>
<path d="M40.9061 24.4316C41.8026 24.4125 42.3519 24.8961 42.3898 25.8062C42.4277 26.7799 41.9037 27.3399 40.925 27.3399C40.0159 27.3399 39.5676 26.7863 39.4855 25.8953C39.555 25.0043 39.9969 24.4507 40.9061 24.4316Z" fill="#FFA2A4"/>
<path d="M48.8866 8.05053C49.8589 8.0378 50.4018 8.58511 50.3703 9.56517C50.345 10.4752 49.8084 10.9716 48.9055 10.9589C47.9963 10.9462 47.5481 10.4116 47.4597 9.43789C47.5607 8.64238 47.9711 8.06325 48.8866 8.05053Z" fill="#FFA2A4"/>
<path d="M57.227 2.85899e-06C58.1299 0.019095 58.6476 0.534583 58.6476 1.44464C58.6476 2.43107 58.0794 2.95292 57.1134 2.90837C56.2042 2.86382 55.7812 2.29106 55.7433 1.381C55.8506 0.502763 56.3242 -0.0190893 57.227 2.85899e-06Z" fill="#FFA2A4"/>
<path d="M40.9251 40.4881C41.8153 40.469 42.3709 40.9463 42.4277 41.85C42.4908 42.8046 42.0236 43.4219 41.045 43.4728C40.0853 43.5237 39.5487 43.0082 39.4477 42.0409C39.4919 41.0799 39.9464 40.5008 40.9251 40.4881Z" fill="#FFA2A4"/>
<path d="M42.4025 33.7422C42.4909 34.7031 42.049 35.3268 41.064 35.4032C40.1801 35.4732 39.5866 35.0341 39.4919 34.1177C39.3909 33.1503 39.8644 32.5839 40.8431 32.4312C41.7017 32.4566 42.3205 32.8194 42.4025 33.7422Z" fill="#FFA2A4"/>
<path d="M40.9756 48.8186C41.8721 48.825 42.4025 49.3277 42.434 50.2314C42.4719 51.1988 41.9731 51.7779 41.0008 51.8097C40.0285 51.8352 39.5234 51.2942 39.454 50.3269C39.5108 49.3659 40.0033 48.8122 40.9756 48.8186Z" fill="#FFA2A4"/>
<path d="M50.4209 17.5266C50.4335 18.4239 49.96 18.984 49.0635 19.0412C48.1164 19.1049 47.504 18.6276 47.4535 17.6411C47.403 16.6738 47.9144 16.1329 48.874 16.0374C49.8337 16.0756 50.402 16.5402 50.4209 17.5266Z" fill="#FFA2A4"/>
<path d="M57.0881 7.98688C58.0351 7.92324 58.6475 8.40691 58.7107 9.38061C58.7738 10.3352 58.294 10.9525 57.328 11.0162C56.3809 11.0798 55.8127 10.5898 55.6864 9.61608C55.6864 8.6742 56.1158 8.05053 57.0881 7.98688Z" fill="#FFA2A4"/>
<path d="M47.3651 25.978C47.3209 24.9852 47.927 24.3298 48.9119 24.3043C49.8337 24.2788 50.4525 24.8771 50.503 25.7935C50.5535 26.7926 49.9348 27.3527 48.9561 27.4927C48.0407 27.3972 47.4093 26.8945 47.3651 25.978Z" fill="#FFA2A4"/>
<path d="M48.9308 32.323C49.8463 32.3103 50.4713 32.9085 50.5344 33.8185C50.5976 34.8177 49.9915 35.4859 49.0192 35.5432C48.0342 35.6005 47.4786 34.9577 47.3082 33.9586C47.4155 32.9912 47.9395 32.3357 48.9308 32.323Z" fill="#FFA2A4"/>
<path d="M57.1702 15.891C58.1551 15.9292 58.7423 16.502 58.8496 17.4757C58.9506 18.3539 58.0541 19.2767 57.1765 19.2067C56.1979 19.1303 55.6738 18.5194 55.5539 17.6284C55.5476 16.712 56.3368 15.8592 57.1702 15.891Z" fill="#FFA2A4"/>
<path d="M48.8929 48.6595C49.8778 48.6913 50.465 49.2641 50.585 50.2378C50.686 51.1097 49.7894 52.0388 48.9182 51.9752C47.9395 51.8988 47.4155 51.2942 47.2892 50.4032C47.2766 49.4868 48.0595 48.634 48.8929 48.6595Z" fill="#FFA2A4"/>
<path d="M48.9687 43.6255C47.9901 43.6446 47.3966 43.021 47.2893 42.0473C47.1946 41.169 48.0911 40.2462 48.9687 40.3226C49.9473 40.4053 50.4714 41.0099 50.5977 41.9836C50.4714 42.9509 49.9473 43.6064 48.9687 43.6255Z" fill="#FFA2A4"/>
<path d="M58.8806 25.8889C58.8869 26.8754 58.2745 27.5181 57.3085 27.5691C56.2604 27.6263 55.5848 27.0027 55.5343 25.9526C55.4838 24.8898 56.1531 24.3298 57.1759 24.1643C58.1987 24.2916 58.8679 24.8262 58.8806 25.8889Z" fill="#FFA2A4"/>
<path d="M57.2518 32.2339C58.2936 32.2721 58.925 32.9339 58.8934 33.984C58.8618 35.0341 58.2052 35.6641 57.1571 35.6387C56.1091 35.6132 55.585 34.9195 55.4777 33.8822C55.6482 32.8639 56.1975 32.1957 57.2518 32.2339Z" fill="#FFA2A4"/>
<path d="M57.2078 40.2653C58.2622 40.2717 58.8556 40.889 58.9188 41.9454C58.9756 42.9573 58.1359 43.7783 57.1383 43.7083C56.0776 43.6319 55.5599 42.9891 55.4715 41.9327C55.6041 40.9145 56.1408 40.2526 57.2078 40.2653Z" fill="#FFA2A4"/>
<path d="M58.919 50.2696C58.9064 51.3324 58.3382 51.9561 57.2901 52.0452C56.2925 52.1279 55.4528 51.3069 55.497 50.3014C55.5412 49.2259 56.1663 48.6977 57.0123 48.5895C58.1424 48.5768 58.9253 49.315 58.919 50.2696Z" fill="#FFA2A4"/>
</g>
<g clip-path="url(#clip2_24_2702)">
<path d="M89.821 57.2275C88.9497 57.323 88.3688 57.7621 88.3688 58.6658C88.3625 59.5568 88.9118 60.0977 89.7957 60.0914C90.6165 60.0914 91.1342 59.5759 91.1784 58.7613C91.2289 57.8576 90.6733 57.3803 89.821 57.2275Z" fill="#FFA2A4"/>
<path d="M91.0711 91.5616C91.008 92.3125 90.4839 92.8026 89.7263 92.758C88.9118 92.7135 88.4068 92.1662 88.4762 91.3325C88.5393 90.5815 89.0634 90.1806 89.8147 90.1106C90.6228 90.2569 91.1406 90.7215 91.0711 91.5616Z" fill="#FFA2A4"/>
<path d="M81.8658 108.846C81.045 108.885 80.5083 108.375 80.4831 107.548C80.4641 106.784 80.9566 106.269 81.7016 106.231C82.5287 106.186 82.9833 106.714 83.1096 107.523C83.0275 108.286 82.6171 108.808 81.8658 108.846Z" fill="#FFA2A4"/>
<path d="M88.5583 99.4275C88.5961 98.632 89.0949 98.2184 89.8652 98.2693C90.5786 98.3138 90.989 98.7657 90.9827 99.4848C90.9827 100.28 90.5155 100.681 89.7452 100.732C88.9686 100.649 88.5204 100.217 88.5583 99.4275Z" fill="#FFA2A4"/>
<path d="M97.7384 59.9386C96.9618 59.9259 96.4946 59.4422 96.5009 58.6658C96.5072 57.883 96.9871 57.4121 97.7636 57.4185C98.5402 57.4248 98.9506 57.9149 99.0138 58.6913C98.9443 59.4677 98.5213 59.945 97.7384 59.9386Z" fill="#FFA2A4"/>
<path d="M107.12 75.0723C107.102 75.7278 106.691 76.1542 106.047 76.1542C105.327 76.1542 104.892 75.696 104.936 74.9705C104.98 74.3277 105.428 73.9841 106.136 73.9268C106.685 74.0795 107.139 74.4041 107.12 75.0723Z" fill="#FFA2A4"/>
<path d="M106.142 59.7986C105.416 59.8686 104.955 59.455 104.904 58.7231C104.86 58.0549 105.264 57.6157 105.908 57.5521C106.641 57.4757 107.038 57.9212 107.165 58.6085C107.127 59.2895 106.792 59.7413 106.142 59.7986Z" fill="#FFA2A4"/>
<path d="M104.961 83.0783C104.968 82.4801 105.365 82.0728 105.946 82.0346C106.609 81.99 107.051 82.4037 107.083 83.0592C107.121 83.7274 106.672 84.0838 106.028 84.1984C105.391 84.1029 104.955 83.7529 104.961 83.0783Z" fill="#FFA2A4"/>
<path d="M104.904 67.0282C104.911 66.2963 105.353 65.8635 106.079 65.889C106.729 65.9145 107.139 66.3409 107.139 67.0027C107.139 67.7409 106.679 68.1037 105.971 68.1737C105.334 68.0464 104.904 67.6964 104.904 67.0282Z" fill="#FFA2A4"/>
<path d="M97.8394 108.566C97.1891 108.611 96.7598 108.204 96.7345 107.548C96.7156 106.956 97.107 106.549 97.6753 106.511C98.3256 106.466 98.6918 106.88 98.8054 107.554C98.7233 108.108 98.414 108.528 97.8394 108.566Z" fill="#FFA2A4"/>
<path d="M88.6341 107.58C88.6151 106.861 89.0192 106.415 89.7326 106.39C90.4461 106.364 90.8817 106.772 90.9133 107.497C90.9449 108.223 90.5155 108.604 89.7326 108.725C89.1392 108.624 88.6467 108.324 88.6341 107.58Z" fill="#FFA2A4"/>
<path d="M96.665 99.4975C96.665 98.842 97.0754 98.4093 97.7194 98.3902C98.4392 98.3775 98.8811 98.8293 98.8496 99.5548C98.8243 100.204 98.376 100.548 97.732 100.618C97.0944 100.503 96.665 100.153 96.665 99.4975Z" fill="#FFA2A4"/>
<path d="M96.6145 91.5043C96.583 90.7852 96.9807 90.3333 97.6942 90.2951C98.4076 90.2569 98.8496 90.6642 98.8938 91.3834C98.938 92.1089 98.5086 92.4971 97.8268 92.6116C97.1133 92.5734 96.6524 92.2298 96.6145 91.5043Z" fill="#FFA2A4"/>
<path d="M105.012 91.3134C105.081 90.7342 105.498 90.3588 106.079 90.4097C106.716 90.467 107.114 90.8997 107.032 91.5616C106.963 92.1407 106.546 92.4462 105.971 92.4844C105.34 92.3507 104.93 91.9816 105.012 91.3134Z" fill="#FFA2A4"/>
<path d="M106.129 100.388C105.593 100.439 105.207 100.198 105.144 99.6312C105.081 99.0266 105.353 98.6257 105.99 98.5938C106.54 98.5684 106.855 98.8675 106.918 99.4212C106.925 99.9685 106.685 100.331 106.129 100.388Z" fill="#FFA2A4"/>
<path d="M106.849 107.408C106.931 107.955 106.628 108.318 106.091 108.375C105.611 108.426 105.277 108.134 105.207 107.669C105.125 107.115 105.441 106.803 105.952 106.689C106.445 106.695 106.779 106.937 106.849 107.408Z" fill="#FFA2A4"/>
<path d="M114.899 74.9578C114.943 75.4987 114.703 75.8869 114.141 75.9442C113.535 76.0078 113.144 75.7278 113.118 75.0787C113.099 74.525 113.396 74.2068 113.939 74.1495C114.495 74.1495 114.848 74.3977 114.899 74.9578Z" fill="#FFA2A4"/>
<path d="M114.091 67.9064C113.548 67.9446 113.175 67.6837 113.125 67.1236C113.074 66.5127 113.365 66.1245 114.002 66.1117C114.558 66.099 114.855 66.4109 114.912 67.0409C114.886 67.5055 114.653 67.8746 114.091 67.9064Z" fill="#FFA2A4"/>
<path d="M114.836 91.3325C114.899 91.8798 114.596 92.2362 114.047 92.2743C113.56 92.3125 113.238 92.0071 113.182 91.5425C113.118 90.9952 113.44 90.6833 113.958 90.5815C114.457 90.607 114.785 90.8679 114.836 91.3325Z" fill="#FFA2A4"/>
<path d="M114.065 59.5759C113.523 59.6013 113.163 59.334 113.125 58.774C113.081 58.1567 113.39 57.7876 114.028 57.7876C114.583 57.7876 114.874 58.1058 114.912 58.6722C114.893 59.2068 114.627 59.544 114.065 59.5759Z" fill="#FFA2A4"/>
<path d="M114.874 83.1356C114.861 83.6383 114.583 83.9438 114.091 83.9756C113.535 84.0138 113.182 83.7274 113.156 83.1547C113.131 82.5819 113.447 82.2828 114.084 82.2255C114.545 82.2892 114.886 82.5501 114.874 83.1356Z" fill="#FFA2A4"/>
<path d="M113.276 99.5357C113.245 99.103 113.529 98.7975 113.933 98.7593C114.419 98.7148 114.741 99.0202 114.741 99.5166C114.735 99.9367 114.438 100.178 113.971 100.248C113.611 100.172 113.308 99.9621 113.276 99.5357Z" fill="#FFA2A4"/>
<path d="M121.951 66.2709C122.381 66.239 122.684 66.5254 122.721 66.9327C122.766 67.4227 122.463 67.7473 121.97 67.7473C121.553 67.741 121.314 67.4418 121.25 67.0218C121.295 66.5954 121.534 66.309 121.951 66.2709Z" fill="#FFA2A4"/>
<path d="M122.071 59.4104C121.642 59.4677 121.332 59.1877 121.276 58.7867C121.206 58.2967 121.503 57.9658 121.989 57.9403C122.412 57.9212 122.652 58.2203 122.74 58.6467C122.715 59.0667 122.475 59.3595 122.071 59.4104Z" fill="#FFA2A4"/>
<path d="M113.99 108.121C113.674 108.114 113.466 107.936 113.434 107.618C113.403 107.243 113.573 106.982 113.964 106.956C114.35 106.931 114.558 107.134 114.596 107.535C114.571 107.917 114.381 108.134 113.99 108.121Z" fill="#FFA2A4"/>
<path d="M121.926 83.6892C121.604 83.6638 121.434 83.4601 121.421 83.1419C121.408 82.7537 121.61 82.5246 122.002 82.531C122.393 82.531 122.576 82.7601 122.583 83.1356C122.532 83.5365 122.305 83.7211 121.926 83.6892Z" fill="#FFA2A4"/>
<path d="M122.614 74.9578C122.658 75.3969 122.456 75.6833 121.989 75.6896C121.604 75.6896 121.389 75.4796 121.37 75.0914C121.351 74.7032 121.547 74.4868 121.977 74.4232C122.298 74.4232 122.576 74.5632 122.614 74.9578Z" fill="#FFA2A4"/>
<path d="M91.1532 75.0023C91.1785 75.8869 90.6418 76.4469 89.7579 76.4533C88.9435 76.4597 88.4194 75.9315 88.3878 75.1169C88.3563 74.2195 88.9245 73.755 89.7642 73.6277C90.5787 73.7486 91.1343 74.1813 91.1532 75.0023Z" fill="#FFA2A4"/>
<path d="M88.4131 83.1992C88.35 82.3782 88.8551 81.8118 89.6443 81.7418C90.5219 81.6591 91.0965 82.2064 91.128 83.0846C91.1596 83.9056 90.6103 84.3511 89.8211 84.5102C89.0256 84.4338 88.4763 84.0074 88.4131 83.1992Z" fill="#FFA2A4"/>
<path d="M97.7131 84.332C96.9997 84.3129 96.5704 83.8865 96.5451 83.1737C96.5199 82.391 96.9492 81.9073 97.7321 81.8882C98.515 81.8691 98.9254 82.3337 98.9885 83.1165C98.9127 83.8992 98.496 84.3511 97.7131 84.332Z" fill="#FFA2A4"/>
<path d="M99.0074 66.9964C99.0137 67.7791 98.5465 68.2628 97.7699 68.2692C96.9934 68.2819 96.5135 67.8046 96.5072 67.0218C96.4946 66.239 96.9681 65.8126 97.7826 65.7235C98.5086 65.8063 99.0011 66.2072 99.0074 66.9964Z" fill="#FFA2A4"/>
<path d="M97.7446 76.3197C96.968 76.3069 96.5008 75.8296 96.5071 75.0469C96.5135 74.2641 96.9933 73.7931 97.7699 73.7995C98.5465 73.8059 98.9568 74.2959 99.02 75.0723C98.9442 75.8551 98.5212 76.326 97.7446 76.3197Z" fill="#FFA2A4"/>
<path d="M83.1537 99.453C83.179 100.274 82.6613 100.821 81.8657 100.859C80.9881 100.898 80.4262 100.344 80.4325 99.4594C80.4389 98.6448 80.9945 98.2056 81.79 98.0847C82.5792 98.1993 83.1285 98.632 83.1537 99.453Z" fill="#FFA2A4"/>
<path d="M72.4205 107.605C72.3953 106.714 72.9256 106.154 73.8095 106.148C74.6177 106.135 75.148 106.657 75.1859 107.472C75.2238 108.369 74.6619 108.834 73.7401 108.974C73.0267 108.827 72.4458 108.433 72.4205 107.605Z" fill="#FFA2A4"/>
<path d="M91.1531 66.9009C91.2163 67.7855 90.6859 68.371 89.8083 68.4028C88.9307 68.4282 88.3814 67.8682 88.3877 66.9772C88.3941 66.1563 88.937 65.7172 89.7262 65.5835C90.5407 65.6663 91.0963 66.0926 91.1531 66.9009Z" fill="#FFA2A4"/>
<path d="M81.7395 92.8598C80.9251 92.8344 80.4074 92.3189 80.3821 91.5043C80.3568 90.6133 80.8809 90.0533 81.7648 90.0342C82.6613 90.0151 83.1096 90.5879 83.2232 91.4597C83.097 92.3252 82.6361 92.8853 81.7395 92.8598Z" fill="#FFA2A4"/>
<path d="M81.8343 84.5611C80.9377 84.5802 80.3884 84.0965 80.3506 83.1865C80.3127 82.2128 80.8367 81.6527 81.8153 81.6527C82.7245 81.6527 83.1728 82.2064 83.2548 83.0974C83.1854 83.9884 82.7434 84.542 81.8343 84.5611Z" fill="#FFA2A4"/>
<path d="M73.8538 100.942C72.8815 100.955 72.3385 100.408 72.3701 99.4275C72.3953 98.5175 72.932 98.0211 73.8348 98.0338C74.744 98.0465 75.1923 98.5811 75.2807 99.5548C75.1797 100.35 74.7693 100.929 73.8538 100.942Z" fill="#FFA2A4"/>
<path d="M65.5135 108.993C64.6106 108.974 64.0929 108.458 64.0929 107.548C64.0929 106.562 64.6611 106.04 65.6271 106.084C66.5363 106.129 66.9593 106.702 66.9972 107.612C66.8898 108.49 66.4163 109.012 65.5135 108.993Z" fill="#FFA2A4"/>
<path d="M81.8153 68.5046C80.9251 68.5237 80.3695 68.0464 80.3126 67.1427C80.2495 66.1881 80.7167 65.5708 81.6953 65.5199C82.655 65.469 83.1917 65.9845 83.2927 66.9518C83.2485 67.9128 82.7939 68.4919 81.8153 68.5046Z" fill="#FFA2A4"/>
<path d="M80.3379 75.2505C80.2496 74.2895 80.6915 73.6659 81.6764 73.5895C82.5604 73.5195 83.1538 73.9586 83.2485 74.875C83.3496 75.8424 82.876 76.4088 81.8974 76.5615C81.0388 76.5361 80.42 76.1733 80.3379 75.2505Z" fill="#FFA2A4"/>
<path d="M81.7648 60.1741C80.8682 60.1677 80.3379 59.665 80.3063 58.7613C80.2684 57.7939 80.7672 57.2148 81.7395 57.183C82.7118 57.1575 83.2169 57.6985 83.2864 58.6658C83.2296 59.6268 82.7371 60.1805 81.7648 60.1741Z" fill="#FFA2A4"/>
<path d="M72.3196 91.4661C72.307 90.5688 72.7805 90.0087 73.677 89.9515C74.6241 89.8878 75.2365 90.3651 75.287 91.3516C75.3375 92.3189 74.8261 92.8598 73.8664 92.9553C72.9068 92.9171 72.3385 92.4525 72.3196 91.4661Z" fill="#FFA2A4"/>
<path d="M65.6523 101.006C64.7052 101.069 64.0928 100.586 64.0297 99.6121C63.9666 98.6575 64.4464 98.0402 65.4124 97.9765C66.3594 97.9129 66.9277 98.4029 67.0539 99.3766C67.0539 100.318 66.6246 100.942 65.6523 101.006Z" fill="#FFA2A4"/>
<path d="M75.3754 83.0147C75.4196 84.0074 74.8135 84.6629 73.8285 84.6884C72.9067 84.7139 72.288 84.1156 72.2375 83.1992C72.187 82.2001 72.8057 81.64 73.7843 81.5C74.6998 81.5955 75.3312 82.0982 75.3754 83.0147Z" fill="#FFA2A4"/>
<path d="M73.8096 76.6697C72.8941 76.6824 72.2691 76.0842 72.2059 75.1742C72.1428 74.175 72.7489 73.5068 73.7212 73.4495C74.7061 73.3922 75.2617 74.035 75.4322 75.0341C75.3249 76.0015 74.8008 76.657 73.8096 76.6697Z" fill="#FFA2A4"/>
<path d="M65.5703 93.1017C64.5854 93.0635 63.9982 92.4907 63.8909 91.517C63.7898 90.6388 64.6864 89.716 65.564 89.786C66.5426 89.8624 67.0666 90.4733 67.1866 91.3643C67.1929 92.2807 66.4037 93.1335 65.5703 93.1017Z" fill="#FFA2A4"/>
<path d="M73.8475 60.3332C72.8625 60.3014 72.2754 59.7286 72.1554 58.7549C72.0544 57.883 72.9509 56.9539 73.8222 57.0175C74.8008 57.0939 75.3248 57.6985 75.4511 58.5894C75.4637 59.5059 74.6809 60.3586 73.8475 60.3332Z" fill="#FFA2A4"/>
<path d="M73.7717 65.3672C74.7504 65.3481 75.3438 65.9717 75.4512 66.9454C75.5459 67.8237 74.6493 68.7465 73.7717 68.6701C72.7931 68.5874 72.2691 67.9828 72.1428 67.0091C72.2691 66.0417 72.7931 65.3862 73.7717 65.3672Z" fill="#FFA2A4"/>
<path d="M63.8599 83.1037C63.8536 82.1173 64.466 81.4746 65.432 81.4236C66.4801 81.3664 67.1556 81.99 67.2062 83.0401C67.2567 84.1029 66.5874 84.6629 65.5646 84.8284C64.5418 84.7011 63.8725 84.1665 63.8599 83.1037Z" fill="#FFA2A4"/>
<path d="M65.4886 76.7588C64.4469 76.7206 63.8155 76.0587 63.8471 75.0087C63.8786 73.9586 64.5353 73.3286 65.5833 73.354C66.6314 73.3795 67.1554 74.0732 67.2628 75.1105C67.0923 76.1287 66.543 76.797 65.4886 76.7588Z" fill="#FFA2A4"/>
<path d="M65.5323 68.7274C64.4779 68.721 63.8845 68.1037 63.8213 67.0472C63.7645 66.0354 64.6042 65.2144 65.6018 65.2844C66.6625 65.3608 67.1802 66.0035 67.2686 67.06C67.136 68.0782 66.5993 68.7401 65.5323 68.7274Z" fill="#FFA2A4"/>
<path d="M63.8213 58.7231C63.834 57.6603 64.4022 57.0366 65.4503 56.9475C66.4478 56.8648 67.2875 57.6857 67.2433 58.6913C67.1991 59.7668 66.5741 60.295 65.7281 60.4032C64.5979 60.4159 63.815 59.6777 63.8213 58.7231Z" fill="#FFA2A4"/>
</g>
<g clip-path="url(#clip3_24_2702)">
<path d="M32.9194 57.2275C33.7907 57.323 34.3715 57.7621 34.3715 58.6658C34.3778 59.5568 33.8286 60.0977 32.9446 60.0914C32.1239 60.0914 31.6061 59.5759 31.5619 58.7613C31.5114 57.8576 32.067 57.3803 32.9194 57.2275Z" fill="#FFA2A4"/>
<path d="M31.6692 91.5616C31.7324 92.3125 32.2564 92.8026 33.014 92.758C33.8285 92.7135 34.3336 92.1662 34.2642 91.3325C34.201 90.5815 33.677 90.1806 32.9257 90.1106C32.1175 90.2569 31.5998 90.7215 31.6692 91.5616Z" fill="#FFA2A4"/>
<path d="M40.8746 108.846C41.6954 108.885 42.232 108.375 42.2573 107.548C42.2762 106.784 41.7838 106.269 41.0387 106.231C40.2117 106.186 39.7571 106.714 39.6308 107.523C39.7129 108.286 40.1233 108.808 40.8746 108.846Z" fill="#FFA2A4"/>
<path d="M34.1821 99.4275C34.1442 98.632 33.6454 98.2184 32.8752 98.2693C32.1617 98.3138 31.7513 98.7657 31.7577 99.4848C31.7577 100.28 32.2249 100.681 32.9951 100.732C33.7717 100.649 34.22 100.217 34.1821 99.4275Z" fill="#FFA2A4"/>
<path d="M25.0021 59.9386C25.7787 59.9259 26.2459 59.4422 26.2396 58.6658C26.2332 57.883 25.7534 57.4121 24.9768 57.4185C24.2002 57.4248 23.7899 57.9149 23.7267 58.6913C23.7962 59.4677 24.2192 59.945 25.0021 59.9386Z" fill="#FFA2A4"/>
<path d="M15.6199 75.0723C15.6388 75.7278 16.0492 76.1542 16.6932 76.1542C17.413 76.1542 17.8486 75.696 17.8044 74.9705C17.7602 74.3277 17.312 73.9841 16.6048 73.9268C16.0555 74.0795 15.601 74.4041 15.6199 75.0723Z" fill="#FFA2A4"/>
<path d="M16.5986 59.7986C17.3247 59.8686 17.7856 59.455 17.8361 58.7231C17.8803 58.0549 17.4762 57.6157 16.8322 57.5521C16.0998 57.4757 15.702 57.9212 15.5758 58.6085C15.6136 59.2895 15.9483 59.7413 16.5986 59.7986Z" fill="#FFA2A4"/>
<path d="M17.7792 83.0783C17.7729 82.4801 17.3752 82.0728 16.7943 82.0346C16.1314 81.99 15.6894 82.4037 15.6578 83.0592C15.62 83.7274 16.0682 84.0838 16.7122 84.1984C17.3499 84.1029 17.7855 83.7529 17.7792 83.0783Z" fill="#FFA2A4"/>
<path d="M17.8361 67.0282C17.8297 66.2963 17.3878 65.8635 16.6617 65.889C16.0114 65.9145 15.601 66.3409 15.601 67.0027C15.601 67.7409 16.0619 68.1037 16.769 68.1737C17.4067 68.0464 17.8361 67.6964 17.8361 67.0282Z" fill="#FFA2A4"/>
<path d="M24.901 108.566C25.5514 108.611 25.9807 108.204 26.0059 107.548C26.0249 106.956 25.6334 106.549 25.0652 106.511C24.4149 106.466 24.0487 106.88 23.9351 107.554C24.0171 108.108 24.3265 108.528 24.901 108.566Z" fill="#FFA2A4"/>
<path d="M34.1063 107.58C34.1252 106.861 33.7212 106.415 33.0077 106.39C32.2943 106.364 31.8586 106.772 31.8271 107.497C31.7955 108.223 32.2248 108.604 33.0077 108.725C33.6012 108.624 34.0937 108.324 34.1063 107.58Z" fill="#FFA2A4"/>
<path d="M26.0753 99.4975C26.0753 98.842 25.6649 98.4093 25.0209 98.3902C24.3012 98.3775 23.8592 98.8293 23.8908 99.5548C23.916 100.204 24.3643 100.548 25.0083 100.618C25.646 100.503 26.0753 100.153 26.0753 99.4975Z" fill="#FFA2A4"/>
<path d="M26.1258 91.5043C26.1574 90.7852 25.7596 90.3333 25.0462 90.2951C24.3327 90.2569 23.8908 90.6642 23.8466 91.3834C23.8024 92.1089 24.2317 92.4971 24.9136 92.6116C25.627 92.5734 26.0879 92.2298 26.1258 91.5043Z" fill="#FFA2A4"/>
<path d="M17.7287 91.3134C17.6593 90.7342 17.2426 90.3588 16.6617 90.4097C16.024 90.467 15.6263 90.8997 15.7083 91.5616C15.7778 92.1407 16.1945 92.4462 16.769 92.4844C17.4004 92.3507 17.8108 91.9816 17.7287 91.3134Z" fill="#FFA2A4"/>
<path d="M16.6111 100.388C17.1478 100.439 17.5329 100.198 17.5961 99.6312C17.6592 99.0266 17.3877 98.6257 16.75 98.5938C16.2007 98.5684 15.8851 98.8675 15.8219 99.4212C15.8156 99.9685 16.0555 100.331 16.6111 100.388Z" fill="#FFA2A4"/>
<path d="M15.8914 107.408C15.8093 107.955 16.1124 108.318 16.6491 108.375C17.1289 108.426 17.4635 108.134 17.533 107.669C17.615 107.115 17.2994 106.803 16.788 106.689C16.2955 106.695 15.9609 106.937 15.8914 107.408Z" fill="#FFA2A4"/>
<path d="M7.8415 74.9578C7.7973 75.4987 8.03722 75.8869 8.59914 75.9442C9.20525 76.0078 9.59669 75.7278 9.62195 75.0787C9.64089 74.525 9.34415 74.2068 8.80118 74.1495C8.24557 74.1495 7.892 74.3977 7.8415 74.9578Z" fill="#FFA2A4"/>
<path d="M8.64961 67.9064C9.19259 67.9446 9.5651 67.6837 9.61561 67.1236C9.66612 66.5127 9.37568 66.1245 8.738 66.1117C8.1824 66.099 7.88566 66.4109 7.82884 67.0409C7.85409 67.5055 8.0877 67.8746 8.64961 67.9064Z" fill="#FFA2A4"/>
<path d="M7.90461 91.3325C7.84147 91.8798 8.14453 92.2362 8.69381 92.2743C9.17996 92.3125 9.50196 92.0071 9.55878 91.5425C9.62192 90.9952 9.29992 90.6833 8.7822 90.5815C8.28343 90.607 7.95512 90.8679 7.90461 91.3325Z" fill="#FFA2A4"/>
<path d="M8.67486 59.5759C9.21784 59.6013 9.57772 59.334 9.6156 58.774C9.6598 58.1567 9.35043 57.7876 8.71275 57.7876C8.15715 57.7876 7.86672 58.1058 7.82883 58.6722C7.84778 59.2068 8.11295 59.544 8.67486 59.5759Z" fill="#FFA2A4"/>
<path d="M7.86674 83.1356C7.87936 83.6383 8.15716 83.9438 8.64963 83.9756C9.20523 84.0138 9.55879 83.7274 9.58405 83.1547C9.6093 82.5819 9.29362 82.2828 8.65594 82.2255C8.19505 82.2892 7.85411 82.5501 7.86674 83.1356Z" fill="#FFA2A4"/>
<path d="M9.46416 99.5357C9.49573 99.103 9.21161 98.7975 8.80754 98.7593C8.32139 98.7148 7.99939 99.0202 7.99939 99.5166C8.0057 99.9367 8.30245 100.178 8.76966 100.248C9.12954 100.172 9.43259 99.9621 9.46416 99.5357Z" fill="#FFA2A4"/>
<path d="M0.789178 66.2709C0.359852 66.239 0.056798 66.5254 0.0189162 66.9327C-0.025279 67.4227 0.277776 67.7473 0.770238 67.7473C1.18694 67.741 1.42685 67.4418 1.48999 67.0218C1.44579 66.5954 1.20588 66.309 0.789178 66.2709Z" fill="#FFA2A4"/>
<path d="M0.669178 59.4104C1.0985 59.4677 1.40787 59.1877 1.4647 58.7867C1.53415 58.2967 1.23741 57.9658 0.751258 57.9403C0.328245 57.9212 0.0883259 58.2203 -6.48499e-05 58.6467C0.0251896 59.0667 0.265106 59.3595 0.669178 59.4104Z" fill="#FFA2A4"/>
<path d="M8.75064 108.121C9.06633 108.114 9.27468 107.936 9.30625 107.618C9.33781 107.243 9.16735 106.982 8.7759 106.956C8.39076 106.931 8.18241 107.134 8.14453 107.535C8.16978 107.917 8.35919 108.134 8.75064 108.121Z" fill="#FFA2A4"/>
<path d="M0.814422 83.6892C1.13642 83.6638 1.30688 83.4601 1.31951 83.1419C1.33214 82.7537 1.1301 82.5246 0.738657 82.531C0.347211 82.531 0.164116 82.7601 0.157803 83.1356C0.208312 83.5365 0.435603 83.7211 0.814422 83.6892Z" fill="#FFA2A4"/>
<path d="M0.126171 74.9578C0.0819755 75.3969 0.284016 75.6833 0.751227 75.6896C1.13636 75.6896 1.35102 75.4796 1.36996 75.0914C1.3889 74.7032 1.19318 74.4868 0.763853 74.4232C0.441856 74.4232 0.164053 74.5632 0.126171 74.9578Z" fill="#FFA2A4"/>
<path d="M31.5871 75.0023C31.5619 75.8869 32.0985 76.4469 32.9824 76.4533C33.7969 76.4597 34.3209 75.9315 34.3525 75.1169C34.3841 74.2195 33.8158 73.755 32.9761 73.6277C32.1617 73.7486 31.6061 74.1813 31.5871 75.0023Z" fill="#FFA2A4"/>
<path d="M34.3273 83.1992C34.3905 82.3782 33.8854 81.8118 33.0962 81.7418C32.2186 81.6591 31.644 82.2064 31.6125 83.0846C31.5809 83.9056 32.1302 84.3511 32.9194 84.5102C33.7149 84.4338 34.2642 84.0074 34.3273 83.1992Z" fill="#FFA2A4"/>
<path d="M25.0273 84.332C25.7408 84.3129 26.1701 83.8865 26.1954 83.1737C26.2206 82.391 25.7913 81.9073 25.0084 81.8882C24.2255 81.8691 23.8151 82.3337 23.752 83.1165C23.8277 83.8992 24.2444 84.3511 25.0273 84.332Z" fill="#FFA2A4"/>
<path d="M23.7329 66.9964C23.7266 67.7791 24.1938 68.2628 24.9704 68.2692C25.747 68.2819 26.2268 67.8046 26.2332 67.0218C26.2458 66.239 25.7723 65.8126 24.9578 65.7235C24.2317 65.8063 23.7393 66.2072 23.7329 66.9964Z" fill="#FFA2A4"/>
<path d="M24.9957 76.3197C25.7723 76.3069 26.2395 75.8296 26.2332 75.0469C26.2269 74.2641 25.7471 73.7931 24.9705 73.7995C24.1939 73.8059 23.7835 74.2959 23.7204 75.0723C23.7961 75.8551 24.2192 76.326 24.9957 76.3197Z" fill="#FFA2A4"/>
<path d="M39.5866 99.453C39.5614 100.274 40.0791 100.821 40.8746 100.859C41.7522 100.898 42.3141 100.344 42.3078 99.4594C42.3015 98.6448 41.7459 98.2056 40.9504 98.0847C40.1612 98.1993 39.6119 98.632 39.5866 99.453Z" fill="#FFA2A4"/>
<path d="M50.3198 107.605C50.3451 106.714 49.8147 106.154 48.9308 106.148C48.1227 106.135 47.5923 106.657 47.5544 107.472C47.5165 108.369 48.0785 108.834 49.0003 108.974C49.7137 108.827 50.2946 108.433 50.3198 107.605Z" fill="#FFA2A4"/>
<path d="M31.5872 66.9009C31.5241 67.7855 32.0544 68.371 32.932 68.4028C33.8096 68.4282 34.3589 67.8682 34.3526 66.9772C34.3463 66.1563 33.8033 65.7172 33.0141 65.5835C32.1997 65.6663 31.644 66.0926 31.5872 66.9009Z" fill="#FFA2A4"/>
<path d="M41.0008 92.8598C41.8153 92.8344 42.333 92.3189 42.3583 91.5043C42.3835 90.6133 41.8595 90.0533 40.9756 90.0342C40.079 90.0151 39.6308 90.5879 39.5171 91.4597C39.6434 92.3253 40.1043 92.8853 41.0008 92.8598Z" fill="#FFA2A4"/>
<path d="M40.9061 84.5611C41.8026 84.5802 42.3519 84.0965 42.3898 83.1865C42.4277 82.2128 41.9037 81.6527 40.925 81.6527C40.0159 81.6527 39.5676 82.2064 39.4855 83.0974C39.555 83.9884 39.9969 84.542 40.9061 84.5611Z" fill="#FFA2A4"/>
<path d="M48.8866 100.942C49.8589 100.955 50.4018 100.408 50.3703 99.4275C50.345 98.5175 49.8084 98.0211 48.9055 98.0338C47.9963 98.0465 47.5481 98.5811 47.4597 99.5548C47.5607 100.35 47.9711 100.929 48.8866 100.942Z" fill="#FFA2A4"/>
<path d="M57.227 108.993C58.1299 108.974 58.6476 108.458 58.6476 107.548C58.6476 106.562 58.0794 106.04 57.1134 106.084C56.2042 106.129 55.7812 106.702 55.7433 107.612C55.8506 108.49 56.3242 109.012 57.227 108.993Z" fill="#FFA2A4"/>
<path d="M40.9251 68.5046C41.8153 68.5237 42.3709 68.0464 42.4277 67.1427C42.4908 66.1881 42.0236 65.5708 41.045 65.5199C40.0853 65.469 39.5487 65.9845 39.4477 66.9518C39.4919 67.9128 39.9464 68.4919 40.9251 68.5046Z" fill="#FFA2A4"/>
<path d="M42.4025 75.2505C42.4909 74.2895 42.049 73.6659 41.064 73.5895C40.1801 73.5195 39.5866 73.9586 39.4919 74.875C39.3909 75.8424 39.8644 76.4088 40.8431 76.5615C41.7017 76.5361 42.3205 76.1733 42.4025 75.2505Z" fill="#FFA2A4"/>
<path d="M40.9756 60.1741C41.8721 60.1677 42.4025 59.665 42.434 58.7613C42.4719 57.7939 41.9731 57.2148 41.0008 57.183C40.0285 57.1575 39.5234 57.6985 39.454 58.6658C39.5108 59.6268 40.0033 60.1805 40.9756 60.1741Z" fill="#FFA2A4"/>
<path d="M50.4209 91.4661C50.4335 90.5688 49.96 90.0087 49.0635 89.9515C48.1164 89.8878 47.504 90.3651 47.4535 91.3516C47.403 92.3189 47.9144 92.8598 48.874 92.9553C49.8337 92.9171 50.402 92.4525 50.4209 91.4661Z" fill="#FFA2A4"/>
<path d="M57.0881 101.006C58.0351 101.069 58.6475 100.586 58.7107 99.6121C58.7738 98.6575 58.294 98.0402 57.328 97.9765C56.3809 97.9129 55.8127 98.4029 55.6864 99.3766C55.6864 100.318 56.1158 100.942 57.0881 101.006Z" fill="#FFA2A4"/>
<path d="M47.3651 83.0147C47.3209 84.0074 47.927 84.6629 48.9119 84.6884C49.8337 84.7139 50.4525 84.1156 50.503 83.1992C50.5535 82.2001 49.9348 81.64 48.9561 81.5C48.0407 81.5955 47.4093 82.0982 47.3651 83.0147Z" fill="#FFA2A4"/>
<path d="M48.9308 76.6697C49.8463 76.6824 50.4713 76.0842 50.5344 75.1741C50.5976 74.175 49.9915 73.5068 49.0192 73.4495C48.0342 73.3922 47.4786 74.035 47.3082 75.0341C47.4155 76.0015 47.9395 76.657 48.9308 76.6697Z" fill="#FFA2A4"/>
<path d="M57.1702 93.1017C58.1551 93.0635 58.7423 92.4907 58.8496 91.517C58.9506 90.6388 58.0541 89.716 57.1765 89.786C56.1979 89.8624 55.6738 90.4733 55.5539 91.3643C55.5476 92.2807 56.3368 93.1335 57.1702 93.1017Z" fill="#FFA2A4"/>
<path d="M48.8929 60.3332C49.8778 60.3014 50.465 59.7286 50.585 58.7549C50.686 57.883 49.7894 56.9539 48.9182 57.0175C47.9395 57.0939 47.4155 57.6985 47.2892 58.5894C47.2766 59.5059 48.0595 60.3586 48.8929 60.3332Z" fill="#FFA2A4"/>
<path d="M48.9687 65.3672C47.9901 65.3481 47.3966 65.9717 47.2893 66.9454C47.1946 67.8237 48.0911 68.7465 48.9687 68.6701C49.9473 68.5874 50.4714 67.9828 50.5977 67.0091C50.4714 66.0417 49.9473 65.3862 48.9687 65.3672Z" fill="#FFA2A4"/>
<path d="M58.8806 83.1037C58.8869 82.1173 58.2745 81.4746 57.3085 81.4236C56.2604 81.3664 55.5848 81.99 55.5343 83.0401C55.4838 84.1029 56.1531 84.6629 57.1759 84.8284C58.1987 84.7011 58.8679 84.1665 58.8806 83.1037Z" fill="#FFA2A4"/>
<path d="M57.2518 76.7588C58.2936 76.7206 58.925 76.0587 58.8934 75.0087C58.8618 73.9586 58.2052 73.3286 57.1571 73.354C56.1091 73.3795 55.585 74.0732 55.4777 75.1105C55.6482 76.1287 56.1975 76.797 57.2518 76.7588Z" fill="#FFA2A4"/>
<path d="M57.2078 68.7274C58.2622 68.721 58.8556 68.1037 58.9188 67.0472C58.9756 66.0354 58.1359 65.2144 57.1383 65.2844C56.0776 65.3608 55.5599 66.0035 55.4715 67.06C55.6041 68.0782 56.1408 68.7401 57.2078 68.7274Z" fill="#FFA2A4"/>
<path d="M58.919 58.7231C58.9064 57.6603 58.3382 57.0366 57.2901 56.9475C56.2925 56.8648 55.4528 57.6857 55.497 58.6913C55.5412 59.7668 56.1663 60.295 57.0123 60.4032C58.1424 60.4159 58.9253 59.6777 58.919 58.7231Z" fill="#FFA2A4"/>
</g>
<defs>
<clipPath id="clip0_24_2702">
<rect width="58.9191" height="52.0452" fill="white" transform="translate(63.8214)"/>
</clipPath>
<clipPath id="clip1_24_2702">
<rect width="58.9191" height="52.0452" fill="white" transform="matrix(-1 0 0 1 58.9191 0)"/>
</clipPath>
<clipPath id="clip2_24_2702">
<rect width="58.9191" height="52.0452" fill="white" transform="matrix(1 0 0 -1 63.8214 108.993)"/>
</clipPath>
<clipPath id="clip3_24_2702">
<rect width="58.9191" height="52.0452" fill="white" transform="matrix(-1 0 0 -1 58.9191 108.993)"/>
</clipPath>
</defs>
</svg>
