<svg width="147" height="119" viewBox="0 0 147 119" fill="none" xmlns="http://www.w3.org/2000/svg">
<g filter="url(#filter0_d_10_515)">
<path d="M7.33933 60.9312C11.6869 88.8982 13.8862 109.281 30.0869 110.27C46.2876 111.26 47.1364 98.4187 45.5357 91.8744C44.7921 85.9362 50.4136 73.3717 78.8487 70.6199C114.393 67.1802 104.626 77.0983 124.603 82.6317C144.579 88.165 147.681 74.3488 135.333 39.9438C125.454 12.4198 116.047 -1.02727 107.098 1.20557C91.6764 5.05343 54.8851 13.9782 31.0944 18.8942C1.35594 25.0393 2.99176 32.9642 7.33933 60.9312Z" fill="url(#paint0_linear_10_515)"/>
</g>
<defs>
<filter id="filter0_d_10_515" x="0.931259" y="0.966515" width="145.715" height="117.358" filterUnits="userSpaceOnUse" color-interpolation-filters="sRGB">
<feFlood flood-opacity="0" result="BackgroundImageFix"/>
<feColorMatrix in="SourceAlpha" type="matrix" values="0 0 0 0 0 0 0 0 0 0 0 0 0 0 0 0 0 0 127 0" result="hardAlpha"/>
<feOffset dy="4"/>
<feGaussianBlur stdDeviation="2"/>
<feComposite in2="hardAlpha" operator="out"/>
<feColorMatrix type="matrix" values="0 0 0 0 0 0 0 0 0 0 0 0 0 0 0 0 0 0 0.25 0"/>
<feBlend mode="normal" in2="BackgroundImageFix" result="effect1_dropShadow_10_515"/>
<feBlend mode="normal" in="SourceGraphic" in2="effect1_dropShadow_10_515" result="shape"/>
</filter>
<linearGradient id="paint0_linear_10_515" x1="107.991" y1="-15.8826" x2="-21.4952" y2="315.617" gradientUnits="userSpaceOnUse">
<stop stop-color="#2E2594"/>
<stop offset="1" stop-color="#F73B6C"/>
</linearGradient>
</defs>
</svg>
