<svg width="733" height="723" viewBox="0 0 733 723" fill="none" xmlns="http://www.w3.org/2000/svg">
<path opacity="0.3" d="M364.298 566.752C492.933 566.752 597.213 462.472 597.213 333.837C597.213 205.201 492.933 100.922 364.298 100.922C235.662 100.922 131.383 205.201 131.383 333.837C131.383 462.472 235.662 566.752 364.298 566.752Z" fill="#B100A0"/>
<path opacity="0.3" d="M311.628 566.752C440.263 566.752 544.543 462.472 544.543 333.837C544.543 205.201 440.263 100.922 311.628 100.922C182.992 100.922 78.7128 205.201 78.7128 333.837C78.7128 462.472 182.992 566.752 311.628 566.752Z" fill="#B100A0"/>
<path d="M339.205 566.752C467.84 566.752 572.12 462.472 572.12 333.837C572.12 205.201 467.84 100.922 339.205 100.922C210.57 100.922 106.29 205.201 106.29 333.837C106.29 462.472 210.57 566.752 339.205 566.752Z" fill="#B100A0"/>
<path opacity="0.4" d="M384.232 64.2531C316.023 109.926 233.427 129.724 151.187 124.637C123.709 122.936 95.8586 127.245 71.4264 142.41C-16.5325 197.058 30.0149 341.318 77.5345 410.321C125.054 479.324 40.0438 574.023 75.0718 675.283C110.1 776.544 267.451 662.954 347.033 659.114C392.997 656.895 442.072 708.95 578.102 671.379C714.131 633.807 795.058 545.168 669.933 375.925C544.791 206.682 612.384 46.6905 485.493 25.5797C448.407 19.4069 410.139 46.9011 384.232 64.2531Z" fill="url(#paint0_linear_2670_8)"/>
<path opacity="0.4" d="M477.036 85.1857C398.328 108.5 313.577 102.813 236.586 73.4881C210.858 63.6861 182.991 59.506 155.141 66.732C54.917 92.7357 56.4237 244.319 81.2609 324.323C106.098 404.326 -3.2471 469.457 0.0742438 576.55C3.37939 683.643 187.414 622.029 264.518 642.038C309.057 653.589 340.423 717.894 481.475 722.511C622.527 727.113 726.169 666.567 657.052 467.756C587.952 268.945 700.068 136.318 585.214 78.3972C551.644 61.4664 506.928 76.3396 477.036 85.1857Z" fill="url(#paint1_linear_2670_8)"/>
<g filter="url(#filter0_d_2670_8)">
<path d="M269.939 523.06C269.939 523.06 258.307 577.158 211.775 575.343C165.244 573.545 230.278 520.355 230.278 520.355C230.278 520.355 267.606 518.556 269.939 523.06Z" fill="url(#paint2_linear_2670_8)"/>
<path opacity="0.2" d="M268.74 522.056C264.787 534.904 250.157 571.422 211.775 569.948C202.216 569.575 197.615 567.032 196.303 563.24C194.602 569.932 198.182 574.841 211.775 575.359C258.307 577.158 269.939 523.076 269.939 523.076C269.745 522.688 269.324 522.347 268.74 522.056Z" fill="url(#paint3_linear_2670_8)"/>
<path d="M448.748 646.684C448.748 646.684 436.24 695.587 386.193 693.96C336.146 692.334 406.089 644.237 406.089 644.237C406.089 644.237 446.253 642.611 448.748 646.684Z" fill="url(#paint4_linear_2670_8)"/>
<path opacity="0.2" d="M447.452 645.766C443.207 657.387 427.459 690.416 386.193 689.067C375.921 688.734 370.964 686.44 369.554 682.993C367.723 689.04 371.579 693.474 386.193 693.946C436.24 695.573 448.748 646.67 448.748 646.67C448.537 646.336 448.084 646.044 447.452 645.766Z" fill="url(#paint5_linear_2670_8)"/>
<path d="M230.368 519.96C230.368 519.96 180.922 392.687 180.017 382.589C179.112 372.505 214.856 372.338 273.675 393.887C332.494 415.436 424.568 422.94 424.568 422.94C424.568 422.94 501 534.689 501 542.458C501 550.213 447.95 648 447.95 648H402.09C402.09 648 442.488 554.676 443.377 546.14C444.282 537.604 380.744 484.115 359.948 470.99C339.151 457.865 254.623 440.793 254.623 440.793L269.91 522.275C269.926 522.289 254.639 535.484 230.368 519.96Z" fill="url(#paint6_linear_2670_8)"/>
<path d="M273.608 397.492L292.385 227.504C292.385 227.504 369.019 213.117 411.387 255.468L424.915 431.24C424.899 431.24 362.117 445.773 273.608 397.492Z" fill="url(#paint7_linear_2670_8)"/>
<path d="M336.146 220.602C336.146 220.602 320.301 247.011 348.8 251.272C374.852 255.177 372.535 215.45 364.434 212.469C356.317 209.488 343.761 210.217 336.146 220.602Z" fill="url(#paint8_linear_2670_8)"/>
<path opacity="0.3" d="M390.952 245.925C390.952 245.925 308.163 241.051 308.728 288.117C309.293 335.167 338.934 346.759 338.934 346.759C338.934 346.759 310.651 343.343 299.081 325.614C299.081 325.614 301.447 362.513 361.326 385.309C361.326 385.309 332.539 389.972 292.976 360.456C292.976 360.456 293.052 401.985 352.946 416.961C412.84 431.954 423.127 406.729 423.127 406.729L426.989 444.226C426.989 444.226 303.905 451.415 261.732 393.339L290.656 228.309C290.641 228.309 352.351 207.148 390.952 245.925Z" fill="url(#paint9_linear_2670_8)"/>
<path d="M288.627 333.593L378.384 347.056C378.384 347.056 396.886 346.57 396.886 363.695C396.886 380.821 399.154 401.219 382.613 396.423C360.902 390.104 362.539 364.019 362.539 364.019L294.767 353.748C294.767 353.748 284.868 380.756 260.824 375.652C236.781 370.549 265.053 332.199 275.39 331.794C285.726 331.389 288.627 333.593 288.627 333.593Z" fill="url(#paint10_linear_2670_8)"/>
<path opacity="0.2" d="M305.25 333.641C305.25 333.641 295.334 339.944 327.786 344.756C360.238 349.568 354.503 339.344 354.503 339.344L305.25 333.641Z" fill="url(#paint11_linear_2670_8)"/>
<path d="M350.963 197.975H349.798C343.894 197.975 339.107 202.841 339.107 208.843V233.273C339.107 239.275 343.894 244.141 349.798 244.141H350.963C356.867 244.141 361.654 239.275 361.654 233.273V208.843C361.654 202.841 356.867 197.975 350.963 197.975Z" fill="url(#paint12_linear_2670_8)"/>
<path d="M354.859 79.0642C354.859 79.0642 354.146 79.0318 352.899 79.0318C322.666 79.2263 298.753 104.728 300.114 134.944C301.151 157.804 303.143 192.525 305.914 199.265C310.126 209.488 336.503 225.155 354.859 225.155C373.216 225.155 399.608 209.488 403.804 199.265C406.575 192.525 408.568 157.804 409.605 134.944C410.966 104.744 387.068 79.2263 356.82 79.0318C355.572 79.0156 354.859 79.0642 354.859 79.0642Z" fill="url(#paint13_linear_2670_8)"/>
<path opacity="0.3" d="M354.859 225.155C354.859 225.155 317.709 219.306 315.667 189.641C313.626 159.959 325.566 150.238 343.631 155.358C343.631 155.358 340.213 146.155 331.01 146.658C331.01 146.658 333.57 136.418 341.25 137.957C348.929 139.497 386.339 145.831 406.51 134.215C426.697 122.614 385.756 86.7924 337.151 86.7924C288.546 86.7924 298.785 176.841 298.785 192.184C298.785 207.544 326.004 232.008 354.859 225.155Z" fill="url(#paint14_linear_2670_8)"/>
<path d="M323.185 200.642C323.185 200.642 333.149 188.555 346.661 194.777C357.694 199.88 355.831 208.678 355.831 208.678L323.185 200.642Z" fill="url(#paint15_linear_2670_8)"/>
<path d="M331.334 203.428C331.334 203.428 341.25 190.904 354.924 197.547C366.087 202.975 364.305 212.161 364.305 212.161L331.334 203.428Z" fill="url(#paint16_linear_2670_8)"/>
<path d="M348.087 183.808C350.452 184.278 353.125 184.391 355.232 183.598C356.269 183.209 357.095 182.561 357.613 181.734C358.18 180.94 358.245 179.806 358.326 178.737L358.375 179.174C357.289 174.363 356.333 169.551 355.539 164.69C355.134 162.26 354.778 159.83 354.503 157.367C354.243 154.904 354.017 152.442 354.049 149.93C354.065 149.477 354.422 149.12 354.875 149.137C355.313 149.137 355.653 149.493 355.669 149.914V149.93C355.734 152.312 356.074 154.71 356.447 157.108C356.819 159.506 357.289 161.887 357.808 164.269C358.828 169.016 360.011 173.763 361.291 178.445L361.307 178.51C361.34 178.64 361.356 178.769 361.34 178.883C361.113 180.357 360.854 181.945 359.801 183.257C358.828 184.57 357.37 185.428 355.928 185.817C354.486 186.222 353.061 186.255 351.684 186.141C350.29 186.028 348.994 185.785 347.649 185.363C347.228 185.234 346.985 184.78 347.115 184.359C347.244 183.954 347.633 183.727 348.038 183.792L348.087 183.808Z" fill="url(#paint17_linear_2670_8)"/>
<path d="M331.545 173.569C334.167 173.569 336.292 169.993 336.292 165.581C336.292 161.17 334.167 157.594 331.545 157.594C328.923 157.594 326.798 161.17 326.798 165.581C326.798 169.993 328.923 173.569 331.545 173.569Z" fill="url(#paint18_linear_2670_8)"/>
<path d="M376.148 173.569C378.77 173.569 380.895 169.993 380.895 165.581C380.895 161.17 378.77 157.594 376.148 157.594C373.526 157.594 371.401 161.17 371.401 165.581C371.401 169.993 373.526 173.569 376.148 173.569Z" fill="url(#paint19_linear_2670_8)"/>
<path d="M319.28 153.236C319.28 153.236 327.997 142.089 340.909 151.34" stroke="url(#paint20_linear_2670_8)" stroke-width="1.8618" stroke-miterlimit="10" stroke-linecap="round" stroke-linejoin="round"/>
<path d="M387.635 153.236C387.635 153.236 378.918 142.089 366.006 151.34" stroke="url(#paint21_linear_2670_8)" stroke-width="1.8618" stroke-miterlimit="10" stroke-linecap="round" stroke-linejoin="round"/>
<path d="M293.293 189.641H288.983C274.936 189.641 263.546 178.251 263.546 164.204V161.434C263.546 147.387 274.936 135.997 288.983 135.997H293.293V189.641Z" fill="url(#paint22_linear_2670_8)"/>
<path d="M298.51 194.777H297.991C295.399 194.777 293.293 192.67 293.293 190.078V134.215C293.293 131.623 295.399 129.516 297.991 129.516H298.51C301.102 129.516 303.208 131.623 303.208 134.215V190.078C303.208 192.67 301.102 194.777 298.51 194.777Z" fill="url(#paint23_linear_2670_8)"/>
<path d="M416.425 189.641H420.735C434.782 189.641 446.172 178.251 446.172 164.204V161.434C446.172 147.387 434.782 135.997 420.735 135.997H416.425V189.641Z" fill="url(#paint24_linear_2670_8)"/>
<path d="M411.208 194.777H411.727C414.319 194.777 416.425 192.67 416.425 190.078V134.215C416.425 131.623 414.319 129.516 411.727 129.516H411.208C408.616 129.516 406.51 131.623 406.51 134.215V190.078C406.51 192.67 408.616 194.777 411.208 194.777Z" fill="url(#paint25_linear_2670_8)"/>
<path d="M406.51 173.909C406.51 173.909 390.859 135.884 387.23 107.79L420.038 126.438L406.51 173.909Z" fill="url(#paint26_linear_2670_8)"/>
<path opacity="0.3" d="M416.426 135.997C416.426 135.997 390.94 134.134 406.51 173.893C422.08 213.668 381.09 128.739 381.09 128.739L409.297 111.856L431.299 116.458L416.426 135.997Z" fill="url(#paint27_linear_2670_8)"/>
<path d="M273.608 92.5764L302.738 171.786C302.738 171.786 315.359 152.361 324.611 122.469C324.611 122.469 385.885 149.218 420.038 126.454C454.192 103.691 438.978 54.5835 426.179 39.7427C426.179 39.7427 409.362 70.2343 349.253 64.1263C298.25 58.9255 273.608 92.5764 273.608 92.5764Z" fill="url(#paint28_linear_2670_8)"/>
<path opacity="0.8" d="M302.738 171.786C302.738 171.786 288.546 123.635 320.268 103.675C350.549 84.6214 431.299 104.193 426.179 39.7265C421.059 -24.74 255.3 18.5023 260.922 79.7771C266.56 141.036 302.738 171.786 302.738 171.786Z" fill="url(#paint29_linear_2670_8)"/>
<path d="M274.045 253.654L181.177 324.358C176.349 328.036 178.001 335.667 183.915 337.011L245.66 351.172C245.66 351.172 253.177 372.055 275.406 372.655C297.635 373.254 298.85 348.919 290.425 351.172C282.016 353.424 257.373 332.993 275.406 331.794L288.626 333.593C288.626 333.593 273.818 319.173 250.877 331.195L221.713 324.05C218.684 323.305 217.89 319.384 220.401 317.521L282.178 271.702L274.045 253.654Z" fill="url(#paint30_linear_2670_8)"/>
<path d="M427.183 282.071L478.624 386.848C481.297 392.291 476.404 398.383 470.523 396.941L408.956 381.987C408.956 381.987 392.901 397.314 372.746 387.901C352.591 378.488 362.393 356.178 368.922 361.962C375.435 367.746 406.623 360.487 391.021 351.35L378.384 347.056C378.384 347.056 398.085 340.77 413.234 361.784L442.51 368.426C445.54 369.123 448.019 365.947 446.609 363.177L411.84 294.563L427.183 282.071Z" fill="url(#paint31_linear_2670_8)"/>
<path d="M237.112 263.302L269.274 291.381C269.274 291.381 296.378 270.471 299.798 255.52C303.218 240.586 292.203 228.037 292.203 228.037L237.112 263.302Z" fill="url(#paint32_linear_2670_8)"/>
<path d="M411.065 255.951C411.065 255.951 395.755 274.08 399.963 291.342C404.171 308.605 419.708 324.664 419.708 324.664L453.987 307.402L411.065 255.951Z" fill="url(#paint33_linear_2670_8)"/>
</g>
<path d="M6.44183 652.004L24.0207 669.567L74.1973 619.374L124.39 669.567L141.953 652.004L91.7761 601.812L141.953 551.619L124.39 534.056L74.1973 584.249L24.0207 534.056L6.44183 551.619L56.6346 601.812L6.44183 652.004Z" fill="url(#paint34_linear_2670_8)"/>
<path opacity="0.2" d="M475.254 119.131L492.995 136.872L543.673 86.1768L594.369 136.872L612.109 119.131L561.431 68.4359L612.109 17.7408L594.369 0L543.673 50.6951L492.995 0L475.254 17.7408L525.933 68.4359L475.254 119.131Z" fill="url(#paint35_linear_2670_8)"/>
<path opacity="0.2" d="M687.672 367.008C708.451 346.23 708.451 312.542 687.672 291.763C666.894 270.985 633.206 270.985 612.428 291.763C591.65 312.542 591.65 346.23 612.428 367.008C633.206 387.786 666.894 387.786 687.672 367.008Z" stroke="url(#paint36_linear_2670_8)" stroke-width="5" stroke-miterlimit="10"/>
<g clip-path="url(#clip0_2670_8)">
<path d="M683.821 347.765C682.95 347.67 682.369 347.231 682.369 346.327C682.363 345.436 682.912 344.895 683.796 344.901C684.616 344.901 685.134 345.417 685.178 346.231C685.229 347.135 684.673 347.612 683.821 347.765Z" fill="#FFA2A4"/>
<path d="M685.071 313.431C685.008 312.68 684.484 312.19 683.726 312.235C682.912 312.279 682.407 312.827 682.476 313.66C682.539 314.411 683.063 314.812 683.815 314.882C684.623 314.736 685.141 314.271 685.071 313.431Z" fill="#FFA2A4"/>
<path d="M675.866 296.146C675.045 296.108 674.508 296.617 674.483 297.445C674.464 298.208 674.957 298.724 675.702 298.762C676.529 298.807 676.983 298.278 677.11 297.47C677.027 296.706 676.617 296.185 675.866 296.146Z" fill="#FFA2A4"/>
<path d="M682.558 305.565C682.596 306.361 683.095 306.774 683.865 306.723C684.579 306.679 684.989 306.227 684.983 305.508C684.983 304.712 684.515 304.311 683.745 304.261C682.969 304.343 682.52 304.776 682.558 305.565Z" fill="#FFA2A4"/>
<path d="M691.738 345.054C690.962 345.067 690.495 345.55 690.501 346.327C690.507 347.11 690.987 347.581 691.764 347.574C692.54 347.568 692.951 347.078 693.014 346.301C692.944 345.525 692.521 345.048 691.738 345.054Z" fill="#FFA2A4"/>
<path d="M701.12 329.92C701.102 329.265 700.691 328.838 700.047 328.838C699.327 328.838 698.892 329.297 698.936 330.022C698.98 330.665 699.428 331.009 700.136 331.066C700.685 330.913 701.139 330.589 701.12 329.92Z" fill="#FFA2A4"/>
<path d="M700.142 345.194C699.416 345.124 698.955 345.538 698.904 346.27C698.86 346.938 699.264 347.377 699.908 347.441C700.641 347.517 701.038 347.071 701.165 346.384C701.127 345.703 700.792 345.251 700.142 345.194Z" fill="#FFA2A4"/>
<path d="M698.961 321.914C698.968 322.513 699.365 322.92 699.946 322.958C700.609 323.003 701.051 322.589 701.083 321.933C701.121 321.265 700.672 320.909 700.028 320.794C699.391 320.89 698.955 321.24 698.961 321.914Z" fill="#FFA2A4"/>
<path d="M698.904 337.965C698.911 338.696 699.353 339.129 700.079 339.104C700.729 339.078 701.139 338.652 701.139 337.99C701.139 337.252 700.679 336.889 699.971 336.819C699.334 336.946 698.904 337.296 698.904 337.965Z" fill="#FFA2A4"/>
<path d="M691.839 296.426C691.189 296.382 690.76 296.789 690.735 297.445C690.716 298.037 691.107 298.444 691.675 298.482C692.326 298.527 692.692 298.113 692.805 297.438C692.723 296.885 692.414 296.465 691.839 296.426Z" fill="#FFA2A4"/>
<path d="M682.634 297.413C682.615 298.132 683.019 298.577 683.733 298.603C684.446 298.628 684.882 298.221 684.913 297.496C684.945 296.77 684.516 296.388 683.733 296.267C683.139 296.369 682.647 296.668 682.634 297.413Z" fill="#FFA2A4"/>
<path d="M690.665 305.495C690.665 306.151 691.075 306.583 691.719 306.603C692.439 306.615 692.881 306.163 692.85 305.438C692.824 304.789 692.376 304.445 691.732 304.375C691.094 304.49 690.665 304.84 690.665 305.495Z" fill="#FFA2A4"/>
<path d="M690.615 313.488C690.583 314.208 690.981 314.659 691.694 314.698C692.408 314.736 692.85 314.328 692.894 313.609C692.938 312.884 692.509 312.496 691.827 312.381C691.113 312.419 690.652 312.763 690.615 313.488Z" fill="#FFA2A4"/>
<path d="M699.012 313.679C699.081 314.258 699.498 314.634 700.079 314.583C700.716 314.526 701.114 314.093 701.032 313.431C700.963 312.852 700.546 312.547 699.971 312.508C699.34 312.642 698.93 313.011 699.012 313.679Z" fill="#FFA2A4"/>
<path d="M700.129 304.604C699.593 304.553 699.207 304.795 699.144 305.362C699.081 305.966 699.353 306.367 699.99 306.399C700.54 306.424 700.855 306.125 700.918 305.572C700.925 305.024 700.685 304.661 700.129 304.604Z" fill="#FFA2A4"/>
<path d="M700.849 297.585C700.931 297.037 700.628 296.675 700.091 296.617C699.611 296.566 699.277 296.859 699.207 297.324C699.125 297.877 699.441 298.189 699.952 298.304C700.445 298.297 700.779 298.056 700.849 297.585Z" fill="#FFA2A4"/>
<path d="M708.899 330.035C708.943 329.494 708.703 329.106 708.141 329.048C707.535 328.985 707.144 329.265 707.118 329.914C707.099 330.468 707.396 330.786 707.939 330.843C708.495 330.843 708.848 330.595 708.899 330.035Z" fill="#FFA2A4"/>
<path d="M708.091 337.086C707.548 337.048 707.175 337.309 707.125 337.869C707.074 338.48 707.365 338.868 708.002 338.881C708.558 338.894 708.855 338.582 708.912 337.952C708.886 337.487 708.653 337.118 708.091 337.086Z" fill="#FFA2A4"/>
<path d="M708.836 313.66C708.899 313.113 708.596 312.757 708.047 312.718C707.56 312.68 707.238 312.986 707.182 313.45C707.118 313.998 707.44 314.309 707.958 314.411C708.457 314.386 708.785 314.125 708.836 313.66Z" fill="#FFA2A4"/>
<path d="M708.065 345.417C707.523 345.391 707.163 345.659 707.125 346.219C707.081 346.836 707.39 347.205 708.028 347.205C708.583 347.205 708.874 346.887 708.912 346.321C708.893 345.786 708.627 345.449 708.065 345.417Z" fill="#FFA2A4"/>
<path d="M708.874 321.857C708.861 321.354 708.583 321.049 708.091 321.017C707.535 320.979 707.182 321.265 707.156 321.838C707.131 322.411 707.447 322.71 708.084 322.767C708.545 322.704 708.886 322.443 708.874 321.857Z" fill="#FFA2A4"/>
<path d="M707.276 305.457C707.245 305.89 707.529 306.195 707.933 306.233C708.419 306.278 708.741 305.972 708.741 305.476C708.735 305.056 708.438 304.814 707.971 304.744C707.611 304.821 707.308 305.031 707.276 305.457Z" fill="#FFA2A4"/>
<path d="M715.951 338.722C716.381 338.754 716.684 338.467 716.721 338.06C716.766 337.57 716.463 337.245 715.97 337.245C715.553 337.252 715.314 337.551 715.25 337.971C715.295 338.397 715.534 338.684 715.951 338.722Z" fill="#FFA2A4"/>
<path d="M716.071 345.582C715.642 345.525 715.332 345.805 715.276 346.206C715.206 346.696 715.503 347.027 715.989 347.052C716.412 347.071 716.652 346.772 716.74 346.346C716.715 345.926 716.475 345.633 716.071 345.582Z" fill="#FFA2A4"/>
<path d="M707.99 296.872C707.674 296.878 707.466 297.056 707.434 297.375C707.403 297.75 707.573 298.011 707.964 298.036C708.35 298.062 708.558 297.858 708.596 297.457C708.571 297.076 708.381 296.859 707.99 296.872Z" fill="#FFA2A4"/>
<path d="M715.926 321.303C715.604 321.329 715.434 321.533 715.421 321.851C715.408 322.239 715.61 322.468 716.002 322.462C716.393 322.462 716.576 322.233 716.583 321.857C716.532 321.456 716.305 321.272 715.926 321.303Z" fill="#FFA2A4"/>
<path d="M716.614 330.035C716.658 329.596 716.456 329.309 715.989 329.303C715.604 329.303 715.389 329.513 715.37 329.901C715.351 330.29 715.547 330.506 715.977 330.57C716.298 330.57 716.576 330.43 716.614 330.035Z" fill="#FFA2A4"/>
<path d="M685.153 329.99C685.178 329.106 684.642 328.546 683.758 328.539C682.943 328.533 682.419 329.061 682.388 329.876C682.356 330.773 682.925 331.238 683.764 331.365C684.579 331.244 685.134 330.811 685.153 329.99Z" fill="#FFA2A4"/>
<path d="M682.413 321.793C682.35 322.614 682.855 323.181 683.644 323.251C684.522 323.334 685.096 322.786 685.128 321.908C685.16 321.087 684.61 320.642 683.821 320.482C683.026 320.559 682.476 320.985 682.413 321.793Z" fill="#FFA2A4"/>
<path d="M691.713 320.661C691 320.68 690.57 321.106 690.545 321.819C690.52 322.602 690.949 323.085 691.732 323.104C692.515 323.124 692.925 322.659 692.989 321.876C692.913 321.093 692.496 320.642 691.713 320.661Z" fill="#FFA2A4"/>
<path d="M693.007 337.996C693.014 337.214 692.547 336.73 691.77 336.724C690.993 336.711 690.514 337.188 690.507 337.971C690.495 338.754 690.968 339.18 691.783 339.269C692.509 339.186 693.001 338.785 693.007 337.996Z" fill="#FFA2A4"/>
<path d="M691.745 328.673C690.968 328.686 690.501 329.163 690.507 329.946C690.513 330.729 690.993 331.2 691.77 331.193C692.546 331.187 692.957 330.697 693.02 329.92C692.944 329.138 692.521 328.667 691.745 328.673Z" fill="#FFA2A4"/>
<path d="M677.154 305.54C677.179 304.719 676.661 304.171 675.866 304.133C674.988 304.095 674.426 304.649 674.433 305.533C674.439 306.348 674.994 306.787 675.79 306.908C676.579 306.793 677.128 306.361 677.154 305.54Z" fill="#FFA2A4"/>
<path d="M666.421 297.387C666.395 298.278 666.926 298.838 667.81 298.845C668.618 298.857 669.148 298.336 669.186 297.521C669.224 296.624 668.662 296.159 667.74 296.019C667.027 296.165 666.446 296.56 666.421 297.387Z" fill="#FFA2A4"/>
<path d="M685.153 338.092C685.216 337.207 684.686 336.622 683.808 336.59C682.931 336.564 682.381 337.124 682.388 338.015C682.394 338.836 682.937 339.276 683.726 339.409C684.541 339.326 685.096 338.9 685.153 338.092Z" fill="#FFA2A4"/>
<path d="M675.74 312.133C674.925 312.158 674.407 312.674 674.382 313.488C674.357 314.379 674.881 314.939 675.765 314.959C676.661 314.978 677.11 314.405 677.223 313.533C677.097 312.667 676.636 312.107 675.74 312.133Z" fill="#FFA2A4"/>
<path d="M675.834 320.432C674.938 320.412 674.388 320.896 674.351 321.806C674.313 322.78 674.837 323.34 675.815 323.34C676.724 323.34 677.173 322.786 677.255 321.895C677.185 321.004 676.743 320.451 675.834 320.432Z" fill="#FFA2A4"/>
<path d="M667.854 304.051C666.881 304.038 666.339 304.585 666.37 305.565C666.395 306.475 666.932 306.972 667.835 306.959C668.744 306.946 669.192 306.412 669.281 305.438C669.18 304.642 668.769 304.063 667.854 304.051Z" fill="#FFA2A4"/>
<path d="M659.513 296C658.611 296.019 658.093 296.535 658.093 297.445C658.093 298.431 658.661 298.953 659.627 298.908C660.536 298.864 660.959 298.291 660.997 297.381C660.89 296.503 660.416 295.981 659.513 296Z" fill="#FFA2A4"/>
<path d="M675.815 336.488C674.925 336.469 674.369 336.946 674.313 337.85C674.25 338.805 674.717 339.422 675.695 339.473C676.655 339.524 677.192 339.008 677.293 338.041C677.248 337.08 676.794 336.501 675.815 336.488Z" fill="#FFA2A4"/>
<path d="M674.338 329.742C674.25 330.703 674.692 331.327 675.676 331.403C676.56 331.473 677.154 331.034 677.249 330.118C677.35 329.15 676.876 328.584 675.897 328.431C675.039 328.457 674.42 328.819 674.338 329.742Z" fill="#FFA2A4"/>
<path d="M675.765 344.819C674.868 344.825 674.338 345.328 674.306 346.231C674.268 347.199 674.767 347.778 675.74 347.81C676.712 347.835 677.217 347.294 677.286 346.327C677.23 345.366 676.737 344.812 675.765 344.819Z" fill="#FFA2A4"/>
<path d="M666.32 313.527C666.307 314.424 666.78 314.984 667.677 315.041C668.624 315.105 669.236 314.628 669.287 313.641C669.338 312.674 668.826 312.133 667.866 312.037C666.907 312.076 666.339 312.54 666.32 313.527Z" fill="#FFA2A4"/>
<path d="M659.652 303.987C658.705 303.923 658.093 304.407 658.03 305.381C657.967 306.335 658.446 306.953 659.412 307.016C660.359 307.08 660.928 306.59 661.054 305.616C661.054 304.674 660.625 304.051 659.652 303.987Z" fill="#FFA2A4"/>
<path d="M669.375 321.978C669.42 320.985 668.813 320.33 667.829 320.304C666.907 320.279 666.288 320.877 666.237 321.793C666.187 322.793 666.806 323.353 667.784 323.493C668.7 323.397 669.331 322.894 669.375 321.978Z" fill="#FFA2A4"/>
<path d="M667.81 328.323C666.894 328.31 666.269 328.908 666.206 329.819C666.143 330.818 666.749 331.486 667.721 331.543C668.706 331.6 669.262 330.958 669.432 329.959C669.325 328.991 668.801 328.336 667.81 328.323Z" fill="#FFA2A4"/>
<path d="M659.57 311.891C658.585 311.929 657.998 312.502 657.891 313.476C657.79 314.354 658.686 315.277 659.564 315.207C660.543 315.13 661.067 314.519 661.187 313.628C661.193 312.712 660.404 311.859 659.57 311.891Z" fill="#FFA2A4"/>
<path d="M667.847 344.659C666.863 344.691 666.275 345.264 666.155 346.238C666.054 347.11 666.951 348.039 667.822 347.975C668.801 347.899 669.325 347.294 669.451 346.403C669.464 345.487 668.681 344.634 667.847 344.659Z" fill="#FFA2A4"/>
<path d="M667.772 339.626C668.75 339.645 669.344 339.021 669.451 338.047C669.546 337.169 668.649 336.246 667.772 336.323C666.793 336.405 666.269 337.01 666.143 337.984C666.269 338.951 666.793 339.606 667.772 339.626Z" fill="#FFA2A4"/>
<path d="M657.86 321.889C657.854 322.875 658.466 323.518 659.432 323.569C660.48 323.626 661.156 323.003 661.206 321.953C661.257 320.89 660.587 320.33 659.565 320.164C658.542 320.292 657.873 320.826 657.86 321.889Z" fill="#FFA2A4"/>
<path d="M659.489 328.234C658.447 328.272 657.816 328.934 657.847 329.984C657.879 331.034 658.535 331.664 659.583 331.639C660.631 331.613 661.155 330.92 661.263 329.882C661.092 328.864 660.543 328.196 659.489 328.234Z" fill="#FFA2A4"/>
<path d="M659.532 336.265C658.478 336.272 657.884 336.889 657.821 337.945C657.765 338.957 658.604 339.778 659.602 339.708C660.662 339.632 661.18 338.989 661.269 337.933C661.136 336.914 660.599 336.253 659.532 336.265Z" fill="#FFA2A4"/>
<path d="M657.821 346.27C657.834 347.332 658.402 347.956 659.45 348.045C660.448 348.128 661.288 347.307 661.243 346.301C661.199 345.226 660.574 344.698 659.728 344.59C658.598 344.577 657.815 345.315 657.821 346.27Z" fill="#FFA2A4"/>
</g>
<g clip-path="url(#clip1_2670_8)">
<path d="M626.919 347.765C627.791 347.67 628.372 347.231 628.372 346.327C628.378 345.436 627.829 344.895 626.945 344.901C626.124 344.901 625.606 345.417 625.562 346.231C625.511 347.135 626.067 347.612 626.919 347.765Z" fill="#FFA2A4"/>
<path d="M625.669 313.431C625.732 312.68 626.256 312.19 627.014 312.235C627.829 312.279 628.334 312.827 628.264 313.66C628.201 314.411 627.677 314.812 626.926 314.882C626.118 314.736 625.6 314.271 625.669 313.431Z" fill="#FFA2A4"/>
<path d="M634.875 296.146C635.695 296.108 636.232 296.617 636.257 297.445C636.276 298.208 635.784 298.724 635.039 298.762C634.212 298.807 633.757 298.278 633.631 297.47C633.713 296.706 634.123 296.185 634.875 296.146Z" fill="#FFA2A4"/>
<path d="M628.182 305.565C628.144 306.361 627.645 306.774 626.875 306.723C626.162 306.679 625.751 306.227 625.758 305.508C625.758 304.712 626.225 304.311 626.995 304.261C627.772 304.343 628.22 304.776 628.182 305.565Z" fill="#FFA2A4"/>
<path d="M619.002 345.054C619.779 345.067 620.246 345.55 620.24 346.327C620.233 347.11 619.753 347.581 618.977 347.574C618.2 347.568 617.79 347.078 617.727 346.301C617.796 345.525 618.219 345.048 619.002 345.054Z" fill="#FFA2A4"/>
<path d="M609.62 329.92C609.639 329.265 610.049 328.838 610.693 328.838C611.413 328.838 611.849 329.297 611.804 330.022C611.76 330.665 611.312 331.009 610.605 331.066C610.056 330.913 609.601 330.589 609.62 329.92Z" fill="#FFA2A4"/>
<path d="M610.599 345.194C611.325 345.124 611.786 345.538 611.836 346.27C611.88 346.938 611.476 347.377 610.832 347.441C610.1 347.517 609.702 347.071 609.576 346.384C609.614 345.703 609.948 345.251 610.599 345.194Z" fill="#FFA2A4"/>
<path d="M611.779 321.914C611.773 322.513 611.375 322.92 610.794 322.958C610.131 323.003 609.689 322.589 609.658 321.933C609.62 321.265 610.068 320.909 610.712 320.794C611.35 320.89 611.786 321.24 611.779 321.914Z" fill="#FFA2A4"/>
<path d="M611.836 337.965C611.83 338.696 611.388 339.129 610.662 339.104C610.011 339.078 609.601 338.652 609.601 337.99C609.601 337.252 610.062 336.889 610.769 336.819C611.407 336.946 611.836 337.296 611.836 337.965Z" fill="#FFA2A4"/>
<path d="M618.901 296.426C619.551 296.382 619.981 296.789 620.006 297.445C620.025 298.037 619.633 298.444 619.065 298.482C618.415 298.527 618.049 298.113 617.935 297.438C618.017 296.885 618.327 296.465 618.901 296.426Z" fill="#FFA2A4"/>
<path d="M628.106 297.413C628.125 298.132 627.721 298.577 627.008 298.603C626.294 298.628 625.859 298.221 625.827 297.496C625.795 296.77 626.225 296.388 627.008 296.267C627.601 296.369 628.094 296.668 628.106 297.413Z" fill="#FFA2A4"/>
<path d="M620.075 305.495C620.075 306.151 619.665 306.583 619.021 306.603C618.301 306.615 617.859 306.163 617.891 305.438C617.916 304.789 618.364 304.445 619.008 304.375C619.646 304.49 620.075 304.84 620.075 305.495Z" fill="#FFA2A4"/>
<path d="M620.126 313.488C620.157 314.208 619.76 314.659 619.046 314.698C618.333 314.736 617.891 314.328 617.847 313.609C617.802 312.884 618.232 312.496 618.914 312.381C619.627 312.419 620.088 312.763 620.126 313.488Z" fill="#FFA2A4"/>
<path d="M611.729 313.679C611.659 314.258 611.243 314.634 610.662 314.583C610.024 314.526 609.626 314.093 609.708 313.431C609.778 312.852 610.194 312.547 610.769 312.508C611.4 312.642 611.811 313.011 611.729 313.679Z" fill="#FFA2A4"/>
<path d="M610.611 304.604C611.148 304.553 611.533 304.795 611.596 305.362C611.659 305.966 611.388 306.367 610.75 306.399C610.201 306.424 609.885 306.125 609.822 305.572C609.816 305.024 610.056 304.661 610.611 304.604Z" fill="#FFA2A4"/>
<path d="M609.891 297.585C609.809 297.037 610.112 296.675 610.649 296.617C611.129 296.566 611.464 296.859 611.533 297.324C611.615 297.877 611.299 298.189 610.788 298.304C610.295 298.297 609.961 298.056 609.891 297.585Z" fill="#FFA2A4"/>
<path d="M601.841 330.035C601.797 329.494 602.037 329.106 602.599 329.048C603.205 328.985 603.597 329.265 603.622 329.914C603.641 330.468 603.344 330.786 602.801 330.843C602.246 330.843 601.892 330.595 601.841 330.035Z" fill="#FFA2A4"/>
<path d="M602.65 337.086C603.193 337.048 603.565 337.309 603.616 337.869C603.666 338.48 603.376 338.868 602.738 338.881C602.182 338.894 601.886 338.582 601.829 337.952C601.854 337.487 602.088 337.118 602.65 337.086Z" fill="#FFA2A4"/>
<path d="M601.905 313.66C601.841 313.113 602.145 312.757 602.694 312.718C603.18 312.68 603.502 312.986 603.559 313.45C603.622 313.998 603.3 314.309 602.782 314.411C602.283 314.386 601.955 314.125 601.905 313.66Z" fill="#FFA2A4"/>
<path d="M602.675 345.417C603.218 345.391 603.578 345.659 603.616 346.219C603.66 346.836 603.35 347.205 602.713 347.205C602.157 347.205 601.867 346.887 601.829 346.321C601.848 345.786 602.113 345.449 602.675 345.417Z" fill="#FFA2A4"/>
<path d="M601.867 321.857C601.879 321.354 602.157 321.049 602.65 321.017C603.205 320.979 603.559 321.265 603.584 321.838C603.609 322.411 603.294 322.71 602.656 322.767C602.195 322.704 601.854 322.443 601.867 321.857Z" fill="#FFA2A4"/>
<path d="M603.464 305.457C603.496 305.89 603.212 306.195 602.808 306.233C602.321 306.278 601.999 305.972 601.999 305.476C602.006 305.056 602.302 304.814 602.77 304.744C603.13 304.821 603.433 305.031 603.464 305.457Z" fill="#FFA2A4"/>
<path d="M594.789 338.722C594.36 338.754 594.057 338.467 594.019 338.06C593.975 337.57 594.278 337.245 594.77 337.245C595.187 337.252 595.427 337.551 595.49 337.971C595.446 338.397 595.206 338.684 594.789 338.722Z" fill="#FFA2A4"/>
<path d="M594.669 345.582C595.099 345.525 595.408 345.805 595.465 346.206C595.534 346.696 595.237 347.027 594.751 347.052C594.328 347.071 594.088 346.772 594 346.346C594.025 345.926 594.265 345.633 594.669 345.582Z" fill="#FFA2A4"/>
<path d="M602.751 296.872C603.066 296.878 603.275 297.056 603.306 297.375C603.338 297.75 603.167 298.011 602.776 298.036C602.391 298.062 602.182 297.858 602.145 297.457C602.17 297.076 602.359 296.859 602.751 296.872Z" fill="#FFA2A4"/>
<path d="M594.814 321.303C595.136 321.329 595.307 321.533 595.32 321.851C595.332 322.239 595.13 322.468 594.739 322.462C594.347 322.462 594.164 322.233 594.158 321.857C594.208 321.456 594.436 321.272 594.814 321.303Z" fill="#FFA2A4"/>
<path d="M594.126 330.035C594.082 329.596 594.284 329.309 594.751 329.303C595.136 329.303 595.351 329.513 595.37 329.901C595.389 330.289 595.193 330.506 594.764 330.57C594.442 330.57 594.164 330.429 594.126 330.035Z" fill="#FFA2A4"/>
<path d="M625.587 329.99C625.562 329.106 626.099 328.546 626.982 328.539C627.797 328.533 628.321 329.061 628.353 329.876C628.384 330.773 627.816 331.238 626.976 331.365C626.162 331.244 625.606 330.811 625.587 329.99Z" fill="#FFA2A4"/>
<path d="M628.327 321.793C628.39 322.614 627.885 323.181 627.096 323.251C626.219 323.334 625.644 322.786 625.612 321.908C625.581 321.087 626.13 320.642 626.919 320.482C627.715 320.559 628.264 320.985 628.327 321.793Z" fill="#FFA2A4"/>
<path d="M619.027 320.661C619.741 320.68 620.17 321.106 620.195 321.819C620.221 322.602 619.791 323.085 619.008 323.104C618.225 323.124 617.815 322.659 617.752 321.876C617.828 321.093 618.244 320.642 619.027 320.661Z" fill="#FFA2A4"/>
<path d="M617.733 337.996C617.727 337.214 618.194 336.73 618.97 336.724C619.747 336.711 620.227 337.188 620.233 337.971C620.246 338.754 619.772 339.18 618.958 339.269C618.232 339.186 617.739 338.785 617.733 337.996Z" fill="#FFA2A4"/>
<path d="M618.996 328.673C619.772 328.686 620.24 329.163 620.233 329.946C620.227 330.729 619.747 331.2 618.97 331.193C618.194 331.187 617.784 330.697 617.72 329.92C617.796 329.138 618.219 328.667 618.996 328.673Z" fill="#FFA2A4"/>
<path d="M633.587 305.54C633.561 304.719 634.079 304.171 634.875 304.133C635.752 304.095 636.314 304.649 636.308 305.533C636.301 306.348 635.746 306.787 634.95 306.908C634.161 306.793 633.612 306.361 633.587 305.54Z" fill="#FFA2A4"/>
<path d="M644.32 297.387C644.345 298.278 643.815 298.838 642.931 298.845C642.123 298.857 641.592 298.336 641.554 297.521C641.517 296.624 642.078 296.159 643 296.019C643.714 296.165 644.295 296.56 644.32 297.387Z" fill="#FFA2A4"/>
<path d="M625.587 338.092C625.524 337.207 626.054 336.622 626.932 336.59C627.81 336.564 628.359 337.124 628.353 338.015C628.346 338.836 627.803 339.276 627.014 339.409C626.2 339.326 625.644 338.9 625.587 338.092Z" fill="#FFA2A4"/>
<path d="M635.001 312.133C635.815 312.158 636.333 312.674 636.358 313.488C636.384 314.379 635.859 314.939 634.976 314.959C634.079 314.978 633.631 314.405 633.517 313.533C633.643 312.667 634.104 312.107 635.001 312.133Z" fill="#FFA2A4"/>
<path d="M634.906 320.432C635.803 320.412 636.352 320.896 636.39 321.806C636.428 322.78 635.904 323.34 634.925 323.34C634.016 323.34 633.568 322.786 633.486 321.895C633.555 321.004 633.997 320.451 634.906 320.432Z" fill="#FFA2A4"/>
<path d="M642.887 304.051C643.859 304.038 644.402 304.585 644.37 305.565C644.345 306.475 643.808 306.972 642.906 306.959C641.996 306.946 641.548 306.412 641.46 305.438C641.561 304.642 641.971 304.063 642.887 304.051Z" fill="#FFA2A4"/>
<path d="M651.227 296C652.13 296.019 652.648 296.535 652.648 297.445C652.648 298.431 652.079 298.953 651.113 298.908C650.204 298.864 649.781 298.291 649.743 297.381C649.851 296.503 650.324 295.981 651.227 296Z" fill="#FFA2A4"/>
<path d="M634.925 336.488C635.815 336.469 636.371 336.946 636.428 337.85C636.491 338.805 636.024 339.422 635.045 339.473C634.085 339.524 633.549 339.008 633.448 338.041C633.492 337.08 633.946 336.501 634.925 336.488Z" fill="#FFA2A4"/>
<path d="M636.403 329.742C636.491 330.703 636.049 331.327 635.064 331.403C634.18 331.473 633.587 331.034 633.492 330.118C633.391 329.15 633.864 328.584 634.843 328.431C635.702 328.457 636.32 328.819 636.403 329.742Z" fill="#FFA2A4"/>
<path d="M634.976 344.819C635.872 344.825 636.402 345.328 636.434 346.231C636.472 347.199 635.973 347.778 635.001 347.81C634.029 347.835 633.523 347.294 633.454 346.327C633.511 345.366 634.003 344.812 634.976 344.819Z" fill="#FFA2A4"/>
<path d="M644.421 313.527C644.434 314.424 643.96 314.984 643.063 315.041C642.116 315.105 641.504 314.628 641.453 313.641C641.403 312.674 641.914 312.133 642.874 312.037C643.834 312.076 644.402 312.54 644.421 313.527Z" fill="#FFA2A4"/>
<path d="M651.088 303.987C652.035 303.923 652.648 304.407 652.711 305.381C652.774 306.335 652.294 306.953 651.328 307.016C650.381 307.08 649.813 306.59 649.686 305.616C649.686 304.674 650.116 304.051 651.088 303.987Z" fill="#FFA2A4"/>
<path d="M641.365 321.978C641.321 320.985 641.927 320.33 642.912 320.304C643.834 320.279 644.452 320.877 644.503 321.793C644.553 322.793 643.935 323.353 642.956 323.493C642.041 323.397 641.409 322.894 641.365 321.978Z" fill="#FFA2A4"/>
<path d="M642.931 328.323C643.846 328.31 644.471 328.908 644.534 329.819C644.598 330.818 643.991 331.486 643.019 331.543C642.034 331.6 641.479 330.958 641.308 329.959C641.415 328.991 641.94 328.336 642.931 328.323Z" fill="#FFA2A4"/>
<path d="M651.17 311.891C652.155 311.929 652.742 312.502 652.85 313.476C652.951 314.354 652.054 315.277 651.176 315.207C650.198 315.13 649.674 314.519 649.554 313.628C649.548 312.712 650.337 311.859 651.17 311.891Z" fill="#FFA2A4"/>
<path d="M642.893 344.659C643.878 344.691 644.465 345.264 644.585 346.238C644.686 347.11 643.789 348.039 642.918 347.975C641.94 347.899 641.416 347.294 641.289 346.403C641.277 345.487 642.059 344.634 642.893 344.659Z" fill="#FFA2A4"/>
<path d="M642.969 339.626C641.99 339.645 641.397 339.021 641.289 338.047C641.195 337.169 642.091 336.246 642.969 336.323C643.947 336.405 644.471 337.01 644.598 337.984C644.471 338.951 643.947 339.606 642.969 339.626Z" fill="#FFA2A4"/>
<path d="M652.881 321.889C652.887 322.875 652.274 323.518 651.308 323.569C650.26 323.626 649.585 323.003 649.534 321.953C649.484 320.89 650.153 320.33 651.176 320.164C652.199 320.292 652.868 320.826 652.881 321.889Z" fill="#FFA2A4"/>
<path d="M651.252 328.234C652.294 328.272 652.925 328.934 652.893 329.984C652.862 331.034 652.205 331.664 651.157 331.639C650.109 331.613 649.585 330.92 649.478 329.882C649.648 328.864 650.197 328.196 651.252 328.234Z" fill="#FFA2A4"/>
<path d="M651.208 336.265C652.262 336.272 652.856 336.889 652.919 337.945C652.976 338.957 652.136 339.778 651.138 339.708C650.078 339.632 649.56 338.989 649.472 337.933C649.604 336.914 650.141 336.253 651.208 336.265Z" fill="#FFA2A4"/>
<path d="M652.919 346.27C652.906 347.332 652.338 347.956 651.29 348.045C650.293 348.128 649.453 347.307 649.497 346.301C649.541 345.226 650.166 344.698 651.012 344.59C652.142 344.577 652.925 345.315 652.919 346.27Z" fill="#FFA2A4"/>
</g>
<g clip-path="url(#clip2_2670_8)">
<path d="M683.821 353.228C682.95 353.323 682.369 353.762 682.369 354.666C682.363 355.557 682.912 356.098 683.796 356.091C684.616 356.091 685.134 355.576 685.178 354.761C685.229 353.858 684.673 353.38 683.821 353.228Z" fill="#FFA2A4"/>
<path d="M685.071 387.562C685.008 388.313 684.484 388.803 683.726 388.758C682.912 388.713 682.407 388.166 682.476 387.332C682.539 386.582 683.063 386.181 683.815 386.111C684.623 386.257 685.141 386.722 685.071 387.562Z" fill="#FFA2A4"/>
<path d="M675.866 404.846C675.045 404.885 674.508 404.375 674.483 403.548C674.464 402.784 674.957 402.269 675.702 402.231C676.529 402.186 676.983 402.714 677.11 403.523C677.027 404.286 676.617 404.808 675.866 404.846Z" fill="#FFA2A4"/>
<path d="M682.558 395.428C682.596 394.632 683.095 394.218 683.865 394.269C684.579 394.314 684.989 394.766 684.983 395.485C684.983 396.28 684.515 396.681 683.745 396.732C682.969 396.649 682.52 396.217 682.558 395.428Z" fill="#FFA2A4"/>
<path d="M691.738 355.939C690.962 355.926 690.495 355.442 690.501 354.666C690.507 353.883 690.987 353.412 691.764 353.418C692.54 353.425 692.951 353.915 693.014 354.691C692.944 355.468 692.521 355.945 691.738 355.939Z" fill="#FFA2A4"/>
<path d="M701.12 371.072C701.102 371.728 700.691 372.154 700.047 372.154C699.327 372.154 698.892 371.696 698.936 370.971C698.98 370.328 699.428 369.984 700.136 369.927C700.685 370.08 701.139 370.404 701.12 371.072Z" fill="#FFA2A4"/>
<path d="M700.142 355.799C699.416 355.869 698.955 355.455 698.904 354.723C698.86 354.055 699.264 353.616 699.908 353.552C700.641 353.476 701.038 353.921 701.165 354.609C701.127 355.289 700.792 355.741 700.142 355.799Z" fill="#FFA2A4"/>
<path d="M698.961 379.078C698.968 378.48 699.365 378.073 699.946 378.035C700.609 377.99 701.051 378.404 701.083 379.059C701.121 379.727 700.672 380.084 700.028 380.198C699.391 380.103 698.955 379.753 698.961 379.078Z" fill="#FFA2A4"/>
<path d="M698.904 363.028C698.911 362.296 699.353 361.864 700.079 361.889C700.729 361.914 701.139 362.341 701.139 363.003C701.139 363.741 700.679 364.104 699.971 364.174C699.334 364.046 698.904 363.696 698.904 363.028Z" fill="#FFA2A4"/>
<path d="M691.839 404.566C691.189 404.611 690.76 404.204 690.735 403.548C690.716 402.956 691.107 402.549 691.675 402.511C692.326 402.466 692.692 402.88 692.805 403.554C692.723 404.108 692.414 404.528 691.839 404.566Z" fill="#FFA2A4"/>
<path d="M682.634 403.58C682.615 402.861 683.019 402.415 683.733 402.39C684.446 402.364 684.882 402.772 684.913 403.497C684.945 404.223 684.516 404.604 683.733 404.725C683.139 404.624 682.647 404.324 682.634 403.58Z" fill="#FFA2A4"/>
<path d="M690.665 395.498C690.665 394.842 691.075 394.409 691.719 394.39C692.439 394.377 692.881 394.829 692.85 395.555C692.824 396.204 692.376 396.548 691.732 396.618C691.094 396.503 690.665 396.153 690.665 395.498Z" fill="#FFA2A4"/>
<path d="M690.615 387.504C690.583 386.785 690.981 386.333 691.694 386.295C692.408 386.257 692.85 386.664 692.894 387.383C692.938 388.109 692.509 388.497 691.827 388.612C691.113 388.573 690.652 388.23 690.615 387.504Z" fill="#FFA2A4"/>
<path d="M699.012 387.313C699.081 386.734 699.498 386.359 700.079 386.41C700.716 386.467 701.114 386.9 701.032 387.562C700.963 388.141 700.546 388.446 699.971 388.484C699.34 388.351 698.93 387.982 699.012 387.313Z" fill="#FFA2A4"/>
<path d="M700.129 396.388C699.593 396.439 699.207 396.198 699.144 395.631C699.081 395.027 699.353 394.626 699.99 394.594C700.54 394.568 700.855 394.867 700.918 395.421C700.925 395.968 700.685 396.331 700.129 396.388Z" fill="#FFA2A4"/>
<path d="M700.849 403.408C700.931 403.955 700.628 404.318 700.091 404.375C699.611 404.426 699.277 404.134 699.207 403.669C699.125 403.115 699.441 402.803 699.952 402.689C700.445 402.695 700.779 402.937 700.849 403.408Z" fill="#FFA2A4"/>
<path d="M708.899 370.958C708.943 371.499 708.703 371.887 708.141 371.944C707.535 372.008 707.144 371.728 707.118 371.079C707.099 370.525 707.396 370.207 707.939 370.15C708.495 370.15 708.848 370.398 708.899 370.958Z" fill="#FFA2A4"/>
<path d="M708.091 363.906C707.548 363.945 707.175 363.684 707.125 363.124C707.074 362.513 707.365 362.124 708.002 362.112C708.558 362.099 708.855 362.411 708.912 363.041C708.886 363.505 708.653 363.875 708.091 363.906Z" fill="#FFA2A4"/>
<path d="M708.836 387.332C708.899 387.88 708.596 388.236 708.047 388.274C707.56 388.313 707.238 388.007 707.182 387.542C707.118 386.995 707.44 386.683 707.958 386.582C708.457 386.607 708.785 386.868 708.836 387.332Z" fill="#FFA2A4"/>
<path d="M708.065 355.576C707.523 355.601 707.163 355.334 707.125 354.774C707.081 354.157 707.39 353.788 708.028 353.788C708.583 353.788 708.874 354.106 708.912 354.672C708.893 355.207 708.627 355.544 708.065 355.576Z" fill="#FFA2A4"/>
<path d="M708.874 379.136C708.861 379.638 708.583 379.944 708.091 379.976C707.535 380.014 707.182 379.727 707.156 379.155C707.131 378.582 707.447 378.283 708.084 378.226C708.545 378.289 708.886 378.55 708.874 379.136Z" fill="#FFA2A4"/>
<path d="M707.276 395.536C707.245 395.103 707.529 394.797 707.933 394.759C708.419 394.715 708.741 395.02 708.741 395.517C708.735 395.937 708.438 396.178 707.971 396.248C707.611 396.172 707.308 395.962 707.276 395.536Z" fill="#FFA2A4"/>
<path d="M715.951 362.271C716.381 362.239 716.684 362.525 716.721 362.933C716.766 363.423 716.463 363.747 715.97 363.747C715.553 363.741 715.314 363.442 715.25 363.022C715.295 362.595 715.534 362.309 715.951 362.271Z" fill="#FFA2A4"/>
<path d="M716.071 355.41C715.642 355.468 715.332 355.188 715.276 354.787C715.206 354.297 715.503 353.966 715.989 353.94C716.412 353.921 716.652 354.22 716.74 354.647C716.715 355.067 716.475 355.359 716.071 355.41Z" fill="#FFA2A4"/>
<path d="M707.99 404.121C707.674 404.114 707.466 403.936 707.434 403.618C707.403 403.243 707.573 402.982 707.964 402.956C708.35 402.931 708.558 403.134 708.596 403.535C708.571 403.917 708.381 404.134 707.99 404.121Z" fill="#FFA2A4"/>
<path d="M715.926 379.689C715.604 379.664 715.434 379.46 715.421 379.142C715.408 378.754 715.61 378.525 716.002 378.531C716.393 378.531 716.576 378.76 716.583 379.136C716.532 379.537 716.305 379.721 715.926 379.689Z" fill="#FFA2A4"/>
<path d="M716.614 370.958C716.658 371.397 716.456 371.683 715.989 371.69C715.604 371.69 715.389 371.48 715.37 371.091C715.351 370.703 715.547 370.487 715.977 370.423C716.298 370.423 716.576 370.563 716.614 370.958Z" fill="#FFA2A4"/>
<path d="M685.153 371.002C685.178 371.887 684.642 372.447 683.758 372.453C682.943 372.46 682.419 371.931 682.388 371.117C682.356 370.22 682.925 369.755 683.764 369.628C684.579 369.749 685.134 370.181 685.153 371.002Z" fill="#FFA2A4"/>
<path d="M682.413 379.199C682.35 378.378 682.855 377.812 683.644 377.742C684.522 377.659 685.096 378.206 685.128 379.085C685.16 379.906 684.61 380.351 683.821 380.51C683.026 380.434 682.476 380.007 682.413 379.199Z" fill="#FFA2A4"/>
<path d="M691.713 380.332C691 380.313 690.57 379.887 690.545 379.174C690.52 378.391 690.949 377.907 691.732 377.888C692.515 377.869 692.925 378.334 692.989 379.116C692.913 379.899 692.496 380.351 691.713 380.332Z" fill="#FFA2A4"/>
<path d="M693.007 362.996C693.014 363.779 692.547 364.263 691.77 364.269C690.993 364.282 690.514 363.805 690.507 363.022C690.495 362.239 690.968 361.813 691.783 361.724C692.509 361.806 693.001 362.207 693.007 362.996Z" fill="#FFA2A4"/>
<path d="M691.745 372.32C690.968 372.307 690.501 371.83 690.507 371.047C690.513 370.264 690.993 369.793 691.77 369.8C692.546 369.806 692.957 370.296 693.02 371.072C692.944 371.855 692.521 372.326 691.745 372.32Z" fill="#FFA2A4"/>
<path d="M677.154 395.453C677.179 396.274 676.661 396.821 675.866 396.859C674.988 396.898 674.426 396.344 674.433 395.459C674.439 394.645 674.994 394.206 675.79 394.085C676.579 394.199 677.128 394.632 677.154 395.453Z" fill="#FFA2A4"/>
<path d="M666.421 403.605C666.395 402.714 666.926 402.154 667.81 402.148C668.618 402.135 669.148 402.657 669.186 403.472C669.224 404.369 668.662 404.834 667.74 404.974C667.027 404.827 666.446 404.433 666.421 403.605Z" fill="#FFA2A4"/>
<path d="M685.153 362.901C685.216 363.785 684.686 364.371 683.808 364.403C682.931 364.428 682.381 363.868 682.388 362.977C682.394 362.156 682.937 361.717 683.726 361.584C684.541 361.666 685.096 362.093 685.153 362.901Z" fill="#FFA2A4"/>
<path d="M675.74 388.86C674.925 388.834 674.407 388.319 674.382 387.504C674.357 386.613 674.881 386.053 675.765 386.034C676.661 386.015 677.11 386.588 677.223 387.46C677.097 388.325 676.636 388.885 675.74 388.86Z" fill="#FFA2A4"/>
<path d="M675.834 380.561C674.938 380.58 674.388 380.097 674.351 379.186C674.313 378.213 674.837 377.653 675.815 377.653C676.724 377.653 677.173 378.206 677.255 379.097C677.185 379.988 676.743 380.542 675.834 380.561Z" fill="#FFA2A4"/>
<path d="M667.854 396.942C666.881 396.955 666.339 396.408 666.37 395.428C666.395 394.517 666.932 394.021 667.835 394.034C668.744 394.047 669.192 394.581 669.281 395.555C669.18 396.35 668.769 396.929 667.854 396.942Z" fill="#FFA2A4"/>
<path d="M659.513 404.993C658.611 404.974 658.093 404.458 658.093 403.548C658.093 402.562 658.661 402.04 659.627 402.084C660.536 402.129 660.959 402.702 660.997 403.612C660.89 404.49 660.416 405.012 659.513 404.993Z" fill="#FFA2A4"/>
<path d="M675.815 364.505C674.925 364.524 674.369 364.046 674.313 363.143C674.25 362.188 674.717 361.571 675.695 361.52C676.655 361.469 677.192 361.984 677.293 362.952C677.248 363.913 676.794 364.492 675.815 364.505Z" fill="#FFA2A4"/>
<path d="M674.338 371.251C674.25 370.29 674.692 369.666 675.676 369.589C676.56 369.519 677.154 369.959 677.249 370.875C677.35 371.842 676.876 372.409 675.897 372.562C675.039 372.536 674.42 372.173 674.338 371.251Z" fill="#FFA2A4"/>
<path d="M675.765 356.174C674.868 356.168 674.338 355.665 674.306 354.761C674.268 353.794 674.767 353.215 675.74 353.183C676.712 353.158 677.217 353.698 677.286 354.666C677.23 355.627 676.737 356.18 675.765 356.174Z" fill="#FFA2A4"/>
<path d="M666.32 387.466C666.307 386.569 666.78 386.009 667.677 385.951C668.624 385.888 669.236 386.365 669.287 387.352C669.338 388.319 668.826 388.86 667.866 388.955C666.907 388.917 666.339 388.453 666.32 387.466Z" fill="#FFA2A4"/>
<path d="M659.652 397.006C658.705 397.069 658.093 396.586 658.03 395.612C657.967 394.657 658.446 394.04 659.412 393.977C660.359 393.913 660.928 394.403 661.054 395.377C661.054 396.318 660.625 396.942 659.652 397.006Z" fill="#FFA2A4"/>
<path d="M669.375 379.015C669.42 380.007 668.813 380.663 667.829 380.688C666.907 380.714 666.288 380.116 666.237 379.199C666.187 378.2 666.806 377.64 667.784 377.5C668.7 377.595 669.331 378.098 669.375 379.015Z" fill="#FFA2A4"/>
<path d="M667.81 372.67C666.894 372.682 666.269 372.084 666.206 371.174C666.143 370.175 666.749 369.507 667.721 369.449C668.706 369.392 669.262 370.035 669.432 371.034C669.325 372.001 668.801 372.657 667.81 372.67Z" fill="#FFA2A4"/>
<path d="M659.57 389.102C658.585 389.063 657.998 388.491 657.891 387.517C657.79 386.639 658.686 385.716 659.564 385.786C660.543 385.862 661.067 386.473 661.187 387.364C661.193 388.281 660.404 389.133 659.57 389.102Z" fill="#FFA2A4"/>
<path d="M667.847 356.333C666.863 356.301 666.275 355.729 666.155 354.755C666.054 353.883 666.951 352.954 667.822 353.018C668.801 353.094 669.325 353.698 669.451 354.589C669.464 355.506 668.681 356.359 667.847 356.333Z" fill="#FFA2A4"/>
<path d="M667.772 361.367C668.75 361.348 669.344 361.972 669.451 362.945C669.546 363.824 668.649 364.746 667.772 364.67C666.793 364.587 666.269 363.983 666.143 363.009C666.269 362.042 666.793 361.386 667.772 361.367Z" fill="#FFA2A4"/>
<path d="M657.86 379.104C657.854 378.117 658.466 377.475 659.432 377.424C660.48 377.366 661.156 377.99 661.206 379.04C661.257 380.103 660.587 380.663 659.565 380.828C658.542 380.701 657.873 380.167 657.86 379.104Z" fill="#FFA2A4"/>
<path d="M659.489 372.759C658.447 372.721 657.816 372.059 657.847 371.009C657.879 369.959 658.535 369.329 659.583 369.354C660.631 369.379 661.155 370.073 661.263 371.111C661.092 372.129 660.543 372.797 659.489 372.759Z" fill="#FFA2A4"/>
<path d="M659.532 364.727C658.478 364.721 657.884 364.104 657.821 363.047C657.765 362.035 658.604 361.214 659.602 361.284C660.662 361.361 661.18 362.004 661.269 363.06C661.136 364.078 660.599 364.74 659.532 364.727Z" fill="#FFA2A4"/>
<path d="M657.821 354.723C657.834 353.66 658.402 353.037 659.45 352.948C660.448 352.865 661.288 353.686 661.243 354.691C661.199 355.767 660.574 356.295 659.728 356.403C658.598 356.416 657.815 355.678 657.821 354.723Z" fill="#FFA2A4"/>
</g>
<g clip-path="url(#clip3_2670_8)">
<path d="M626.919 353.228C627.791 353.323 628.372 353.762 628.372 354.666C628.378 355.557 627.829 356.098 626.945 356.091C626.124 356.091 625.606 355.576 625.562 354.761C625.511 353.858 626.067 353.38 626.919 353.228Z" fill="#FFA2A4"/>
<path d="M625.669 387.562C625.732 388.313 626.256 388.803 627.014 388.758C627.829 388.713 628.334 388.166 628.264 387.332C628.201 386.582 627.677 386.181 626.926 386.111C626.118 386.257 625.6 386.722 625.669 387.562Z" fill="#FFA2A4"/>
<path d="M634.875 404.846C635.695 404.885 636.232 404.375 636.257 403.548C636.276 402.784 635.784 402.269 635.039 402.231C634.212 402.186 633.757 402.714 633.631 403.523C633.713 404.286 634.123 404.808 634.875 404.846Z" fill="#FFA2A4"/>
<path d="M628.182 395.428C628.144 394.632 627.645 394.218 626.875 394.269C626.162 394.314 625.751 394.766 625.758 395.485C625.758 396.28 626.225 396.681 626.995 396.732C627.772 396.649 628.22 396.217 628.182 395.428Z" fill="#FFA2A4"/>
<path d="M619.002 355.939C619.779 355.926 620.246 355.442 620.24 354.666C620.233 353.883 619.753 353.412 618.977 353.418C618.2 353.425 617.79 353.915 617.727 354.691C617.796 355.468 618.219 355.945 619.002 355.939Z" fill="#FFA2A4"/>
<path d="M609.62 371.072C609.639 371.728 610.049 372.154 610.693 372.154C611.413 372.154 611.849 371.696 611.804 370.971C611.76 370.328 611.312 369.984 610.605 369.927C610.056 370.08 609.601 370.404 609.62 371.072Z" fill="#FFA2A4"/>
<path d="M610.599 355.799C611.325 355.869 611.786 355.455 611.836 354.723C611.88 354.055 611.476 353.616 610.832 353.552C610.1 353.476 609.702 353.921 609.576 354.609C609.614 355.289 609.948 355.741 610.599 355.799Z" fill="#FFA2A4"/>
<path d="M611.779 379.078C611.773 378.48 611.375 378.073 610.794 378.035C610.131 377.99 609.689 378.404 609.658 379.059C609.62 379.727 610.068 380.084 610.712 380.198C611.35 380.103 611.786 379.753 611.779 379.078Z" fill="#FFA2A4"/>
<path d="M611.836 363.028C611.83 362.296 611.388 361.864 610.662 361.889C610.011 361.914 609.601 362.341 609.601 363.003C609.601 363.741 610.062 364.104 610.769 364.174C611.407 364.046 611.836 363.696 611.836 363.028Z" fill="#FFA2A4"/>
<path d="M618.901 404.566C619.551 404.611 619.981 404.204 620.006 403.548C620.025 402.956 619.633 402.549 619.065 402.511C618.415 402.466 618.049 402.88 617.935 403.554C618.017 404.108 618.327 404.528 618.901 404.566Z" fill="#FFA2A4"/>
<path d="M628.106 403.58C628.125 402.861 627.721 402.415 627.008 402.39C626.294 402.364 625.859 402.772 625.827 403.497C625.795 404.223 626.225 404.604 627.008 404.725C627.601 404.624 628.094 404.324 628.106 403.58Z" fill="#FFA2A4"/>
<path d="M620.075 395.498C620.075 394.842 619.665 394.409 619.021 394.39C618.301 394.377 617.859 394.829 617.891 395.555C617.916 396.204 618.364 396.548 619.008 396.618C619.646 396.503 620.075 396.153 620.075 395.498Z" fill="#FFA2A4"/>
<path d="M620.126 387.504C620.157 386.785 619.76 386.333 619.046 386.295C618.333 386.257 617.891 386.664 617.847 387.383C617.802 388.109 618.232 388.497 618.914 388.612C619.627 388.573 620.088 388.23 620.126 387.504Z" fill="#FFA2A4"/>
<path d="M611.729 387.313C611.659 386.734 611.243 386.359 610.662 386.41C610.024 386.467 609.626 386.9 609.708 387.562C609.778 388.141 610.194 388.446 610.769 388.484C611.4 388.351 611.811 387.982 611.729 387.313Z" fill="#FFA2A4"/>
<path d="M610.611 396.388C611.148 396.439 611.533 396.198 611.596 395.631C611.659 395.027 611.388 394.626 610.75 394.594C610.201 394.568 609.885 394.867 609.822 395.421C609.816 395.968 610.056 396.331 610.611 396.388Z" fill="#FFA2A4"/>
<path d="M609.891 403.408C609.809 403.955 610.112 404.318 610.649 404.375C611.129 404.426 611.464 404.134 611.533 403.669C611.615 403.115 611.299 402.803 610.788 402.689C610.295 402.695 609.961 402.937 609.891 403.408Z" fill="#FFA2A4"/>
<path d="M601.841 370.958C601.797 371.499 602.037 371.887 602.599 371.944C603.205 372.008 603.597 371.728 603.622 371.079C603.641 370.525 603.344 370.207 602.801 370.15C602.246 370.15 601.892 370.398 601.841 370.958Z" fill="#FFA2A4"/>
<path d="M602.65 363.906C603.193 363.945 603.565 363.684 603.616 363.124C603.666 362.513 603.376 362.124 602.738 362.112C602.182 362.099 601.886 362.411 601.829 363.041C601.854 363.505 602.088 363.875 602.65 363.906Z" fill="#FFA2A4"/>
<path d="M601.905 387.332C601.841 387.88 602.145 388.236 602.694 388.274C603.18 388.313 603.502 388.007 603.559 387.542C603.622 386.995 603.3 386.683 602.782 386.582C602.283 386.607 601.955 386.868 601.905 387.332Z" fill="#FFA2A4"/>
<path d="M602.675 355.576C603.218 355.601 603.578 355.334 603.616 354.774C603.66 354.157 603.35 353.788 602.713 353.788C602.157 353.788 601.867 354.106 601.829 354.672C601.848 355.207 602.113 355.544 602.675 355.576Z" fill="#FFA2A4"/>
<path d="M601.867 379.136C601.879 379.638 602.157 379.944 602.65 379.976C603.205 380.014 603.559 379.727 603.584 379.155C603.609 378.582 603.294 378.283 602.656 378.226C602.195 378.289 601.854 378.55 601.867 379.136Z" fill="#FFA2A4"/>
<path d="M603.464 395.536C603.496 395.103 603.212 394.797 602.808 394.759C602.321 394.715 601.999 395.02 601.999 395.517C602.006 395.937 602.302 396.178 602.77 396.248C603.13 396.172 603.433 395.962 603.464 395.536Z" fill="#FFA2A4"/>
<path d="M594.789 362.271C594.36 362.239 594.057 362.525 594.019 362.933C593.975 363.423 594.278 363.747 594.77 363.747C595.187 363.741 595.427 363.442 595.49 363.022C595.446 362.595 595.206 362.309 594.789 362.271Z" fill="#FFA2A4"/>
<path d="M594.669 355.41C595.099 355.468 595.408 355.188 595.465 354.787C595.534 354.297 595.237 353.966 594.751 353.94C594.328 353.921 594.088 354.22 594 354.647C594.025 355.067 594.265 355.359 594.669 355.41Z" fill="#FFA2A4"/>
<path d="M602.751 404.121C603.066 404.114 603.275 403.936 603.306 403.618C603.338 403.243 603.167 402.982 602.776 402.956C602.391 402.931 602.182 403.134 602.145 403.535C602.17 403.917 602.359 404.134 602.751 404.121Z" fill="#FFA2A4"/>
<path d="M594.814 379.689C595.136 379.664 595.307 379.46 595.32 379.142C595.332 378.754 595.13 378.525 594.739 378.531C594.347 378.531 594.164 378.76 594.158 379.136C594.208 379.537 594.436 379.721 594.814 379.689Z" fill="#FFA2A4"/>
<path d="M594.126 370.958C594.082 371.397 594.284 371.683 594.751 371.69C595.136 371.69 595.351 371.48 595.37 371.091C595.389 370.703 595.193 370.487 594.764 370.423C594.442 370.423 594.164 370.563 594.126 370.958Z" fill="#FFA2A4"/>
<path d="M625.587 371.002C625.562 371.887 626.099 372.447 626.982 372.453C627.797 372.46 628.321 371.931 628.353 371.117C628.384 370.22 627.816 369.755 626.976 369.628C626.162 369.749 625.606 370.181 625.587 371.002Z" fill="#FFA2A4"/>
<path d="M628.327 379.199C628.39 378.378 627.885 377.812 627.096 377.742C626.219 377.659 625.644 378.206 625.612 379.085C625.581 379.906 626.13 380.351 626.919 380.51C627.715 380.434 628.264 380.007 628.327 379.199Z" fill="#FFA2A4"/>
<path d="M619.027 380.332C619.741 380.313 620.17 379.887 620.195 379.174C620.221 378.391 619.791 377.907 619.008 377.888C618.225 377.869 617.815 378.334 617.752 379.116C617.828 379.899 618.244 380.351 619.027 380.332Z" fill="#FFA2A4"/>
<path d="M617.733 362.996C617.727 363.779 618.194 364.263 618.97 364.269C619.747 364.282 620.227 363.805 620.233 363.022C620.246 362.239 619.772 361.813 618.958 361.724C618.232 361.806 617.739 362.207 617.733 362.996Z" fill="#FFA2A4"/>
<path d="M618.996 372.32C619.772 372.307 620.24 371.83 620.233 371.047C620.227 370.264 619.747 369.793 618.97 369.8C618.194 369.806 617.784 370.296 617.72 371.072C617.796 371.855 618.219 372.326 618.996 372.32Z" fill="#FFA2A4"/>
<path d="M633.587 395.453C633.561 396.274 634.079 396.821 634.875 396.859C635.752 396.898 636.314 396.344 636.308 395.459C636.301 394.645 635.746 394.206 634.95 394.085C634.161 394.199 633.612 394.632 633.587 395.453Z" fill="#FFA2A4"/>
<path d="M644.32 403.605C644.345 402.714 643.815 402.154 642.931 402.148C642.123 402.135 641.592 402.657 641.554 403.472C641.517 404.369 642.078 404.834 643 404.974C643.714 404.827 644.295 404.433 644.32 403.605Z" fill="#FFA2A4"/>
<path d="M625.587 362.901C625.524 363.785 626.054 364.371 626.932 364.403C627.81 364.428 628.359 363.868 628.353 362.977C628.346 362.156 627.803 361.717 627.014 361.584C626.2 361.666 625.644 362.093 625.587 362.901Z" fill="#FFA2A4"/>
<path d="M635.001 388.86C635.815 388.834 636.333 388.319 636.358 387.504C636.384 386.613 635.859 386.053 634.976 386.034C634.079 386.015 633.631 386.588 633.517 387.46C633.643 388.325 634.104 388.885 635.001 388.86Z" fill="#FFA2A4"/>
<path d="M634.906 380.561C635.803 380.58 636.352 380.097 636.39 379.186C636.428 378.213 635.904 377.653 634.925 377.653C634.016 377.653 633.568 378.206 633.486 379.097C633.555 379.988 633.997 380.542 634.906 380.561Z" fill="#FFA2A4"/>
<path d="M642.887 396.942C643.859 396.955 644.402 396.408 644.37 395.428C644.345 394.517 643.808 394.021 642.906 394.034C641.996 394.047 641.548 394.581 641.46 395.555C641.561 396.35 641.971 396.929 642.887 396.942Z" fill="#FFA2A4"/>
<path d="M651.227 404.993C652.13 404.974 652.648 404.458 652.648 403.548C652.648 402.562 652.079 402.04 651.113 402.084C650.204 402.129 649.781 402.702 649.743 403.612C649.851 404.49 650.324 405.012 651.227 404.993Z" fill="#FFA2A4"/>
<path d="M634.925 364.505C635.815 364.524 636.371 364.046 636.428 363.143C636.491 362.188 636.024 361.571 635.045 361.52C634.085 361.469 633.549 361.984 633.448 362.952C633.492 363.913 633.946 364.492 634.925 364.505Z" fill="#FFA2A4"/>
<path d="M636.403 371.251C636.491 370.29 636.049 369.666 635.064 369.589C634.18 369.519 633.587 369.959 633.492 370.875C633.391 371.842 633.864 372.409 634.843 372.562C635.702 372.536 636.32 372.173 636.403 371.251Z" fill="#FFA2A4"/>
<path d="M634.976 356.174C635.872 356.168 636.402 355.665 636.434 354.761C636.472 353.794 635.973 353.215 635.001 353.183C634.029 353.158 633.523 353.698 633.454 354.666C633.511 355.627 634.003 356.18 634.976 356.174Z" fill="#FFA2A4"/>
<path d="M644.421 387.466C644.434 386.569 643.96 386.009 643.063 385.951C642.116 385.888 641.504 386.365 641.453 387.352C641.403 388.319 641.914 388.86 642.874 388.955C643.834 388.917 644.402 388.453 644.421 387.466Z" fill="#FFA2A4"/>
<path d="M651.088 397.006C652.035 397.069 652.648 396.586 652.711 395.612C652.774 394.657 652.294 394.04 651.328 393.977C650.381 393.913 649.813 394.403 649.686 395.377C649.686 396.318 650.116 396.942 651.088 397.006Z" fill="#FFA2A4"/>
<path d="M641.365 379.015C641.321 380.007 641.927 380.663 642.912 380.688C643.834 380.714 644.452 380.116 644.503 379.199C644.553 378.2 643.935 377.64 642.956 377.5C642.041 377.595 641.409 378.098 641.365 379.015Z" fill="#FFA2A4"/>
<path d="M642.931 372.67C643.846 372.682 644.471 372.084 644.534 371.174C644.598 370.175 643.991 369.507 643.019 369.449C642.034 369.392 641.479 370.035 641.308 371.034C641.415 372.001 641.94 372.657 642.931 372.67Z" fill="#FFA2A4"/>
<path d="M651.17 389.102C652.155 389.063 652.742 388.491 652.85 387.517C652.951 386.639 652.054 385.716 651.176 385.786C650.198 385.862 649.674 386.473 649.554 387.364C649.548 388.281 650.337 389.133 651.17 389.102Z" fill="#FFA2A4"/>
<path d="M642.893 356.333C643.878 356.301 644.465 355.729 644.585 354.755C644.686 353.883 643.789 352.954 642.918 353.018C641.94 353.094 641.416 353.698 641.289 354.589C641.277 355.506 642.059 356.359 642.893 356.333Z" fill="#FFA2A4"/>
<path d="M642.969 361.367C641.99 361.348 641.397 361.972 641.289 362.945C641.195 363.824 642.091 364.746 642.969 364.67C643.947 364.587 644.471 363.983 644.598 363.009C644.471 362.042 643.947 361.386 642.969 361.367Z" fill="#FFA2A4"/>
<path d="M652.881 379.104C652.887 378.117 652.274 377.475 651.308 377.424C650.26 377.366 649.585 377.99 649.534 379.04C649.484 380.103 650.153 380.663 651.176 380.828C652.199 380.701 652.868 380.167 652.881 379.104Z" fill="#FFA2A4"/>
<path d="M651.252 372.759C652.294 372.721 652.925 372.059 652.893 371.009C652.862 369.959 652.205 369.329 651.157 369.354C650.109 369.379 649.585 370.073 649.478 371.111C649.648 372.129 650.197 372.797 651.252 372.759Z" fill="#FFA2A4"/>
<path d="M651.208 364.727C652.262 364.721 652.856 364.104 652.919 363.047C652.976 362.035 652.136 361.214 651.138 361.284C650.078 361.361 649.56 362.004 649.472 363.06C649.604 364.078 650.141 364.74 651.208 364.727Z" fill="#FFA2A4"/>
<path d="M652.919 354.723C652.906 353.66 652.338 353.037 651.29 352.948C650.293 352.865 649.453 353.686 649.497 354.691C649.541 355.767 650.166 356.295 651.012 356.403C652.142 356.416 652.925 355.678 652.919 354.723Z" fill="#FFA2A4"/>
</g>
<defs>
<filter id="filter0_d_2670_8" x="174.352" y="7.7748" width="330.648" height="694.225" filterUnits="userSpaceOnUse" color-interpolation-filters="sRGB">
<feFlood flood-opacity="0" result="BackgroundImageFix"/>
<feColorMatrix in="SourceAlpha" type="matrix" values="0 0 0 0 0 0 0 0 0 0 0 0 0 0 0 0 0 0 127 0" result="hardAlpha"/>
<feOffset dy="4"/>
<feGaussianBlur stdDeviation="2"/>
<feComposite in2="hardAlpha" operator="out"/>
<feColorMatrix type="matrix" values="0 0 0 0 0 0 0 0 0 0 0 0 0 0 0 0 0 0 0.25 0"/>
<feBlend mode="normal" in2="BackgroundImageFix" result="effect1_dropShadow_2670_8"/>
<feBlend mode="normal" in="SourceGraphic" in2="effect1_dropShadow_2670_8" result="shape"/>
</filter>
<linearGradient id="paint0_linear_2670_8" x1="423.683" y1="702.381" x2="300.025" y2="56.7427" gradientUnits="userSpaceOnUse">
<stop stop-color="white" stop-opacity="0"/>
<stop offset="0.9899" stop-color="white"/>
</linearGradient>
<linearGradient id="paint1_linear_2670_8" x1="324.831" y1="706.163" x2="398.854" y2="52.9726" gradientUnits="userSpaceOnUse">
<stop stop-color="white" stop-opacity="0"/>
<stop offset="0.9899" stop-color="white"/>
</linearGradient>
<linearGradient id="paint2_linear_2670_8" x1="234.687" y1="504.951" x2="226.35" y2="651.695" gradientUnits="userSpaceOnUse">
<stop stop-color="#F73B6C"/>
<stop offset="1" stop-color="#842774"/>
</linearGradient>
<linearGradient id="paint3_linear_2670_8" x1="235.091" y1="506.376" x2="226.917" y2="650.251" gradientUnits="userSpaceOnUse">
<stop stop-color="white"/>
<stop offset="1" stop-color="#6DE4E3"/>
</linearGradient>
<linearGradient id="paint4_linear_2670_8" x1="410.787" y1="630.267" x2="404.307" y2="763.195" gradientUnits="userSpaceOnUse">
<stop stop-color="#F73B6C"/>
<stop offset="1" stop-color="#842774"/>
</linearGradient>
<linearGradient id="paint5_linear_2670_8" x1="411.223" y1="631.541" x2="404.868" y2="761.903" gradientUnits="userSpaceOnUse">
<stop stop-color="white"/>
<stop offset="1" stop-color="#6DE4E3"/>
</linearGradient>
<linearGradient id="paint6_linear_2670_8" x1="340.499" y1="637.54" x2="340.499" y2="402.343" gradientUnits="userSpaceOnUse">
<stop stop-color="#16164F"/>
<stop offset="1" stop-color="#0C0723"/>
</linearGradient>
<linearGradient id="paint7_linear_2670_8" x1="349.26" y1="232.914" x2="349.26" y2="421.325" gradientUnits="userSpaceOnUse">
<stop stop-color="#F73B6C"/>
<stop offset="1" stop-color="#842774"/>
</linearGradient>
<linearGradient id="paint8_linear_2670_8" x1="352.901" y1="206.299" x2="350.038" y2="316.588" gradientUnits="userSpaceOnUse">
<stop stop-color="#2E2594"/>
<stop offset="1" stop-color="#F73B6C"/>
</linearGradient>
<linearGradient id="paint9_linear_2670_8" x1="345.752" y1="236.705" x2="342.357" y2="627.21" gradientUnits="userSpaceOnUse">
<stop stop-color="#2F2EA6"/>
<stop offset="1" stop-color="#2B187A"/>
</linearGradient>
<linearGradient id="paint10_linear_2670_8" x1="324.197" y1="331.747" x2="324.197" y2="397.136" gradientUnits="userSpaceOnUse">
<stop stop-color="#16164F"/>
<stop offset="1" stop-color="#0C0723"/>
</linearGradient>
<linearGradient id="paint11_linear_2670_8" x1="329.689" y1="332.499" x2="328.187" y2="358.943" gradientUnits="userSpaceOnUse">
<stop stop-color="white"/>
<stop offset="1" stop-color="#6DE4E3"/>
</linearGradient>
<linearGradient id="paint12_linear_2670_8" x1="339.115" y1="221.059" x2="361.649" y2="221.059" gradientUnits="userSpaceOnUse">
<stop stop-color="#FA9791"/>
<stop offset="1" stop-color="#FCC0A2"/>
</linearGradient>
<linearGradient id="paint13_linear_2670_8" x1="354.859" y1="234.266" x2="354.859" y2="84.1621" gradientUnits="userSpaceOnUse">
<stop stop-color="#FA9791"/>
<stop offset="1" stop-color="#FCC0A2"/>
</linearGradient>
<linearGradient id="paint14_linear_2670_8" x1="354.834" y1="235.044" x2="354.834" y2="91.697" gradientUnits="userSpaceOnUse">
<stop stop-color="#2F2EA6"/>
<stop offset="1" stop-color="#2B187A"/>
</linearGradient>
<linearGradient id="paint15_linear_2670_8" x1="354.215" y1="198.857" x2="324.581" y2="206.251" gradientUnits="userSpaceOnUse">
<stop stop-color="#16164F"/>
<stop offset="1" stop-color="#0C0723"/>
</linearGradient>
<linearGradient id="paint16_linear_2670_8" x1="330.718" y1="200.692" x2="373.989" y2="206.101" gradientUnits="userSpaceOnUse">
<stop stop-color="#F73B6C"/>
<stop offset="1" stop-color="#842774"/>
</linearGradient>
<linearGradient id="paint17_linear_2670_8" x1="354.21" y1="148.425" x2="354.21" y2="186.676" gradientUnits="userSpaceOnUse">
<stop stop-color="#16164F"/>
<stop offset="1" stop-color="#0C0723"/>
</linearGradient>
<linearGradient id="paint18_linear_2670_8" x1="331.548" y1="159.591" x2="331.548" y2="178.085" gradientUnits="userSpaceOnUse">
<stop stop-color="#16164F"/>
<stop offset="1" stop-color="#0C0723"/>
</linearGradient>
<linearGradient id="paint19_linear_2670_8" x1="376.153" y1="159.591" x2="376.153" y2="178.085" gradientUnits="userSpaceOnUse">
<stop stop-color="#16164F"/>
<stop offset="1" stop-color="#0C0723"/>
</linearGradient>
<linearGradient id="paint20_linear_2670_8" x1="320.191" y1="147.561" x2="340.197" y2="156.586" gradientUnits="userSpaceOnUse">
<stop stop-color="#16164F"/>
<stop offset="1" stop-color="#0C0723"/>
</linearGradient>
<linearGradient id="paint21_linear_2670_8" x1="386.735" y1="147.561" x2="366.729" y2="156.586" gradientUnits="userSpaceOnUse">
<stop stop-color="#16164F"/>
<stop offset="1" stop-color="#0C0723"/>
</linearGradient>
<linearGradient id="paint22_linear_2670_8" x1="278.414" y1="130.144" x2="278.414" y2="201.385" gradientUnits="userSpaceOnUse">
<stop stop-color="#F73B6C"/>
<stop offset="1" stop-color="#842774"/>
</linearGradient>
<linearGradient id="paint23_linear_2670_8" x1="298.785" y1="122.053" x2="270.997" y2="294.986" gradientUnits="userSpaceOnUse">
<stop stop-color="#2E2594"/>
<stop offset="1" stop-color="#F73B6C"/>
</linearGradient>
<linearGradient id="paint24_linear_2670_8" x1="431.304" y1="130.144" x2="431.304" y2="201.385" gradientUnits="userSpaceOnUse">
<stop stop-color="#F73B6C"/>
<stop offset="1" stop-color="#842774"/>
</linearGradient>
<linearGradient id="paint25_linear_2670_8" x1="412.002" y1="122.053" x2="384.214" y2="294.986" gradientUnits="userSpaceOnUse">
<stop stop-color="#2E2594"/>
<stop offset="1" stop-color="#F73B6C"/>
</linearGradient>
<linearGradient id="paint26_linear_2670_8" x1="403.636" y1="112.377" x2="403.636" y2="166.004" gradientUnits="userSpaceOnUse">
<stop stop-color="#2F2EA6"/>
<stop offset="1" stop-color="#2B187A"/>
</linearGradient>
<linearGradient id="paint27_linear_2670_8" x1="406.195" y1="116.902" x2="406.195" y2="175.826" gradientUnits="userSpaceOnUse">
<stop stop-color="#2F2EA6"/>
<stop offset="1" stop-color="#2B187A"/>
</linearGradient>
<linearGradient id="paint28_linear_2670_8" x1="357.244" y1="66.4316" x2="357.244" y2="161.789" gradientUnits="userSpaceOnUse">
<stop stop-color="#2F2EA6"/>
<stop offset="1" stop-color="#2B187A"/>
</linearGradient>
<linearGradient id="paint29_linear_2670_8" x1="343.599" y1="40.9431" x2="343.599" y2="159.371" gradientUnits="userSpaceOnUse">
<stop stop-color="#2F2EA6"/>
<stop offset="1" stop-color="#2B187A"/>
</linearGradient>
<linearGradient id="paint30_linear_2670_8" x1="213.24" y1="383.258" x2="286.261" y2="262.458" gradientUnits="userSpaceOnUse">
<stop stop-color="#FA9791"/>
<stop offset="1" stop-color="#FCC0A2"/>
</linearGradient>
<linearGradient id="paint31_linear_2670_8" x1="435.77" y1="424.317" x2="389.794" y2="299.01" gradientUnits="userSpaceOnUse">
<stop stop-color="#FA9791"/>
<stop offset="1" stop-color="#FCC0A2"/>
</linearGradient>
<linearGradient id="paint32_linear_2670_8" x1="272.197" y1="220.793" x2="267.996" y2="392.88" gradientUnits="userSpaceOnUse">
<stop stop-color="#2E2594"/>
<stop offset="1" stop-color="#F73B6C"/>
</linearGradient>
<linearGradient id="paint33_linear_2670_8" x1="429.559" y1="248.093" x2="423.842" y2="434.701" gradientUnits="userSpaceOnUse">
<stop stop-color="#2E2594"/>
<stop offset="1" stop-color="#F73B6C"/>
</linearGradient>
<linearGradient id="paint34_linear_2670_8" x1="74.2036" y1="661.858" x2="74.2036" y2="475.618" gradientUnits="userSpaceOnUse">
<stop stop-color="white" stop-opacity="0"/>
<stop offset="0.9899" stop-color="white"/>
</linearGradient>
<linearGradient id="paint35_linear_2670_8" x1="543.681" y1="138.231" x2="543.681" y2="15.1996" gradientUnits="userSpaceOnUse">
<stop stop-color="white" stop-opacity="0"/>
<stop offset="0.9899" stop-color="white"/>
</linearGradient>
<linearGradient id="paint36_linear_2670_8" x1="690.541" y1="369.868" x2="609.564" y2="288.891" gradientUnits="userSpaceOnUse">
<stop stop-color="white" stop-opacity="0"/>
<stop offset="0.9899" stop-color="white"/>
</linearGradient>
<clipPath id="clip0_2670_8">
<rect width="58.9191" height="52.0452" fill="white" transform="translate(657.821 296)"/>
</clipPath>
<clipPath id="clip1_2670_8">
<rect width="58.9191" height="52.0452" fill="white" transform="matrix(-1 0 0 1 652.919 296)"/>
</clipPath>
<clipPath id="clip2_2670_8">
<rect width="58.9191" height="52.0452" fill="white" transform="matrix(1 0 0 -1 657.821 404.993)"/>
</clipPath>
<clipPath id="clip3_2670_8">
<rect width="58.9191" height="52.0452" fill="white" transform="matrix(-1 0 0 -1 652.919 404.993)"/>
</clipPath>
</defs>
</svg>
