<svg width="23" height="23" viewBox="0 0 23 23" fill="none" xmlns="http://www.w3.org/2000/svg">
<path d="M16.6243 22.6743C17.6243 22.2143 18.0543 21.0343 17.5943 20.0343L8.86426 1.15426C8.40426 0.154263 7.22426 -0.275737 6.22426 0.184263C5.22426 0.644263 4.79426 1.82426 5.25426 2.82426L13.9843 21.7043C14.4443 22.7043 15.6243 23.1343 16.6243 22.6743Z" fill="#FFA2A4"/>
<path d="M2.82426 17.5943L21.7043 8.86433C22.7043 8.40433 23.1343 7.22433 22.6743 6.22433C22.2143 5.22433 21.0343 4.79433 20.0343 5.25433L1.15426 13.9843C0.154263 14.4443 -0.275737 15.6243 0.184263 16.6243C0.644263 17.6243 1.82426 18.0543 2.82426 17.5943Z" fill="#FFA2A4"/>
</svg>
