<svg width="603" height="622" viewBox="0 0 603 622" fill="none" xmlns="http://www.w3.org/2000/svg">
<path opacity="0.3" d="M392.688 20.8358C310.737 42.8189 222.495 37.4568 142.333 9.80606C115.545 0.563686 86.5298 -3.37769 57.5318 3.4357C-46.8207 27.9547 -45.2519 170.883 -19.3915 246.319C6.46891 321.755 -107.381 383.167 -103.923 484.146C-100.481 585.124 91.1351 527.027 171.415 545.894C217.789 556.786 250.447 617.419 397.31 621.773C544.173 626.112 652.084 569.023 580.121 381.563C508.174 194.103 624.908 69.0489 505.323 14.4349C470.37 -1.52921 423.811 12.4947 392.688 20.8358Z" fill="url(#paint0_linear_10_422)"/>
<defs>
<linearGradient id="paint0_linear_10_422" x1="234.212" y1="606.358" x2="297.565" y2="-10.9461" gradientUnits="userSpaceOnUse">
<stop stop-color="white" stop-opacity="0"/>
<stop offset="0.9899" stop-color="white"/>
</linearGradient>
</defs>
</svg>
