<svg width="680" height="660" viewBox="0 0 680 660" fill="none" xmlns="http://www.w3.org/2000/svg">
<path opacity="0.5" d="M477.036 22.0975C398.328 45.4117 313.577 39.7249 236.586 10.3998C210.858 0.597819 182.991 -3.58222 155.141 3.64374C54.917 29.6474 56.4237 181.23 81.2609 261.234C106.098 341.238 -3.2471 406.369 0.0742438 513.462C3.37939 620.555 187.414 558.94 264.518 578.949C309.057 590.501 340.423 654.806 481.475 659.423C622.527 664.024 726.169 603.479 657.053 404.668C587.952 205.857 700.068 73.23 585.214 15.3089C551.644 -1.62181 506.928 13.2513 477.036 22.0975Z" fill="url(#paint0_linear_10_531)"/>
<defs>
<linearGradient id="paint0_linear_10_531" x1="324.831" y1="643.075" x2="398.854" y2="-10.1156" gradientUnits="userSpaceOnUse">
<stop stop-color="white" stop-opacity="0"/>
<stop offset="0.9899" stop-color="white"/>
</linearGradient>
</defs>
</svg>
