<svg width="185" height="166" viewBox="0 0 185 166" fill="none" xmlns="http://www.w3.org/2000/svg">
<g clip-path="url(#clip0_24_2720)">
<path d="M135.376 78.7557C134.063 78.6118 133.187 77.95 133.187 76.588C133.178 75.2451 134.005 74.4298 135.338 74.4394C136.575 74.4394 137.355 75.2163 137.422 76.4441C137.498 77.8061 136.66 78.5255 135.376 78.7557Z" fill="#FFA2A4"/>
<path d="M137.26 27.0084C137.165 25.8766 136.375 25.138 135.233 25.2052C134.005 25.2723 133.244 26.0972 133.349 27.3537C133.444 28.4855 134.234 29.0898 135.366 29.1953C136.584 28.9747 137.364 28.2745 137.26 27.0084Z" fill="#FFA2A4"/>
<path d="M123.386 0.957372C122.149 0.899822 121.34 1.66716 121.302 2.91408C121.273 4.06509 122.016 4.84201 123.138 4.89956C124.385 4.96671 125.07 4.17059 125.26 2.95245C125.137 1.80144 124.518 1.01492 123.386 0.957372Z" fill="#FFA2A4"/>
<path d="M133.473 15.1531C133.53 16.352 134.281 16.9755 135.442 16.8988C136.518 16.8316 137.136 16.1506 137.127 15.0667C137.127 13.8678 136.422 13.2635 135.262 13.1868C134.091 13.3115 133.415 13.9637 133.473 15.1531Z" fill="#FFA2A4"/>
<path d="M147.308 74.6696C146.138 74.6888 145.434 75.4177 145.443 76.5879C145.453 77.7677 146.176 78.4775 147.347 78.4679C148.517 78.4583 149.135 77.7198 149.231 76.5496C149.126 75.3794 148.488 74.66 147.308 74.6696Z" fill="#FFA2A4"/>
<path d="M161.449 51.8605C161.42 50.8726 160.802 50.2299 159.831 50.2299C158.746 50.2299 158.09 50.9205 158.156 52.014C158.223 52.9828 158.899 53.5007 159.964 53.587C160.792 53.3568 161.477 52.8677 161.449 51.8605Z" fill="#FFA2A4"/>
<path d="M159.974 74.8806C158.88 74.7751 158.185 75.3985 158.109 76.5016C158.042 77.5087 158.651 78.1705 159.622 78.2664C160.726 78.3815 161.325 77.7101 161.516 76.6742C161.458 75.6479 160.954 74.9669 159.974 74.8806Z" fill="#FFA2A4"/>
<path d="M158.195 39.7942C158.204 40.6958 158.804 41.3097 159.679 41.3672C160.678 41.4343 161.344 40.8109 161.392 39.8229C161.449 38.8158 160.773 38.2787 159.803 38.106C158.842 38.2499 158.185 38.7774 158.195 39.7942Z" fill="#FFA2A4"/>
<path d="M158.109 63.9845C158.118 65.0875 158.785 65.7397 159.879 65.7014C160.859 65.663 161.477 65.0204 161.477 64.0228C161.477 62.9102 160.783 62.3634 159.717 62.2579C158.756 62.4498 158.109 62.9773 158.109 63.9845Z" fill="#FFA2A4"/>
<path d="M147.461 1.37939C146.481 1.31225 145.834 1.92612 145.796 2.91407C145.767 3.80609 146.357 4.41996 147.213 4.47751C148.193 4.54466 148.745 3.92119 148.917 2.90447C148.793 2.06999 148.327 1.43694 147.461 1.37939Z" fill="#FFA2A4"/>
<path d="M133.587 2.8661C133.558 3.94996 134.167 4.62138 135.242 4.65974C136.318 4.69811 136.974 4.08424 137.022 2.99079C137.07 1.89733 136.422 1.32183 135.242 1.13959C134.348 1.29305 133.606 1.74387 133.587 2.8661Z" fill="#FFA2A4"/>
<path d="M145.691 15.0476C145.691 16.0355 146.309 16.6878 147.28 16.7165C148.365 16.7357 149.031 16.0547 148.983 14.9612C148.945 13.9829 148.27 13.4649 147.299 13.3594C146.338 13.5321 145.691 14.0596 145.691 15.0476Z" fill="#FFA2A4"/>
<path d="M145.615 27.0947C145.567 28.1786 146.167 28.8596 147.242 28.9172C148.317 28.9747 148.983 28.3608 149.05 27.277C149.117 26.1835 148.469 25.5984 147.442 25.4258C146.366 25.4833 145.672 26.0013 145.615 27.0947Z" fill="#FFA2A4"/>
<path d="M158.271 27.3825C158.375 28.2553 159.003 28.8212 159.879 28.7445C160.84 28.6582 161.439 28.0059 161.316 27.0084C161.211 26.1356 160.583 25.6752 159.717 25.6176C158.765 25.819 158.147 26.3754 158.271 27.3825Z" fill="#FFA2A4"/>
<path d="M159.955 13.7047C159.146 13.628 158.566 13.9925 158.471 14.8462C158.375 15.7574 158.785 16.3616 159.746 16.4096C160.574 16.448 161.049 15.9972 161.144 15.1627C161.154 14.3378 160.792 13.7911 159.955 13.7047Z" fill="#FFA2A4"/>
<path d="M161.04 3.12502C161.163 2.30013 160.707 1.75341 159.898 1.66708C159.175 1.59035 158.67 2.03157 158.566 2.73176C158.442 3.56624 158.918 4.03623 159.688 4.20888C160.431 4.19929 160.935 3.83481 161.04 3.12502Z" fill="#FFA2A4"/>
<path d="M173.172 52.0331C173.239 51.2179 172.877 50.6328 172.03 50.5464C171.117 50.4505 170.527 50.8726 170.489 51.8509C170.46 52.6854 170.908 53.165 171.726 53.2513C172.563 53.2513 173.096 52.8772 173.172 52.0331Z" fill="#FFA2A4"/>
<path d="M171.954 62.6608C171.136 62.6032 170.575 62.9965 170.498 63.8406C170.422 64.7614 170.86 65.3465 171.821 65.3657C172.658 65.3848 173.106 64.9148 173.191 63.9653C173.153 63.2651 172.801 62.7087 171.954 62.6608Z" fill="#FFA2A4"/>
<path d="M173.077 27.3537C173.172 26.5289 172.716 25.9917 171.888 25.9342C171.155 25.8766 170.67 26.337 170.584 27.0372C170.489 27.8621 170.974 28.3321 171.754 28.4856C172.506 28.4472 173.001 28.0539 173.077 27.3537Z" fill="#FFA2A4"/>
<path d="M171.916 75.2163C171.098 75.1779 170.556 75.5808 170.498 76.4249C170.432 77.3553 170.898 77.9116 171.859 77.9116C172.697 77.9116 173.134 77.432 173.191 76.5783C173.163 75.7726 172.763 75.2643 171.916 75.2163Z" fill="#FFA2A4"/>
<path d="M173.134 39.7078C173.115 38.9501 172.697 38.4897 171.954 38.4417C171.117 38.3842 170.584 38.8158 170.546 39.6791C170.508 40.5423 170.984 40.9931 171.945 41.0795C172.639 40.9835 173.153 40.5903 173.134 39.7078Z" fill="#FFA2A4"/>
<path d="M170.727 14.99C170.679 15.6422 171.107 16.1026 171.716 16.1602C172.449 16.2273 172.934 15.7669 172.934 15.0188C172.925 14.3857 172.478 14.0212 171.774 13.9157C171.231 14.0308 170.774 14.3473 170.727 14.99Z" fill="#FFA2A4"/>
<path d="M183.801 65.1259C184.449 65.1738 184.905 64.7422 184.962 64.1283C185.029 63.3898 184.572 62.9006 183.83 62.9006C183.202 62.9102 182.84 63.361 182.745 63.994C182.812 64.6367 183.173 65.0683 183.801 65.1259Z" fill="#FFA2A4"/>
<path d="M183.982 75.4657C183.335 75.3794 182.869 75.8014 182.783 76.4057C182.679 77.1443 183.126 77.643 183.859 77.6814C184.496 77.7102 184.858 77.2594 184.991 76.6167C184.953 75.9837 184.591 75.5425 183.982 75.4657Z" fill="#FFA2A4"/>
<path d="M171.802 2.05079C171.326 2.06038 171.012 2.32895 170.965 2.80853C170.917 3.37445 171.174 3.76771 171.764 3.80607C172.344 3.84444 172.659 3.5375 172.716 2.93323C172.678 2.35772 172.392 2.03161 171.802 2.05079Z" fill="#FFA2A4"/>
<path d="M183.763 38.8734C183.278 38.9118 183.021 39.2187 183.002 39.6983C182.983 40.2834 183.288 40.6287 183.878 40.6191C184.468 40.6191 184.744 40.2738 184.753 39.7079C184.677 39.1036 184.334 38.8254 183.763 38.8734Z" fill="#FFA2A4"/>
<path d="M184.801 52.0332C184.867 51.3714 184.563 50.9398 183.858 50.9302C183.278 50.9302 182.955 51.2467 182.926 51.8318C182.897 52.4169 183.192 52.743 183.839 52.8389C184.325 52.8389 184.743 52.6279 184.801 52.0332Z" fill="#FFA2A4"/>
<path d="M137.384 51.966C137.422 50.6328 136.613 49.7887 135.281 49.7791C134.053 49.7695 133.263 50.5657 133.216 51.7934C133.168 53.1458 134.024 53.846 135.29 54.0379C136.518 53.8556 137.355 53.2034 137.384 51.966Z" fill="#FFA2A4"/>
<path d="M133.254 39.6119C133.159 40.8492 133.92 41.7029 135.109 41.8084C136.432 41.9331 137.298 41.1082 137.345 39.7845C137.393 38.5472 136.565 37.8758 135.376 37.636C134.177 37.7511 133.349 38.3937 133.254 39.6119Z" fill="#FFA2A4"/>
<path d="M147.27 37.9046C146.195 37.9333 145.548 38.576 145.51 39.6503C145.472 40.83 146.119 41.559 147.299 41.5878C148.479 41.6165 149.097 40.9164 149.193 39.7366C149.078 38.5568 148.45 37.8758 147.27 37.9046Z" fill="#FFA2A4"/>
<path d="M149.221 64.0324C149.231 62.8526 148.526 62.1237 147.356 62.1141C146.186 62.0949 145.462 62.8143 145.453 63.9941C145.434 65.1738 146.148 65.8165 147.375 65.9508C148.469 65.8261 149.212 65.2218 149.221 64.0324Z" fill="#FFA2A4"/>
<path d="M147.318 49.9806C146.148 49.9997 145.443 50.7191 145.453 51.8989C145.462 53.0787 146.186 53.7885 147.356 53.7789C148.526 53.7693 149.145 53.0307 149.24 51.8605C149.126 50.6808 148.488 49.971 147.318 49.9806Z" fill="#FFA2A4"/>
<path d="M125.327 15.1147C125.365 13.8774 124.585 13.0525 123.386 12.9949C122.063 12.9374 121.216 13.7719 121.226 15.1051C121.235 16.3328 122.073 16.9947 123.272 17.1769C124.461 17.0043 125.289 16.352 125.327 15.1147Z" fill="#FFA2A4"/>
<path d="M109.15 2.82772C109.112 4.17056 109.912 5.01463 111.244 5.02422C112.462 5.0434 113.261 4.25689 113.318 3.02915C113.375 1.67672 112.528 0.976521 111.139 0.765503C110.064 0.986112 109.188 1.5808 109.15 2.82772Z" fill="#FFA2A4"/>
<path d="M137.384 64.1763C137.479 62.843 136.679 61.9606 135.357 61.9126C134.034 61.8743 133.206 62.7183 133.216 64.0612C133.225 65.2985 134.043 65.9603 135.233 66.1618C136.46 66.0371 137.298 65.3944 137.384 64.1763Z" fill="#FFA2A4"/>
<path d="M123.196 25.0517C121.968 25.09 121.188 25.867 121.15 27.0947C121.112 28.4375 121.901 29.2816 123.234 29.3104C124.585 29.3392 125.26 28.4759 125.432 27.1618C125.241 25.8574 124.547 25.0133 123.196 25.0517Z" fill="#FFA2A4"/>
<path d="M123.338 37.5593C121.987 37.5305 121.159 38.2595 121.102 39.6311C121.045 41.0986 121.835 41.9427 123.31 41.9427C124.68 41.9427 125.356 41.1082 125.479 39.7654C125.375 38.4225 124.709 37.5881 123.338 37.5593Z" fill="#FFA2A4"/>
<path d="M111.31 12.8702C109.845 12.851 109.027 13.6759 109.074 15.153C109.112 16.5246 109.921 17.2728 111.282 17.2536C112.652 17.2344 113.328 16.4287 113.461 14.9612C113.309 13.7622 112.69 12.8894 111.31 12.8702Z" fill="#FFA2A4"/>
<path d="M98.74 0.736725C97.3793 0.7655 96.599 1.54243 96.599 2.91404C96.599 4.40076 97.4554 5.18728 98.9113 5.12014C100.282 5.05299 100.919 4.18974 100.976 2.81813C100.814 1.49447 100.101 0.70795 98.74 0.736725Z" fill="#FFA2A4"/>
<path d="M123.31 61.7592C121.968 61.7304 121.131 62.4498 121.045 63.8118C120.95 65.2506 121.654 66.181 123.129 66.2577C124.575 66.3344 125.384 65.5575 125.536 64.0996C125.47 62.6512 124.785 61.7784 123.31 61.7592Z" fill="#FFA2A4"/>
<path d="M121.083 51.592C120.95 53.0403 121.616 53.9803 123.1 54.0954C124.433 54.2009 125.327 53.5391 125.47 52.1579C125.622 50.7 124.908 49.8463 123.433 49.6161C122.139 49.6545 121.207 50.2012 121.083 51.592Z" fill="#FFA2A4"/>
<path d="M123.234 74.3147C121.882 74.3242 121.083 75.082 121.035 76.444C120.978 77.902 121.73 78.7748 123.196 78.8228C124.661 78.8611 125.422 78.0458 125.527 76.5879C125.441 75.1395 124.699 74.3051 123.234 74.3147Z" fill="#FFA2A4"/>
<path d="M108.998 27.1523C108.979 28.5047 109.693 29.3488 111.044 29.4351C112.471 29.531 113.394 28.8117 113.47 27.3249C113.547 25.867 112.776 25.0517 111.329 24.9078C109.883 24.9654 109.027 25.6656 108.998 27.1523Z" fill="#FFA2A4"/>
<path d="M98.9494 12.7743C97.522 12.6784 96.599 13.4074 96.5038 14.8749C96.4086 16.3136 97.1318 17.244 98.5878 17.34C100.015 17.4359 100.872 16.6973 101.062 15.2298C101.062 13.8102 100.415 12.8702 98.9494 12.7743Z" fill="#FFA2A4"/>
<path d="M113.604 39.8901C113.67 38.3938 112.757 37.4058 111.272 37.3675C109.883 37.3291 108.95 38.2307 108.874 39.6119C108.798 41.1178 109.731 41.9619 111.206 42.1729C112.585 42.029 113.537 41.2713 113.604 39.8901Z" fill="#FFA2A4"/>
<path d="M111.244 49.453C109.864 49.4338 108.922 50.3354 108.827 51.707C108.732 53.2129 109.645 54.2201 111.11 54.3064C112.595 54.3927 113.432 53.424 113.689 51.9181C113.527 50.4601 112.738 49.4722 111.244 49.453Z" fill="#FFA2A4"/>
<path d="M98.8257 24.6872C97.3412 24.7448 96.4563 25.608 96.2945 27.0756C96.1422 28.3992 97.4935 29.79 98.8162 29.6845C100.291 29.5694 101.081 28.6486 101.262 27.3058C101.271 25.9245 100.082 24.6393 98.8257 24.6872Z" fill="#FFA2A4"/>
<path d="M111.301 74.0749C109.816 74.1229 108.931 74.9862 108.751 76.4537C108.598 77.7677 109.95 79.1681 111.263 79.0722C112.738 78.9571 113.528 78.0459 113.718 76.7031C113.737 75.3219 112.557 74.0366 111.301 74.0749Z" fill="#FFA2A4"/>
<path d="M111.187 66.4879C112.662 66.5167 113.556 65.5767 113.718 64.1092C113.861 62.7855 112.509 61.3947 111.187 61.5098C109.712 61.6345 108.922 62.5457 108.732 64.0132C108.922 65.4712 109.712 66.4591 111.187 66.4879Z" fill="#FFA2A4"/>
<path d="M96.2478 39.7558C96.2383 41.2425 97.1614 42.2113 98.6173 42.288C100.197 42.3743 101.215 41.4343 101.291 39.8517C101.367 38.2499 100.359 37.4058 98.8171 37.1564C97.2755 37.3483 96.2669 38.154 96.2478 39.7558Z" fill="#FFA2A4"/>
<path d="M98.7026 49.3188C97.1325 49.3763 96.1809 50.3738 96.2285 51.9565C96.276 53.5391 97.2657 54.4887 98.8453 54.4503C100.425 54.4119 101.215 53.3664 101.376 51.803C101.12 50.2683 100.292 49.2612 98.7026 49.3188Z" fill="#FFA2A4"/>
<path d="M98.7685 61.4234C97.1794 61.433 96.2849 62.3634 96.1897 63.9556C96.1041 65.4807 97.3697 66.7181 98.8732 66.6126C100.472 66.4975 101.252 65.5287 101.385 63.9365C101.185 62.4018 100.377 61.4042 98.7685 61.4234Z" fill="#FFA2A4"/>
<path d="M96.1898 76.5016C96.2088 78.1034 97.0652 79.0434 98.6448 79.1777C100.148 79.3024 101.414 78.0651 101.347 76.5496C101.281 74.9286 100.339 74.1325 99.0635 73.9694C97.3602 73.9502 96.1803 75.0629 96.1898 76.5016Z" fill="#FFA2A4"/>
</g>
<g clip-path="url(#clip1_24_2720)">
<path d="M49.6152 78.7557C50.9284 78.6118 51.8039 77.95 51.8039 76.588C51.8134 75.2451 50.9855 74.4298 49.6533 74.4394C48.4162 74.4394 47.6359 75.2163 47.5693 76.4441C47.4932 77.8061 48.3306 78.5255 49.6152 78.7557Z" fill="#FFA2A4"/>
<path d="M47.7311 27.0084C47.8262 25.8766 48.616 25.138 49.7579 25.2052C50.9855 25.2723 51.7467 26.0972 51.642 27.3537C51.5469 28.4855 50.7571 29.0898 49.6247 29.1953C48.4067 28.9747 47.6264 28.2745 47.7311 27.0084Z" fill="#FFA2A4"/>
<path d="M61.6051 0.957372C62.8421 0.899822 63.651 1.66716 63.689 2.91408C63.7176 4.06509 62.9754 4.84201 61.8525 4.89956C60.6059 4.96671 59.9208 4.17059 59.7305 2.95245C59.8542 1.80144 60.4727 1.01492 61.6051 0.957372Z" fill="#FFA2A4"/>
<path d="M51.5184 15.1531C51.4613 16.352 50.7095 16.9755 49.5486 16.8988C48.4733 16.8316 47.8548 16.1506 47.8643 15.0667C47.8643 13.8678 48.5685 13.2635 49.7294 13.1868C50.8998 13.3115 51.5755 13.9637 51.5184 15.1531Z" fill="#FFA2A4"/>
<path d="M37.6824 74.6696C38.8529 74.6888 39.557 75.4177 39.5475 76.5879C39.538 77.7677 38.8148 78.4775 37.6444 78.4679C36.4739 78.4583 35.8554 77.7198 35.7602 76.5496C35.8649 75.3794 36.5025 74.66 37.6824 74.6696Z" fill="#FFA2A4"/>
<path d="M23.542 51.8605C23.5706 50.8726 24.1891 50.2299 25.1597 50.2299C26.2445 50.2299 26.9011 50.9205 26.8345 52.014C26.7678 52.9828 26.0922 53.5007 25.0265 53.587C24.1986 53.3568 23.5135 52.8677 23.542 51.8605Z" fill="#FFA2A4"/>
<path d="M25.0169 74.8806C26.1113 74.7751 26.8059 75.3985 26.882 76.5016C26.9486 77.5087 26.3396 78.1705 25.369 78.2664C24.2652 78.3815 23.6657 77.7101 23.4754 76.6742C23.5325 75.6479 24.0368 74.9669 25.0169 74.8806Z" fill="#FFA2A4"/>
<path d="M26.7964 39.7942C26.7869 40.6958 26.1874 41.3097 25.312 41.3672C24.3128 41.4343 23.6467 40.8109 23.5991 39.8229C23.542 38.8158 24.2176 38.2787 25.1883 38.106C26.1493 38.2499 26.8059 38.7774 26.7964 39.7942Z" fill="#FFA2A4"/>
<path d="M26.8821 63.9845C26.8725 65.0875 26.2064 65.7397 25.1121 65.7014C24.132 65.663 23.5135 65.0204 23.5135 64.0228C23.5135 62.9102 24.2081 62.3634 25.2739 62.2579C26.235 62.4498 26.8821 62.9773 26.8821 63.9845Z" fill="#FFA2A4"/>
<path d="M37.5302 1.37939C38.5103 1.31225 39.1574 1.92612 39.1954 2.91407C39.224 3.80609 38.634 4.41996 37.7776 4.47751C36.7975 4.54466 36.2456 3.92119 36.0743 2.90447C36.198 2.06999 36.6642 1.43694 37.5302 1.37939Z" fill="#FFA2A4"/>
<path d="M51.4042 2.8661C51.4327 3.94996 50.8237 4.62138 49.7485 4.65974C48.6732 4.69811 48.0166 4.08424 47.969 2.99079C47.9214 1.89733 48.5685 1.32183 49.7485 1.13959C50.6429 1.29305 51.3852 1.74387 51.4042 2.8661Z" fill="#FFA2A4"/>
<path d="M39.3001 15.0476C39.3001 16.0355 38.6816 16.6878 37.711 16.7165C36.6262 16.7357 35.9601 16.0547 36.0076 14.9612C36.0457 13.9829 36.7213 13.4649 37.6919 13.3594C38.653 13.5321 39.3001 14.0596 39.3001 15.0476Z" fill="#FFA2A4"/>
<path d="M39.3762 27.0947C39.4238 28.1786 38.8243 28.8596 37.749 28.9172C36.6737 28.9747 36.0076 28.3608 35.941 27.277C35.8744 26.1835 36.5215 25.5984 37.5492 25.4258C38.6245 25.4833 39.3191 26.0013 39.3762 27.0947Z" fill="#FFA2A4"/>
<path d="M26.7203 27.3825C26.6156 28.2553 25.9875 28.8212 25.1121 28.7445C24.151 28.6582 23.5515 28.0059 23.6752 27.0084C23.7799 26.1356 24.4079 25.6752 25.2739 25.6176C26.2254 25.819 26.844 26.3754 26.7203 27.3825Z" fill="#FFA2A4"/>
<path d="M25.036 13.7047C25.8448 13.628 26.4253 13.9925 26.5204 14.8462C26.6156 15.7574 26.2064 16.3616 25.2453 16.4096C24.4174 16.448 23.9417 15.9972 23.8465 15.1627C23.837 14.3378 24.1986 13.7911 25.036 13.7047Z" fill="#FFA2A4"/>
<path d="M23.9512 3.12502C23.8275 2.30013 24.2843 1.75341 25.0931 1.66708C25.8163 1.59035 26.3206 2.03157 26.4253 2.73176C26.549 3.56624 26.0732 4.03623 25.3024 4.20888C24.5602 4.19929 24.0559 3.83481 23.9512 3.12502Z" fill="#FFA2A4"/>
<path d="M11.8186 52.0331C11.752 51.2179 12.1136 50.6328 12.9605 50.5464C13.874 50.4505 14.464 50.8726 14.502 51.8509C14.5306 52.6854 14.0833 53.165 13.265 53.2513C12.4276 53.2513 11.8947 52.8772 11.8186 52.0331Z" fill="#FFA2A4"/>
<path d="M13.0366 62.6608C13.855 62.6032 14.4164 62.9965 14.4925 63.8406C14.5686 64.7614 14.1309 65.3465 13.1698 65.3657C12.3324 65.3848 11.8852 64.9148 11.7995 63.9653C11.8376 63.2651 12.1897 62.7087 13.0366 62.6608Z" fill="#FFA2A4"/>
<path d="M11.9137 27.3537C11.8186 26.5289 12.2753 25.9917 13.1032 25.9342C13.8359 25.8766 14.3212 26.337 14.4068 27.0372C14.502 27.8621 14.0167 28.3321 13.2364 28.4856C12.4847 28.4472 11.9898 28.0539 11.9137 27.3537Z" fill="#FFA2A4"/>
<path d="M13.0746 75.2163C13.893 75.1779 14.4354 75.5808 14.4925 76.4249C14.5591 77.3553 14.0928 77.9116 13.1317 77.9116C12.2944 77.9116 11.8566 77.432 11.7995 76.5783C11.8281 75.7726 12.2277 75.2643 13.0746 75.2163Z" fill="#FFA2A4"/>
<path d="M11.8567 39.7078C11.8757 38.9501 12.2944 38.4897 13.0366 38.4417C13.874 38.3842 14.4069 38.8158 14.445 39.6791C14.483 40.5423 14.0072 40.9931 13.0461 41.0795C12.3515 40.9835 11.8376 40.5903 11.8567 39.7078Z" fill="#FFA2A4"/>
<path d="M14.2641 14.99C14.3117 15.6422 13.8835 16.1026 13.2745 16.1602C12.5418 16.2273 12.0565 15.7669 12.0565 15.0188C12.066 14.3857 12.5132 14.0212 13.2174 13.9157C13.7598 14.0308 14.2165 14.3473 14.2641 14.99Z" fill="#FFA2A4"/>
<path d="M1.18948 65.1259C0.542418 65.1738 0.0856631 64.7422 0.028569 64.1283C-0.0380409 63.3898 0.418715 62.9006 1.16094 62.9006C1.78897 62.9102 2.15057 63.361 2.24573 63.994C2.17912 64.6367 1.81752 65.0683 1.18948 65.1259Z" fill="#FFA2A4"/>
<path d="M1.00868 75.4657C1.65575 75.3794 2.12202 75.8014 2.20766 76.4057C2.31233 77.1443 1.8651 77.643 1.13239 77.6814C0.494835 77.7102 0.133235 77.2594 1.52588e-05 76.6167C0.0380781 75.9837 0.399673 75.5425 1.00868 75.4657Z" fill="#FFA2A4"/>
<path d="M13.1888 2.05079C13.6646 2.06038 13.9787 2.32895 14.0262 2.80853C14.0738 3.37445 13.8169 3.76771 13.2269 3.80607C12.6464 3.84444 12.3324 3.5375 12.2753 2.93323C12.3134 2.35772 12.5989 2.03161 13.1888 2.05079Z" fill="#FFA2A4"/>
<path d="M1.22752 38.8734C1.71282 38.9118 1.96974 39.2187 1.98878 39.6983C2.00781 40.2834 1.70331 40.6287 1.11333 40.6191C0.523355 40.6191 0.2474 40.2738 0.237885 39.7079C0.31401 39.1036 0.656578 38.8254 1.22752 38.8734Z" fill="#FFA2A4"/>
<path d="M0.190289 52.0332C0.123679 51.3714 0.428189 50.9398 1.13236 50.9302C1.71282 50.9302 2.03635 51.2467 2.0649 51.8318C2.09345 52.4169 1.79846 52.743 1.15139 52.8389C0.666081 52.8389 0.247384 52.6279 0.190289 52.0332Z" fill="#FFA2A4"/>
<path d="M47.6074 51.966C47.5693 50.6328 48.3781 49.7887 49.7103 49.7791C50.9379 49.7695 51.7277 50.5657 51.7753 51.7934C51.8229 53.1458 50.9664 53.846 49.7008 54.0379C48.4733 53.8556 47.6359 53.2034 47.6074 51.966Z" fill="#FFA2A4"/>
<path d="M51.7372 39.6119C51.8324 40.8492 51.0711 41.7029 49.8816 41.8084C48.5589 41.9331 47.693 41.1082 47.6454 39.7845C47.5979 38.5472 48.4257 37.8758 49.6152 37.636C50.8142 37.7511 51.6421 38.3937 51.7372 39.6119Z" fill="#FFA2A4"/>
<path d="M37.7205 37.9046C38.7958 37.9333 39.4429 38.576 39.4809 39.6503C39.519 40.83 38.8719 41.559 37.692 41.5878C36.512 41.6165 35.8935 40.9164 35.7983 39.7366C35.9125 38.5568 36.5405 37.8758 37.7205 37.9046Z" fill="#FFA2A4"/>
<path d="M35.7697 64.0324C35.7602 62.8526 36.4644 62.1237 37.6348 62.1141C38.8053 62.0949 39.5285 62.8143 39.538 63.9941C39.557 65.1738 38.8433 65.8165 37.6158 65.9508C36.5215 65.8261 35.7793 65.2218 35.7697 64.0324Z" fill="#FFA2A4"/>
<path d="M37.6729 49.9806C38.8433 49.9997 39.5475 50.7191 39.538 51.8989C39.5285 53.0787 38.8053 53.7885 37.6348 53.7789C36.4644 53.7693 35.8459 53.0307 35.7507 51.8605C35.8649 50.6808 36.5025 49.971 37.6729 49.9806Z" fill="#FFA2A4"/>
<path d="M59.6638 15.1147C59.6258 13.8774 60.4061 13.0525 61.605 12.9949C62.9277 12.9374 63.7746 13.7719 63.7651 15.1051C63.7556 16.3328 62.9182 16.9947 61.7192 17.1769C60.5298 17.0043 59.7019 16.352 59.6638 15.1147Z" fill="#FFA2A4"/>
<path d="M75.8407 2.82772C75.8787 4.17056 75.0794 5.01463 73.7472 5.02422C72.5292 5.0434 71.7298 4.25689 71.6728 3.02915C71.6157 1.67672 72.4626 0.976521 73.8519 0.765503C74.9271 0.986112 75.8026 1.5808 75.8407 2.82772Z" fill="#FFA2A4"/>
<path d="M47.6074 64.1763C47.5122 62.843 48.3115 61.9606 49.6342 61.9126C50.9569 61.8743 51.7848 62.7183 51.7753 64.0612C51.7658 65.2985 50.9474 65.9603 49.7579 66.1618C48.5304 66.0371 47.693 65.3944 47.6074 64.1763Z" fill="#FFA2A4"/>
<path d="M61.7954 25.0517C63.0229 25.09 63.8032 25.867 63.8413 27.0947C63.8793 28.4375 63.0895 29.2816 61.7573 29.3104C60.4061 29.3392 59.7305 28.4759 59.5592 27.1618C59.7495 25.8574 60.4441 25.0133 61.7954 25.0517Z" fill="#FFA2A4"/>
<path d="M61.6526 37.5593C63.0039 37.5305 63.8317 38.2595 63.8888 39.6311C63.9459 41.0986 63.1561 41.9427 61.6812 41.9427C60.3109 41.9427 59.6353 41.1082 59.5116 39.7654C59.6163 38.4225 60.2824 37.5881 61.6526 37.5593Z" fill="#FFA2A4"/>
<path d="M73.6806 12.8702C75.146 12.851 75.9644 13.6759 75.9168 15.153C75.8787 16.5246 75.0699 17.2728 73.7091 17.2536C72.3389 17.2344 71.6632 16.4287 71.53 14.9612C71.6823 13.7622 72.3008 12.8894 73.6806 12.8702Z" fill="#FFA2A4"/>
<path d="M86.2509 0.736725C87.6117 0.7655 88.392 1.54243 88.392 2.91404C88.392 4.40076 87.5355 5.18728 86.0796 5.12014C84.7094 5.05299 84.0718 4.18974 84.0147 2.81813C84.1765 1.49447 84.8902 0.70795 86.2509 0.736725Z" fill="#FFA2A4"/>
<path d="M61.6812 61.7592C63.0229 61.7304 63.8603 62.4498 63.946 63.8118C64.0411 65.2506 63.3369 66.181 61.862 66.2577C60.4156 66.3344 59.6068 65.5575 59.4545 64.0996C59.5211 62.6512 60.2063 61.7784 61.6812 61.7592Z" fill="#FFA2A4"/>
<path d="M63.9079 51.592C64.0411 53.0403 63.375 53.9803 61.8905 54.0954C60.5583 54.2009 59.6639 53.5391 59.5211 52.1579C59.3689 50.7 60.0826 49.8463 61.5575 49.6161C62.8516 49.6545 63.7842 50.2012 63.9079 51.592Z" fill="#FFA2A4"/>
<path d="M61.7573 74.3147C63.1085 74.3242 63.9079 75.082 63.9554 76.444C64.0125 77.902 63.2608 78.7748 61.7954 78.8228C60.3299 78.8611 59.5687 78.0458 59.464 76.5879C59.5496 75.1395 60.2919 74.3051 61.7573 74.3147Z" fill="#FFA2A4"/>
<path d="M75.9929 27.1523C76.012 28.5047 75.2983 29.3488 73.947 29.4351C72.5197 29.531 71.5967 28.8117 71.5205 27.3249C71.4444 25.867 72.2152 25.0517 73.6616 24.9078C75.108 24.9654 75.9644 25.6656 75.9929 27.1523Z" fill="#FFA2A4"/>
<path d="M86.0416 12.7743C87.4689 12.6784 88.392 13.4074 88.4871 14.8749C88.5823 16.3136 87.8591 17.244 86.4032 17.34C84.9758 17.4359 84.1194 16.6973 83.9291 15.2298C83.9291 13.8102 84.5761 12.8702 86.0416 12.7743Z" fill="#FFA2A4"/>
<path d="M71.3873 39.8901C71.3207 38.3938 72.2342 37.4058 73.7187 37.3675C75.108 37.3291 76.0405 38.2307 76.1166 39.6119C76.1928 41.1178 75.2602 41.9619 73.7853 42.1729C72.4055 42.029 71.4539 41.2713 71.3873 39.8901Z" fill="#FFA2A4"/>
<path d="M73.7472 49.453C75.1269 49.4338 76.069 50.3354 76.1642 51.707C76.2593 53.2129 75.3458 54.2201 73.8804 54.3064C72.3959 54.3927 71.5585 53.424 71.3016 51.9181C71.4634 50.4601 72.2532 49.4722 73.7472 49.453Z" fill="#FFA2A4"/>
<path d="M86.1652 24.6872C87.6497 24.7448 88.5347 25.608 88.6964 27.0756C88.8487 28.3992 87.4975 29.79 86.1748 29.6845C84.6998 29.5694 83.91 28.6486 83.7292 27.3058C83.7197 25.9245 84.9092 24.6393 86.1652 24.6872Z" fill="#FFA2A4"/>
<path d="M73.6901 74.0749C75.1746 74.1229 76.0595 74.9862 76.2403 76.4537C76.3926 77.7677 75.0413 79.1681 73.7282 79.0722C72.2532 78.9571 71.4634 78.0459 71.2731 76.7031C71.2541 75.3219 72.434 74.0366 73.6901 74.0749Z" fill="#FFA2A4"/>
<path d="M73.8043 66.4879C72.3294 66.5167 71.4349 65.5767 71.2731 64.1092C71.1304 62.7855 72.4816 61.3947 73.8043 61.5098C75.2792 61.6345 76.069 62.5457 76.2594 64.0132C76.069 65.4712 75.2792 66.4591 73.8043 66.4879Z" fill="#FFA2A4"/>
<path d="M88.7431 39.7558C88.7526 41.2425 87.8296 42.2113 86.3737 42.288C84.794 42.3743 83.7759 41.4343 83.6997 39.8517C83.6236 38.2499 84.6323 37.4058 86.1738 37.1564C87.7154 37.3483 88.7241 38.154 88.7431 39.7558Z" fill="#FFA2A4"/>
<path d="M86.2884 49.3188C87.8585 49.3763 88.81 50.3738 88.7625 51.9565C88.7149 53.5391 87.7252 54.4887 86.1456 54.4503C84.566 54.4119 83.7762 53.3664 83.6144 51.803C83.8714 50.2683 84.6992 49.2612 86.2884 49.3188Z" fill="#FFA2A4"/>
<path d="M86.222 61.4234C87.8111 61.433 88.7056 62.3634 88.8008 63.9556C88.8864 65.4807 87.6208 66.7181 86.1173 66.6126C84.5187 66.4975 83.7384 65.5287 83.6052 63.9365C83.805 62.4018 84.6138 61.4042 86.222 61.4234Z" fill="#FFA2A4"/>
<path d="M88.8011 76.5016C88.7821 78.1034 87.9257 79.0434 86.3461 79.1777C84.8426 79.3024 83.577 78.0651 83.6436 76.5496C83.7102 74.9286 84.6523 74.1325 85.9274 73.9694C87.6307 73.9502 88.8107 75.0629 88.8011 76.5016Z" fill="#FFA2A4"/>
</g>
<g clip-path="url(#clip2_24_2720)">
<path d="M135.376 86.9883C134.063 87.1322 133.187 87.794 133.187 89.156C133.178 90.4989 134.005 91.3142 135.338 91.3046C136.575 91.3046 137.355 90.5277 137.422 89.2999C137.498 87.9379 136.66 87.2185 135.376 86.9883Z" fill="#FFA2A4"/>
<path d="M137.26 138.736C137.165 139.867 136.375 140.606 135.233 140.539C134.005 140.472 133.244 139.647 133.349 138.39C133.444 137.259 134.234 136.654 135.366 136.549C136.584 136.769 137.364 137.47 137.26 138.736Z" fill="#FFA2A4"/>
<path d="M123.386 164.787C122.149 164.844 121.34 164.077 121.302 162.83C121.273 161.679 122.016 160.902 123.138 160.844C124.385 160.777 125.07 161.573 125.26 162.792C125.137 163.943 124.518 164.729 123.386 164.787Z" fill="#FFA2A4"/>
<path d="M133.473 150.591C133.53 149.392 134.281 148.769 135.442 148.845C136.518 148.912 137.136 149.593 137.127 150.677C137.127 151.876 136.422 152.481 135.262 152.557C134.091 152.433 133.415 151.78 133.473 150.591Z" fill="#FFA2A4"/>
<path d="M147.308 91.0744C146.138 91.0552 145.434 90.3262 145.443 89.156C145.453 87.9762 146.176 87.2665 147.347 87.276C148.517 87.2856 149.135 88.0242 149.231 89.1944C149.126 90.3646 148.488 91.084 147.308 91.0744Z" fill="#FFA2A4"/>
<path d="M161.449 113.883C161.42 114.871 160.802 115.514 159.831 115.514C158.746 115.514 158.09 114.823 158.156 113.73C158.223 112.761 158.899 112.243 159.964 112.157C160.792 112.387 161.477 112.876 161.449 113.883Z" fill="#FFA2A4"/>
<path d="M159.974 90.8635C158.88 90.969 158.185 90.3455 158.109 89.2425C158.042 88.2353 158.651 87.5735 159.622 87.4776C160.726 87.3625 161.325 88.0339 161.516 89.0698C161.458 90.0961 160.954 90.7771 159.974 90.8635Z" fill="#FFA2A4"/>
<path d="M158.195 125.95C158.204 125.048 158.804 124.434 159.679 124.377C160.678 124.31 161.344 124.933 161.392 125.921C161.449 126.928 160.773 127.465 159.803 127.638C158.842 127.494 158.185 126.967 158.195 125.95Z" fill="#FFA2A4"/>
<path d="M158.109 101.76C158.118 100.657 158.785 100.004 159.879 100.043C160.859 100.081 161.477 100.724 161.477 101.721C161.477 102.834 160.783 103.381 159.717 103.486C158.756 103.294 158.109 102.767 158.109 101.76Z" fill="#FFA2A4"/>
<path d="M147.461 164.365C146.481 164.432 145.834 163.818 145.796 162.83C145.767 161.938 146.357 161.324 147.213 161.267C148.193 161.199 148.745 161.823 148.917 162.84C148.793 163.674 148.327 164.307 147.461 164.365Z" fill="#FFA2A4"/>
<path d="M133.587 162.878C133.558 161.794 134.167 161.123 135.242 161.084C136.318 161.046 136.974 161.66 137.022 162.753C137.07 163.847 136.422 164.422 135.242 164.604C134.348 164.451 133.606 164 133.587 162.878Z" fill="#FFA2A4"/>
<path d="M145.691 150.697C145.691 149.709 146.309 149.056 147.28 149.028C148.365 149.008 149.031 149.689 148.983 150.783C148.945 151.761 148.27 152.279 147.299 152.385C146.338 152.212 145.691 151.684 145.691 150.697Z" fill="#FFA2A4"/>
<path d="M145.615 138.649C145.567 137.565 146.167 136.884 147.242 136.827C148.317 136.769 148.983 137.383 149.05 138.467C149.117 139.56 148.469 140.146 147.442 140.318C146.366 140.261 145.672 139.743 145.615 138.649Z" fill="#FFA2A4"/>
<path d="M158.271 138.361C158.375 137.489 159.003 136.923 159.879 136.999C160.84 137.086 161.439 137.738 161.316 138.736C161.211 139.608 160.583 140.069 159.717 140.126C158.765 139.925 158.147 139.369 158.271 138.361Z" fill="#FFA2A4"/>
<path d="M159.955 152.039C159.146 152.116 158.566 151.752 158.471 150.898C158.375 149.987 158.785 149.382 159.746 149.334C160.574 149.296 161.049 149.747 161.144 150.581C161.154 151.406 160.792 151.953 159.955 152.039Z" fill="#FFA2A4"/>
<path d="M161.04 162.619C161.163 163.444 160.707 163.991 159.898 164.077C159.175 164.154 158.67 163.712 158.566 163.012C158.442 162.178 158.918 161.708 159.688 161.535C160.431 161.545 160.935 161.909 161.04 162.619Z" fill="#FFA2A4"/>
<path d="M173.172 113.711C173.239 114.526 172.877 115.111 172.03 115.198C171.117 115.293 170.527 114.871 170.489 113.893C170.46 113.059 170.908 112.579 171.726 112.493C172.563 112.493 173.096 112.867 173.172 113.711Z" fill="#FFA2A4"/>
<path d="M171.954 103.083C171.136 103.141 170.575 102.748 170.498 101.903C170.422 100.983 170.86 100.398 171.821 100.378C172.658 100.359 173.106 100.829 173.191 101.779C173.153 102.479 172.801 103.035 171.954 103.083Z" fill="#FFA2A4"/>
<path d="M173.077 138.39C173.172 139.215 172.716 139.752 171.888 139.81C171.155 139.867 170.67 139.407 170.584 138.707C170.489 137.882 170.974 137.412 171.754 137.258C172.506 137.297 173.001 137.69 173.077 138.39Z" fill="#FFA2A4"/>
<path d="M171.916 90.5276C171.098 90.566 170.556 90.1632 170.498 89.3191C170.432 88.3887 170.898 87.8324 171.859 87.8324C172.697 87.8324 173.134 88.312 173.191 89.1656C173.163 89.9713 172.763 90.4797 171.916 90.5276Z" fill="#FFA2A4"/>
<path d="M173.134 126.036C173.115 126.794 172.697 127.254 171.954 127.302C171.117 127.36 170.584 126.928 170.546 126.065C170.508 125.202 170.984 124.751 171.945 124.665C172.639 124.76 173.153 125.154 173.134 126.036Z" fill="#FFA2A4"/>
<path d="M170.727 150.754C170.679 150.102 171.107 149.641 171.716 149.584C172.449 149.517 172.934 149.977 172.934 150.725C172.925 151.358 172.478 151.723 171.774 151.828C171.231 151.713 170.774 151.397 170.727 150.754Z" fill="#FFA2A4"/>
<path d="M183.801 100.618C184.449 100.57 184.905 101.002 184.962 101.616C185.029 102.354 184.572 102.843 183.83 102.843C183.202 102.834 182.84 102.383 182.745 101.75C182.812 101.107 183.173 100.676 183.801 100.618Z" fill="#FFA2A4"/>
<path d="M183.982 90.2783C183.335 90.3647 182.869 89.9426 182.783 89.3384C182.679 88.5998 183.126 88.101 183.859 88.0627C184.496 88.0339 184.858 88.4847 184.991 89.1273C184.953 89.7604 184.591 90.2016 183.982 90.2783Z" fill="#FFA2A4"/>
<path d="M171.802 163.693C171.326 163.684 171.012 163.415 170.965 162.936C170.917 162.37 171.174 161.976 171.764 161.938C172.344 161.9 172.659 162.207 172.716 162.811C172.678 163.386 172.392 163.712 171.802 163.693Z" fill="#FFA2A4"/>
<path d="M183.763 126.871C183.278 126.832 183.021 126.525 183.002 126.046C182.983 125.461 183.288 125.115 183.878 125.125C184.468 125.125 184.744 125.47 184.753 126.036C184.677 126.64 184.334 126.919 183.763 126.871Z" fill="#FFA2A4"/>
<path d="M184.801 113.711C184.867 114.373 184.563 114.804 183.858 114.814C183.278 114.814 182.955 114.497 182.926 113.912C182.897 113.327 183.192 113.001 183.839 112.905C184.325 112.905 184.743 113.116 184.801 113.711Z" fill="#FFA2A4"/>
<path d="M137.384 113.778C137.422 115.111 136.613 115.955 135.281 115.965C134.053 115.974 133.263 115.178 133.216 113.951C133.168 112.598 134.024 111.898 135.29 111.706C136.518 111.888 137.355 112.541 137.384 113.778Z" fill="#FFA2A4"/>
<path d="M133.254 126.132C133.159 124.895 133.92 124.041 135.109 123.936C136.432 123.811 137.298 124.636 137.345 125.959C137.393 127.197 136.565 127.868 135.376 128.108C134.177 127.993 133.349 127.35 133.254 126.132Z" fill="#FFA2A4"/>
<path d="M147.27 127.839C146.195 127.811 145.548 127.168 145.51 126.094C145.472 124.914 146.119 124.185 147.299 124.156C148.479 124.127 149.097 124.828 149.193 126.007C149.078 127.187 148.45 127.868 147.27 127.839Z" fill="#FFA2A4"/>
<path d="M149.221 101.712C149.231 102.891 148.526 103.62 147.356 103.63C146.186 103.649 145.462 102.93 145.453 101.75C145.434 100.57 146.148 99.9276 147.375 99.7933C148.469 99.918 149.212 100.522 149.221 101.712Z" fill="#FFA2A4"/>
<path d="M147.318 115.763C146.148 115.744 145.443 115.025 145.453 113.845C145.462 112.665 146.186 111.956 147.356 111.965C148.526 111.975 149.145 112.713 149.24 113.883C149.126 115.063 148.488 115.773 147.318 115.763Z" fill="#FFA2A4"/>
<path d="M125.327 150.629C125.365 151.867 124.585 152.691 123.386 152.749C122.063 152.807 121.216 151.972 121.226 150.639C121.235 149.411 122.073 148.749 123.272 148.567C124.461 148.74 125.289 149.392 125.327 150.629Z" fill="#FFA2A4"/>
<path d="M109.15 162.916C109.112 161.573 109.912 160.729 111.244 160.72C112.462 160.701 113.261 161.487 113.318 162.715C113.375 164.067 112.528 164.767 111.139 164.979C110.064 164.758 109.188 164.163 109.15 162.916Z" fill="#FFA2A4"/>
<path d="M137.384 101.568C137.479 102.901 136.679 103.783 135.357 103.831C134.034 103.87 133.206 103.026 133.216 101.683C133.225 100.446 134.043 99.7837 135.233 99.5823C136.46 99.7069 137.298 100.35 137.384 101.568Z" fill="#FFA2A4"/>
<path d="M123.196 140.692C121.968 140.654 121.188 139.877 121.15 138.649C121.112 137.306 121.901 136.462 123.234 136.434C124.585 136.405 125.26 137.268 125.432 138.582C125.241 139.887 124.547 140.731 123.196 140.692Z" fill="#FFA2A4"/>
<path d="M123.338 128.185C121.987 128.214 121.159 127.485 121.102 126.113C121.045 124.645 121.835 123.801 123.31 123.801C124.68 123.801 125.356 124.636 125.479 125.979C125.375 127.321 124.709 128.156 123.338 128.185Z" fill="#FFA2A4"/>
<path d="M111.31 152.874C109.845 152.893 109.027 152.068 109.074 150.591C109.112 149.219 109.921 148.471 111.282 148.49C112.652 148.51 113.328 149.315 113.461 150.783C113.309 151.982 112.69 152.855 111.31 152.874Z" fill="#FFA2A4"/>
<path d="M98.74 165.007C97.3793 164.979 96.599 164.202 96.599 162.83C96.599 161.343 97.4554 160.557 98.9113 160.624C100.282 160.691 100.919 161.554 100.976 162.926C100.814 164.25 100.101 165.036 98.74 165.007Z" fill="#FFA2A4"/>
<path d="M123.31 103.985C121.968 104.014 121.131 103.294 121.045 101.932C120.95 100.493 121.654 99.563 123.129 99.4863C124.575 99.4095 125.384 100.186 125.536 101.644C125.47 103.093 124.785 103.966 123.31 103.985Z" fill="#FFA2A4"/>
<path d="M121.083 114.152C120.95 112.704 121.616 111.764 123.1 111.649C124.433 111.543 125.327 112.205 125.47 113.586C125.622 115.044 124.908 115.898 123.433 116.128C122.139 116.09 121.207 115.543 121.083 114.152Z" fill="#FFA2A4"/>
<path d="M123.234 91.4294C121.882 91.4198 121.083 90.662 121.035 89.3C120.978 87.8421 121.73 86.9692 123.196 86.9212C124.661 86.8829 125.422 87.6982 125.527 89.1561C125.441 90.6045 124.699 91.439 123.234 91.4294Z" fill="#FFA2A4"/>
<path d="M108.998 138.592C108.979 137.239 109.693 136.395 111.044 136.309C112.471 136.213 113.394 136.932 113.47 138.419C113.547 139.877 112.776 140.692 111.329 140.836C109.883 140.779 109.027 140.078 108.998 138.592Z" fill="#FFA2A4"/>
<path d="M98.9494 152.97C97.522 153.066 96.599 152.337 96.5038 150.869C96.4086 149.43 97.1318 148.5 98.5878 148.404C100.015 148.308 100.872 149.047 101.062 150.514C101.062 151.934 100.415 152.874 98.9494 152.97Z" fill="#FFA2A4"/>
<path d="M113.604 125.854C113.67 127.35 112.757 128.338 111.272 128.377C109.883 128.415 108.95 127.513 108.874 126.132C108.798 124.626 109.731 123.782 111.206 123.571C112.585 123.715 113.537 124.473 113.604 125.854Z" fill="#FFA2A4"/>
<path d="M111.244 116.291C109.864 116.31 108.922 115.409 108.827 114.037C108.732 112.531 109.645 111.524 111.11 111.438C112.595 111.351 113.432 112.32 113.689 113.826C113.527 115.284 112.738 116.272 111.244 116.291Z" fill="#FFA2A4"/>
<path d="M98.8257 141.057C97.3412 140.999 96.4563 140.136 96.2945 138.668C96.1422 137.345 97.4935 135.954 98.8162 136.06C100.291 136.175 101.081 137.095 101.262 138.438C101.271 139.819 100.082 141.105 98.8257 141.057Z" fill="#FFA2A4"/>
<path d="M111.301 91.6691C109.816 91.6211 108.931 90.7579 108.751 89.2903C108.598 87.9763 109.95 86.5759 111.263 86.6718C112.738 86.7869 113.528 87.6981 113.718 89.041C113.737 90.4222 112.557 91.7075 111.301 91.6691Z" fill="#FFA2A4"/>
<path d="M111.187 99.2562C112.662 99.2274 113.556 100.167 113.718 101.635C113.861 102.959 112.509 104.349 111.187 104.234C109.712 104.11 108.922 103.198 108.732 101.731C108.922 100.273 109.712 99.285 111.187 99.2562Z" fill="#FFA2A4"/>
<path d="M96.2478 125.988C96.2383 124.501 97.1614 123.533 98.6173 123.456C100.197 123.37 101.215 124.31 101.291 125.892C101.367 127.494 100.359 128.338 98.8171 128.588C97.2755 128.396 96.2669 127.59 96.2478 125.988Z" fill="#FFA2A4"/>
<path d="M98.7026 116.425C97.1325 116.368 96.1809 115.37 96.2285 113.788C96.276 112.205 97.2657 111.255 98.8453 111.294C100.425 111.332 101.215 112.378 101.376 113.941C101.12 115.476 100.292 116.483 98.7026 116.425Z" fill="#FFA2A4"/>
<path d="M98.7685 104.321C97.1794 104.311 96.2849 103.381 96.1897 101.788C96.1041 100.263 97.3697 99.0259 98.8732 99.1314C100.472 99.2465 101.252 100.215 101.385 101.807C101.185 103.342 100.377 104.34 98.7685 104.321Z" fill="#FFA2A4"/>
<path d="M96.1898 89.2425C96.2088 87.6406 97.0652 86.7007 98.6448 86.5664C100.148 86.4417 101.414 87.679 101.347 89.1945C101.281 90.8155 100.339 91.6116 99.0635 91.7747C97.3602 91.7938 96.1803 90.6812 96.1898 89.2425Z" fill="#FFA2A4"/>
</g>
<g clip-path="url(#clip3_24_2720)">
<path d="M49.6152 86.9883C50.9284 87.1322 51.8039 87.794 51.8039 89.156C51.8134 90.4989 50.9855 91.3142 49.6533 91.3046C48.4162 91.3046 47.6359 90.5277 47.5693 89.2999C47.4932 87.9379 48.3306 87.2185 49.6152 86.9883Z" fill="#FFA2A4"/>
<path d="M47.7311 138.736C47.8262 139.867 48.616 140.606 49.7579 140.539C50.9855 140.472 51.7467 139.647 51.642 138.39C51.5469 137.259 50.7571 136.654 49.6247 136.549C48.4067 136.769 47.6264 137.47 47.7311 138.736Z" fill="#FFA2A4"/>
<path d="M61.6051 164.787C62.8421 164.844 63.651 164.077 63.689 162.83C63.7176 161.679 62.9754 160.902 61.8525 160.844C60.6059 160.777 59.9208 161.573 59.7305 162.792C59.8542 163.943 60.4727 164.729 61.6051 164.787Z" fill="#FFA2A4"/>
<path d="M51.5184 150.591C51.4613 149.392 50.7095 148.769 49.5486 148.845C48.4733 148.912 47.8548 149.593 47.8643 150.677C47.8643 151.876 48.5685 152.481 49.7294 152.557C50.8998 152.433 51.5755 151.78 51.5184 150.591Z" fill="#FFA2A4"/>
<path d="M37.6824 91.0744C38.8529 91.0552 39.557 90.3262 39.5475 89.156C39.538 87.9762 38.8148 87.2665 37.6444 87.276C36.4739 87.2856 35.8554 88.0242 35.7602 89.1944C35.8649 90.3646 36.5025 91.084 37.6824 91.0744Z" fill="#FFA2A4"/>
<path d="M23.542 113.883C23.5706 114.871 24.1891 115.514 25.1597 115.514C26.2445 115.514 26.9011 114.823 26.8345 113.73C26.7678 112.761 26.0922 112.243 25.0265 112.157C24.1986 112.387 23.5135 112.876 23.542 113.883Z" fill="#FFA2A4"/>
<path d="M25.0169 90.8635C26.1113 90.969 26.8059 90.3455 26.882 89.2425C26.9486 88.2353 26.3396 87.5735 25.369 87.4776C24.2652 87.3625 23.6657 88.0339 23.4754 89.0698C23.5325 90.0961 24.0368 90.7771 25.0169 90.8635Z" fill="#FFA2A4"/>
<path d="M26.7964 125.95C26.7869 125.048 26.1874 124.434 25.312 124.377C24.3128 124.31 23.6467 124.933 23.5991 125.921C23.542 126.928 24.2176 127.465 25.1883 127.638C26.1493 127.494 26.8059 126.967 26.7964 125.95Z" fill="#FFA2A4"/>
<path d="M26.8821 101.76C26.8725 100.657 26.2064 100.004 25.1121 100.043C24.132 100.081 23.5135 100.724 23.5135 101.721C23.5135 102.834 24.2081 103.381 25.2739 103.486C26.235 103.294 26.8821 102.767 26.8821 101.76Z" fill="#FFA2A4"/>
<path d="M37.5302 164.365C38.5103 164.432 39.1574 163.818 39.1954 162.83C39.224 161.938 38.634 161.324 37.7776 161.267C36.7975 161.199 36.2456 161.823 36.0743 162.84C36.198 163.674 36.6642 164.307 37.5302 164.365Z" fill="#FFA2A4"/>
<path d="M51.4042 162.878C51.4327 161.794 50.8237 161.123 49.7485 161.084C48.6732 161.046 48.0166 161.66 47.969 162.753C47.9214 163.847 48.5685 164.422 49.7485 164.604C50.6429 164.451 51.3852 164 51.4042 162.878Z" fill="#FFA2A4"/>
<path d="M39.3001 150.697C39.3001 149.709 38.6816 149.056 37.711 149.028C36.6262 149.008 35.9601 149.689 36.0076 150.783C36.0457 151.761 36.7213 152.279 37.6919 152.385C38.653 152.212 39.3001 151.684 39.3001 150.697Z" fill="#FFA2A4"/>
<path d="M39.3762 138.649C39.4238 137.565 38.8243 136.884 37.749 136.827C36.6737 136.769 36.0076 137.383 35.941 138.467C35.8744 139.56 36.5215 140.146 37.5492 140.318C38.6245 140.261 39.3191 139.743 39.3762 138.649Z" fill="#FFA2A4"/>
<path d="M26.7203 138.361C26.6156 137.489 25.9875 136.923 25.1121 136.999C24.151 137.086 23.5515 137.738 23.6752 138.736C23.7799 139.608 24.4079 140.069 25.2739 140.126C26.2254 139.925 26.844 139.369 26.7203 138.361Z" fill="#FFA2A4"/>
<path d="M25.036 152.039C25.8448 152.116 26.4253 151.752 26.5204 150.898C26.6156 149.987 26.2064 149.382 25.2453 149.334C24.4174 149.296 23.9417 149.747 23.8465 150.581C23.837 151.406 24.1986 151.953 25.036 152.039Z" fill="#FFA2A4"/>
<path d="M23.9512 162.619C23.8275 163.444 24.2843 163.991 25.0931 164.077C25.8163 164.154 26.3206 163.712 26.4253 163.012C26.549 162.178 26.0732 161.708 25.3024 161.535C24.5602 161.545 24.0559 161.909 23.9512 162.619Z" fill="#FFA2A4"/>
<path d="M11.8186 113.711C11.752 114.526 12.1136 115.111 12.9605 115.198C13.874 115.293 14.464 114.871 14.502 113.893C14.5306 113.059 14.0833 112.579 13.265 112.493C12.4276 112.493 11.8947 112.867 11.8186 113.711Z" fill="#FFA2A4"/>
<path d="M13.0366 103.083C13.855 103.141 14.4164 102.748 14.4925 101.903C14.5686 100.983 14.1309 100.398 13.1698 100.378C12.3324 100.359 11.8852 100.829 11.7995 101.779C11.8376 102.479 12.1897 103.035 13.0366 103.083Z" fill="#FFA2A4"/>
<path d="M11.9137 138.39C11.8186 139.215 12.2753 139.752 13.1032 139.81C13.8359 139.867 14.3212 139.407 14.4068 138.707C14.502 137.882 14.0167 137.412 13.2364 137.258C12.4847 137.297 11.9898 137.69 11.9137 138.39Z" fill="#FFA2A4"/>
<path d="M13.0746 90.5276C13.893 90.566 14.4354 90.1632 14.4925 89.3191C14.5591 88.3887 14.0928 87.8324 13.1317 87.8324C12.2944 87.8324 11.8566 88.312 11.7995 89.1656C11.8281 89.9713 12.2277 90.4797 13.0746 90.5276Z" fill="#FFA2A4"/>
<path d="M11.8567 126.036C11.8757 126.794 12.2944 127.254 13.0366 127.302C13.874 127.36 14.4069 126.928 14.445 126.065C14.483 125.202 14.0072 124.751 13.0461 124.665C12.3515 124.76 11.8376 125.154 11.8567 126.036Z" fill="#FFA2A4"/>
<path d="M14.2641 150.754C14.3117 150.102 13.8835 149.641 13.2745 149.584C12.5418 149.517 12.0565 149.977 12.0565 150.725C12.066 151.358 12.5132 151.723 13.2174 151.828C13.7598 151.713 14.2165 151.397 14.2641 150.754Z" fill="#FFA2A4"/>
<path d="M1.18948 100.618C0.542418 100.57 0.0856631 101.002 0.028569 101.616C-0.0380409 102.354 0.418715 102.843 1.16094 102.843C1.78897 102.834 2.15057 102.383 2.24573 101.75C2.17912 101.107 1.81752 100.676 1.18948 100.618Z" fill="#FFA2A4"/>
<path d="M1.00868 90.2783C1.65575 90.3647 2.12202 89.9426 2.20766 89.3384C2.31233 88.5998 1.8651 88.101 1.13239 88.0627C0.494835 88.0339 0.133235 88.4847 1.52588e-05 89.1273C0.0380781 89.7604 0.399673 90.2016 1.00868 90.2783Z" fill="#FFA2A4"/>
<path d="M13.1888 163.693C13.6646 163.684 13.9787 163.415 14.0262 162.936C14.0738 162.37 13.8169 161.976 13.2269 161.938C12.6464 161.9 12.3324 162.207 12.2753 162.811C12.3134 163.386 12.5989 163.712 13.1888 163.693Z" fill="#FFA2A4"/>
<path d="M1.22752 126.871C1.71282 126.832 1.96974 126.525 1.98878 126.046C2.00781 125.461 1.70331 125.115 1.11333 125.125C0.523355 125.125 0.2474 125.47 0.237885 126.036C0.31401 126.64 0.656578 126.919 1.22752 126.871Z" fill="#FFA2A4"/>
<path d="M0.190289 113.711C0.123679 114.373 0.428189 114.804 1.13236 114.814C1.71282 114.814 2.03635 114.497 2.0649 113.912C2.09345 113.327 1.79846 113.001 1.15139 112.905C0.666081 112.905 0.247384 113.116 0.190289 113.711Z" fill="#FFA2A4"/>
<path d="M47.6074 113.778C47.5693 115.111 48.3781 115.955 49.7103 115.965C50.9379 115.974 51.7277 115.178 51.7753 113.951C51.8229 112.598 50.9664 111.898 49.7008 111.706C48.4733 111.888 47.6359 112.541 47.6074 113.778Z" fill="#FFA2A4"/>
<path d="M51.7372 126.132C51.8324 124.895 51.0711 124.041 49.8816 123.936C48.5589 123.811 47.693 124.636 47.6454 125.959C47.5979 127.197 48.4257 127.868 49.6152 128.108C50.8142 127.993 51.6421 127.35 51.7372 126.132Z" fill="#FFA2A4"/>
<path d="M37.7205 127.839C38.7958 127.811 39.4429 127.168 39.4809 126.094C39.519 124.914 38.8719 124.185 37.692 124.156C36.512 124.127 35.8935 124.828 35.7983 126.007C35.9125 127.187 36.5405 127.868 37.7205 127.839Z" fill="#FFA2A4"/>
<path d="M35.7697 101.712C35.7602 102.891 36.4644 103.62 37.6348 103.63C38.8053 103.649 39.5285 102.93 39.538 101.75C39.557 100.57 38.8433 99.9276 37.6158 99.7933C36.5215 99.918 35.7793 100.522 35.7697 101.712Z" fill="#FFA2A4"/>
<path d="M37.6729 115.763C38.8433 115.744 39.5475 115.025 39.538 113.845C39.5285 112.665 38.8053 111.956 37.6348 111.965C36.4644 111.975 35.8459 112.713 35.7507 113.883C35.8649 115.063 36.5025 115.773 37.6729 115.763Z" fill="#FFA2A4"/>
<path d="M59.6638 150.629C59.6258 151.867 60.4061 152.691 61.605 152.749C62.9277 152.807 63.7746 151.972 63.7651 150.639C63.7556 149.411 62.9182 148.749 61.7192 148.567C60.5298 148.74 59.7019 149.392 59.6638 150.629Z" fill="#FFA2A4"/>
<path d="M75.8407 162.916C75.8787 161.573 75.0794 160.729 73.7472 160.72C72.5292 160.701 71.7298 161.487 71.6728 162.715C71.6157 164.067 72.4626 164.767 73.8519 164.979C74.9271 164.758 75.8026 164.163 75.8407 162.916Z" fill="#FFA2A4"/>
<path d="M47.6074 101.568C47.5122 102.901 48.3115 103.783 49.6342 103.831C50.9569 103.87 51.7848 103.026 51.7753 101.683C51.7658 100.446 50.9474 99.7837 49.7579 99.5823C48.5304 99.7069 47.693 100.35 47.6074 101.568Z" fill="#FFA2A4"/>
<path d="M61.7954 140.692C63.0229 140.654 63.8032 139.877 63.8413 138.649C63.8793 137.306 63.0895 136.462 61.7573 136.434C60.4061 136.405 59.7305 137.268 59.5592 138.582C59.7495 139.887 60.4441 140.731 61.7954 140.692Z" fill="#FFA2A4"/>
<path d="M61.6526 128.185C63.0039 128.214 63.8317 127.485 63.8888 126.113C63.9459 124.645 63.1561 123.801 61.6812 123.801C60.3109 123.801 59.6353 124.636 59.5116 125.979C59.6163 127.321 60.2824 128.156 61.6526 128.185Z" fill="#FFA2A4"/>
<path d="M73.6806 152.874C75.146 152.893 75.9644 152.068 75.9168 150.591C75.8787 149.219 75.0699 148.471 73.7091 148.49C72.3389 148.51 71.6632 149.315 71.53 150.783C71.6823 151.982 72.3008 152.855 73.6806 152.874Z" fill="#FFA2A4"/>
<path d="M86.2509 165.007C87.6117 164.979 88.392 164.202 88.392 162.83C88.392 161.343 87.5355 160.557 86.0796 160.624C84.7094 160.691 84.0718 161.554 84.0147 162.926C84.1765 164.25 84.8902 165.036 86.2509 165.007Z" fill="#FFA2A4"/>
<path d="M61.6812 103.985C63.0229 104.014 63.8603 103.294 63.946 101.932C64.0411 100.493 63.3369 99.563 61.862 99.4863C60.4156 99.4095 59.6068 100.186 59.4545 101.644C59.5211 103.093 60.2063 103.966 61.6812 103.985Z" fill="#FFA2A4"/>
<path d="M63.9079 114.152C64.0411 112.704 63.375 111.764 61.8905 111.649C60.5583 111.543 59.6639 112.205 59.5211 113.586C59.3689 115.044 60.0826 115.898 61.5575 116.128C62.8516 116.09 63.7842 115.543 63.9079 114.152Z" fill="#FFA2A4"/>
<path d="M61.7573 91.4294C63.1085 91.4198 63.9079 90.662 63.9554 89.3C64.0125 87.8421 63.2608 86.9692 61.7954 86.9212C60.3299 86.8829 59.5687 87.6982 59.464 89.1561C59.5496 90.6045 60.2919 91.439 61.7573 91.4294Z" fill="#FFA2A4"/>
<path d="M75.9929 138.592C76.012 137.239 75.2983 136.395 73.947 136.309C72.5197 136.213 71.5967 136.932 71.5205 138.419C71.4444 139.877 72.2152 140.692 73.6616 140.836C75.108 140.779 75.9644 140.078 75.9929 138.592Z" fill="#FFA2A4"/>
<path d="M86.0416 152.97C87.4689 153.066 88.392 152.337 88.4871 150.869C88.5823 149.43 87.8591 148.5 86.4032 148.404C84.9758 148.308 84.1194 149.047 83.9291 150.514C83.9291 151.934 84.5761 152.874 86.0416 152.97Z" fill="#FFA2A4"/>
<path d="M71.3873 125.854C71.3207 127.35 72.2342 128.338 73.7187 128.377C75.108 128.415 76.0405 127.513 76.1166 126.132C76.1928 124.626 75.2602 123.782 73.7853 123.571C72.4055 123.715 71.4539 124.473 71.3873 125.854Z" fill="#FFA2A4"/>
<path d="M73.7472 116.291C75.1269 116.31 76.069 115.409 76.1642 114.037C76.2593 112.531 75.3458 111.524 73.8804 111.438C72.3959 111.351 71.5585 112.32 71.3016 113.826C71.4634 115.284 72.2532 116.272 73.7472 116.291Z" fill="#FFA2A4"/>
<path d="M86.1652 141.057C87.6497 140.999 88.5347 140.136 88.6964 138.668C88.8487 137.345 87.4975 135.954 86.1748 136.06C84.6998 136.175 83.91 137.095 83.7292 138.438C83.7197 139.819 84.9092 141.105 86.1652 141.057Z" fill="#FFA2A4"/>
<path d="M73.6901 91.6691C75.1746 91.6211 76.0595 90.7579 76.2403 89.2903C76.3926 87.9763 75.0413 86.5759 73.7282 86.6718C72.2532 86.7869 71.4634 87.6981 71.2731 89.041C71.2541 90.4222 72.434 91.7075 73.6901 91.6691Z" fill="#FFA2A4"/>
<path d="M73.8043 99.2562C72.3294 99.2274 71.4349 100.167 71.2731 101.635C71.1304 102.959 72.4816 104.349 73.8043 104.234C75.2792 104.11 76.069 103.198 76.2594 101.731C76.069 100.273 75.2792 99.285 73.8043 99.2562Z" fill="#FFA2A4"/>
<path d="M88.7431 125.988C88.7526 124.501 87.8296 123.533 86.3737 123.456C84.794 123.37 83.7759 124.31 83.6997 125.892C83.6236 127.494 84.6323 128.338 86.1738 128.588C87.7154 128.396 88.7241 127.59 88.7431 125.988Z" fill="#FFA2A4"/>
<path d="M86.2884 116.425C87.8585 116.368 88.81 115.37 88.7625 113.788C88.7149 112.205 87.7252 111.255 86.1456 111.294C84.566 111.332 83.7762 112.378 83.6144 113.941C83.8714 115.476 84.6992 116.483 86.2884 116.425Z" fill="#FFA2A4"/>
<path d="M86.222 104.321C87.8111 104.311 88.7056 103.381 88.8008 101.788C88.8864 100.263 87.6208 99.0259 86.1173 99.1314C84.5187 99.2465 83.7384 100.215 83.6052 101.807C83.805 103.342 84.6138 104.34 86.222 104.321Z" fill="#FFA2A4"/>
<path d="M88.8011 89.2425C88.7821 87.6406 87.9257 86.7007 86.3461 86.5664C84.8426 86.4417 83.577 87.679 83.6436 89.1945C83.7102 90.8155 84.6523 91.6116 85.9274 91.7747C87.6307 91.7938 88.8107 90.6812 88.8011 89.2425Z" fill="#FFA2A4"/>
</g>
<defs>
<clipPath id="clip0_24_2720">
<rect width="88.8011" height="78.441" fill="white" transform="translate(96.1898 0.736694)"/>
</clipPath>
<clipPath id="clip1_24_2720">
<rect width="88.8011" height="78.441" fill="white" transform="matrix(-1 0 0 1 88.8011 0.736694)"/>
</clipPath>
<clipPath id="clip2_24_2720">
<rect width="88.8011" height="78.441" fill="white" transform="matrix(1 0 0 -1 96.1898 165.007)"/>
</clipPath>
<clipPath id="clip3_24_2720">
<rect width="88.8011" height="78.441" fill="white" transform="matrix(-1 0 0 -1 88.8011 165.007)"/>
</clipPath>
</defs>
</svg>
