<svg width="113" height="32" viewBox="0 0 113 32" fill="none" xmlns="http://www.w3.org/2000/svg">
<path fill-rule="evenodd" clip-rule="evenodd" d="M0 4.57143C0 2.0467 2.0467 0 4.57143 0H27.4286C29.9533 0 32 2.0467 32 4.57143V27.4286C32 29.9533 29.9533 32 27.4286 32H4.57143C2.0467 32 0 29.9533 0 27.4286V4.57143ZM5.02381 7.41125V25.1429H9.73377V14.8225H9.87229L13.8203 25.0043H16.6602L20.6082 14.8918H20.7468V25.1429H25.4567V7.41125H19.4654L15.3442 17.4545H15.1364L11.0152 7.41125H5.02381ZM15.2381 9.14286C16.9212 9.14286 18.2857 7.77839 18.2857 6.09524C18.2857 4.41208 16.9212 3.04762 15.2381 3.04762C13.5549 3.04762 12.1905 4.41208 12.1905 6.09524C12.1905 7.77839 13.5549 9.14286 15.2381 9.14286Z" fill="#005FEC"/>
<path d="M40.3699 23V12.0909H42.8273V13.9446H42.9551C43.1824 13.3196 43.5588 12.8319 44.0844 12.4815C44.6099 12.1264 45.2373 11.9489 45.9665 11.9489C46.7051 11.9489 47.3277 12.1288 47.8344 12.4887C48.3457 12.8438 48.7056 13.3291 48.9139 13.9446H49.0275C49.269 13.3386 49.6762 12.8556 50.2491 12.4958C50.8268 12.1312 51.511 11.9489 52.3017 11.9489C53.3055 11.9489 54.1246 12.2661 54.7591 12.9006C55.3935 13.5351 55.7108 14.4607 55.7108 15.6776V23H53.1327V16.0753C53.1327 15.3982 52.9527 14.9034 52.5929 14.5909C52.233 14.2737 51.7927 14.1151 51.2719 14.1151C50.6516 14.1151 50.1663 14.3092 49.8159 14.6975C49.4703 15.081 49.2974 15.5805 49.2974 16.196V23H46.7761V15.9688C46.7761 15.4053 46.6057 14.9555 46.2648 14.6193C45.9286 14.2832 45.4882 14.1151 44.9437 14.1151C44.5744 14.1151 44.2382 14.2098 43.9352 14.3992C43.6322 14.5838 43.3907 14.8466 43.2108 15.1875C43.0309 15.5237 42.9409 15.9167 42.9409 16.3665V23H40.3699Z" fill="#18216D"/>
<path d="M63.1486 23.2131C62.0549 23.2131 61.1103 22.9858 60.3148 22.5313C59.5241 22.072 58.9157 21.4233 58.4895 20.5852C58.0634 19.7424 57.8503 18.7505 57.8503 17.6094C57.8503 16.4872 58.0634 15.5024 58.4895 14.6548C58.9204 13.8026 59.5217 13.1397 60.2935 12.6662C61.0653 12.188 61.972 11.9489 63.0137 11.9489C63.686 11.9489 64.3205 12.0578 64.9171 12.2756C65.5184 12.4887 66.0487 12.8201 66.508 13.2699C66.972 13.7197 67.3366 14.2926 67.6018 14.9887C67.8669 15.6799 67.9995 16.5038 67.9995 17.4602V18.2486H59.0577V16.5156H65.535C65.5303 16.0232 65.4237 15.5852 65.2154 15.2017C65.0071 14.8135 64.7159 14.5081 64.3418 14.2855C63.9725 14.063 63.5416 13.9517 63.0492 13.9517C62.5236 13.9517 62.062 14.0796 61.6643 14.3352C61.2665 14.5862 60.9564 14.9176 60.7339 15.3296C60.5161 15.7368 60.4048 16.1842 60.4001 16.6719V18.1847C60.4001 18.8191 60.5161 19.3637 60.7481 19.8182C60.9801 20.268 61.3044 20.6137 61.7211 20.8551C62.1377 21.0919 62.6254 21.2102 63.1842 21.2102C63.5582 21.2102 63.8967 21.1582 64.1998 21.054C64.5028 20.9451 64.7656 20.7865 64.9881 20.5781C65.2107 20.3698 65.3788 20.1118 65.4924 19.804L67.893 20.0739C67.7414 20.7083 67.4526 21.2623 67.0265 21.7358C66.6051 22.2046 66.0653 22.5691 65.4072 22.8296C64.749 23.0852 63.9962 23.2131 63.1486 23.2131Z" fill="#18216D"/>
<path d="M75.622 12.0909V14.0796H69.3507V12.0909H75.622ZM70.899 9.47729H73.47V19.7188C73.47 20.0644 73.5221 20.3296 73.6263 20.5142C73.7352 20.6941 73.8772 20.8172 74.0524 20.8835C74.2276 20.9498 74.4217 20.983 74.6348 20.983C74.7958 20.983 74.9426 20.9711 75.0751 20.9475C75.2124 20.9238 75.3166 20.9025 75.3876 20.8835L75.8209 22.8935C75.6836 22.9408 75.4871 22.9929 75.2314 23.0497C74.9804 23.1065 74.6727 23.1397 74.3081 23.1492C73.6641 23.1681 73.0841 23.071 72.568 22.858C72.0519 22.6402 71.6424 22.304 71.3393 21.8494C71.041 21.3949 70.8943 20.8267 70.899 20.1449V9.47729Z" fill="#18216D"/>
<path d="M83.2197 12.0909V14.0796H76.9484V12.0909H83.2197ZM78.4967 9.47729H81.0677V19.7188C81.0677 20.0644 81.1198 20.3296 81.2239 20.5142C81.3328 20.6941 81.4749 20.8172 81.6501 20.8835C81.8252 20.9498 82.0194 20.983 82.2324 20.983C82.3934 20.983 82.5402 20.9711 82.6728 20.9475C82.8101 20.9238 82.9143 20.9025 82.9853 20.8835L83.4185 22.8935C83.2812 22.9408 83.0847 22.9929 82.829 23.0497C82.5781 23.1065 82.2703 23.1397 81.9057 23.1492C81.2618 23.1681 80.6818 23.071 80.1657 22.858C79.6496 22.6402 79.24 22.304 78.937 21.8494C78.6387 21.3949 78.4919 20.8267 78.4967 20.1449V9.47729Z" fill="#18216D"/>
<path d="M85.3699 23V12.0909H87.9409V23H85.3699ZM86.6625 10.5426C86.2553 10.5426 85.9049 10.4077 85.6114 10.1378C85.3178 9.86318 85.171 9.5341 85.171 9.15058C85.171 8.76232 85.3178 8.43325 85.6114 8.16337C85.9049 7.88874 86.2553 7.75143 86.6625 7.75143C87.0744 7.75143 87.4248 7.88874 87.7136 8.16337C88.0072 8.43325 88.154 8.76232 88.154 9.15058C88.154 9.5341 88.0072 9.86318 87.7136 10.1378C87.4248 10.4077 87.0744 10.5426 86.6625 10.5426Z" fill="#18216D"/>
<path d="M93.1557 16.608V23H90.5847V12.0909H93.0421V13.9446H93.1699C93.4209 13.3338 93.821 12.8485 94.3702 12.4887C94.9242 12.1288 95.6084 11.9489 96.4228 11.9489C97.1756 11.9489 97.8314 12.1099 98.3901 12.4318C98.9536 12.7538 99.3892 13.2202 99.6969 13.831C100.009 14.4418 100.163 15.1828 100.159 16.054V23H97.5876V16.4517C97.5876 15.7226 97.3982 15.152 97.0194 14.7401C96.6453 14.3281 96.1269 14.1222 95.464 14.1222C95.0142 14.1222 94.6141 14.2216 94.2637 14.4205C93.9181 14.6146 93.6458 14.8963 93.4469 15.2656C93.2528 15.635 93.1557 16.0824 93.1557 16.608Z" fill="#18216D"/>
<path d="M107.517 27.3182C106.593 27.3182 105.8 27.1927 105.137 26.9418C104.474 26.6956 103.942 26.3641 103.539 25.9475C103.137 25.5308 102.857 25.0691 102.701 24.5625L105.017 24.0014C105.121 24.2145 105.272 24.4252 105.471 24.6335C105.67 24.8466 105.937 25.0218 106.274 25.1591C106.615 25.3011 107.043 25.3722 107.559 25.3722C108.288 25.3722 108.892 25.1946 109.37 24.8395C109.848 24.4891 110.088 23.9115 110.088 23.1065V21.0398H109.96C109.827 21.3049 109.633 21.5772 109.377 21.8565C109.126 22.1359 108.793 22.3703 108.376 22.5597C107.964 22.7491 107.446 22.8438 106.821 22.8438C105.982 22.8438 105.222 22.6473 104.541 22.2543C103.864 21.8565 103.324 21.2647 102.921 20.4787C102.524 19.688 102.325 18.6984 102.325 17.51C102.325 16.312 102.524 15.3012 102.921 14.4773C103.324 13.6487 103.866 13.0213 104.548 12.5952C105.23 12.1643 105.99 11.9489 106.828 11.9489C107.467 11.9489 107.992 12.0578 108.404 12.2756C108.821 12.4887 109.152 12.7467 109.399 13.0497C109.645 13.348 109.832 13.6297 109.96 13.8949H110.102V12.0909H112.637V23.1776C112.637 24.1103 112.415 24.8821 111.97 25.4929C111.525 26.1037 110.916 26.5606 110.144 26.8637C109.373 27.1667 108.497 27.3182 107.517 27.3182ZM107.538 20.8267C108.082 20.8267 108.546 20.6941 108.93 20.429C109.313 20.1638 109.605 19.7827 109.803 19.2855C110.002 18.7884 110.102 18.1918 110.102 17.4958C110.102 16.8092 110.002 16.2079 109.803 15.6918C109.609 15.1757 109.321 14.7756 108.937 14.4915C108.558 14.2027 108.092 14.0583 107.538 14.0583C106.965 14.0583 106.487 14.2074 106.103 14.5057C105.72 14.804 105.431 15.2136 105.237 15.7344C105.043 16.2505 104.946 16.8376 104.946 17.4958C104.946 18.1634 105.043 18.7481 105.237 19.25C105.436 19.7472 105.727 20.1354 106.11 20.4148C106.499 20.6894 106.974 20.8267 107.538 20.8267Z" fill="#18216D"/>
</svg>
